<svg width="25" height="27" viewBox="0 0 25 27" fill="none" xmlns="http://www.w3.org/2000/svg">
<path d="M24.6792 13.8974C24.3693 13.4556 23.8413 13.2301 23.1082 13.2301H15.0307C14.7827 13.2301 14.5711 13.3258 14.4215 13.5057C14.289 13.6651 14.2163 13.8769 14.2163 14.1024C14.2163 14.5146 14.4707 14.9565 15.0307 14.9565H22.5076C22.6935 14.9565 22.8645 15.0476 22.9778 15.207C23.0975 15.3755 23.136 15.5919 23.0804 15.7992C21.5265 21.6752 18.2027 25.2623 17.2066 25.203C16.7001 25.203 16.4243 24.2579 16.1037 23.1647C15.9241 22.5497 15.7382 21.9166 15.486 21.3449C14.9324 20.0103 13.729 19.2086 12.3418 19.2428C9.9884 19.3088 9.30013 21.4975 8.74653 23.258C8.67599 23.4835 8.60759 23.7022 8.53705 23.9049C8.23781 24.7749 8.02192 25.1484 7.79749 25.1962C7.61153 25.2349 7.36786 25.0618 6.99808 24.6337C4.34334 21.6205 1.59669 14.9906 1.59669 9.11236C1.59669 6.40211 2.13961 4.42067 3.2575 3.05415C4.35403 1.75369 5.63437 1.47128 7.16907 2.1887C7.87871 2.52805 8.49003 3.08376 9.13555 3.66908C10.3368 4.75774 11.6962 5.99443 14.0047 5.99443C15.7232 5.97621 16.7663 5.35217 17.6854 4.80329C18.4934 4.32046 19.1923 3.90139 20.1991 3.9515C22.1848 4.02438 23.1958 5.96027 23.2941 7.72535C23.3177 8.1558 23.6703 8.47921 24.1107 8.47921C24.2261 8.47921 24.4484 8.45188 24.6215 8.26284C24.7775 8.09203 24.8524 7.83922 24.8438 7.50443C24.7754 4.25668 22.9842 2.2183 20.1606 2.18186C18.6537 2.2388 17.6427 2.8059 16.6659 3.35479C15.7852 3.84901 14.958 4.3159 13.8572 4.29996C12.9573 4.29996 12.2584 3.89684 11.615 3.48005C10.9567 3.10198 10.4052 2.59182 9.87297 2.0976C8.8021 1.10687 7.69062 0.0797132 5.63223 0C2.40038 0.0546605 0.032062 3.81712 0 8.94838C0.032062 16.1886 3.35796 23.1738 5.71132 25.8225C6.43165 26.5992 7.14342 27 7.79749 27C7.9407 27 8.07963 26.9818 8.21643 26.9431C9.02867 26.7153 9.67419 25.8066 10.0333 24.3877C10.5783 22.347 11.164 21.0762 12.393 21.0443C13.2138 21.0443 13.5644 21.5977 13.9042 22.2673C14.1116 22.6955 14.2633 23.233 14.4258 23.8046C14.8725 25.3807 15.3791 27.1685 17.2515 26.9681C19.1218 26.77 20.7997 24.6428 21.6333 23.3901C22.9372 21.4337 24.1427 18.7987 24.7775 16.5143C25.1046 15.3391 25.0704 14.46 24.6792 13.8974Z" fill="white"/>
</svg>
