<svg width="13" height="13" viewBox="0 0 13 13" fill="none" xmlns="http://www.w3.org/2000/svg">
<g clip-path="url(#clip0_2358_290)">
<path d="M13 6.06903V6.93214C12.9858 6.95809 12.9807 7.00616 12.9774 7.04737C12.7116 10.2017 10.2019 12.7114 7.04769 12.9772C7.00648 12.9807 6.9584 12.9858 6.93246 12.9998H6.06937C2.82026 12.7444 0.218526 10.1989 0.0109579 6.88279C-0.00455888 6.63426 -0.00303264 6.36793 0.0119754 6.11431C0.208352 2.83182 2.83196 0.208666 6.11439 0.0120319C6.368 -0.00323083 6.63433 -0.00450272 6.88234 0.0112687C10.1984 0.222911 12.739 2.82113 13 6.06903ZM4.2885 2.81732L6.28355 2.81833L6.28304 0.458211C5.96558 0.513666 5.71782 0.666547 5.48456 0.861401C4.91807 1.37728 4.54465 2.09386 4.2885 2.81732ZM7.51675 0.861401C7.28374 0.666547 7.03573 0.513666 6.71827 0.458211L6.71776 2.81833L8.71587 2.81732C8.44649 2.08369 8.0924 1.38746 7.51675 0.861401ZM4.45206 1.42052C4.64081 1.11832 4.84761 0.876664 5.09054 0.608294C3.73142 0.933899 2.54731 1.70416 1.69313 2.81503L3.80773 2.81859C3.97842 2.3228 4.17861 1.86899 4.45206 1.42052ZM9.19612 2.81935L11.3082 2.81477C10.454 1.7039 9.27015 0.93339 7.91052 0.60804C8.17125 0.893707 8.39154 1.15775 8.58181 1.47394C8.83669 1.89926 9.02646 2.33985 9.19612 2.81935ZM3.25803 6.28271C3.26923 5.2217 3.4071 4.26524 3.67546 3.25307L1.38712 3.2495C0.809944 4.1528 0.48104 5.18888 0.443392 6.28398L3.25803 6.28271ZM6.2838 6.28271L6.28329 3.25078H4.13893C3.85174 4.24743 3.69861 5.25553 3.68945 6.28475L6.2838 6.28271ZM9.3139 6.28195C9.29762 5.21432 9.14576 4.23522 8.86188 3.25001L6.71751 3.2523L6.71802 6.28449L9.3139 6.28195ZM12.5589 6.2822C12.5157 5.16345 12.1853 4.14644 11.6147 3.25027L9.32458 3.25179C9.59778 4.25557 9.72878 5.25629 9.74735 6.28525L12.5589 6.2822ZM3.67673 9.74861C3.39717 8.72143 3.2738 7.73674 3.25345 6.71693L0.443392 6.71821C0.481294 7.81178 0.809944 8.84837 1.38712 9.75141L3.67673 9.74861ZM6.2838 9.74709L6.28329 6.71744L3.68767 6.71846C3.70166 7.76294 3.85225 8.75908 4.13944 9.75141L6.2838 9.74709ZM8.86391 9.74963C9.15135 8.74026 9.30016 7.75785 9.31339 6.71846L6.71776 6.71795V9.75116L8.86391 9.74963ZM11.6167 9.75065C12.1982 8.83056 12.5198 7.80644 12.5579 6.71795H9.74379C9.73336 7.76395 9.59167 8.75298 9.32535 9.75014L11.6167 9.75065ZM4.44265 11.5656C4.17403 11.1212 3.97664 10.6735 3.80799 10.1833L1.69237 10.1854C2.53968 11.2894 3.7271 12.0683 5.09054 12.3931C4.84329 12.1207 4.63292 11.8732 4.44265 11.5656ZM6.28329 12.5407V10.1836L4.28545 10.1846C4.41136 10.5311 4.55305 10.8457 4.72526 11.1652C5.04628 11.7239 5.5825 12.4346 6.28329 12.5407ZM8.27122 11.1739C8.44623 10.8491 8.58232 10.5502 8.71536 10.1859L6.71726 10.1849L6.71878 12.5442C7.42212 12.4219 7.93494 11.7508 8.27122 11.1739ZM7.91841 12.3908C9.29635 12.0594 10.466 11.2797 11.3095 10.1851L9.19333 10.1833C9.02264 10.6791 8.82143 11.134 8.55358 11.573C8.37145 11.8717 8.15116 12.1212 7.91841 12.3908Z" fill="#2C4A3E"/>
</g>
<defs>
<clipPath id="clip0_2358_290">
<rect width="13" height="13" fill="white"/>
</clipPath>
</defs>
</svg>
