<svg width="24" height="24" viewBox="0 0 24 24" fill="none" xmlns="http://www.w3.org/2000/svg">
<path d="M23.4208 20.7414C22.6318 21.6336 21.8446 22.3694 21.0188 23.1735C19.6699 24.4866 17.189 24.0058 15.407 23.3047C10.6227 21.4237 5.92303 17.0355 2.99593 12.8394C1.54177 10.7559 0.0237354 7.86259 0.000250905 5.35169C-0.00726412 4.55972 0.15243 3.66839 0.69633 3.08542C1.52956 2.19222 2.33742 1.38525 3.24111 0.543597C4.05743 -0.216513 5.49749 -0.172462 6.30442 0.631699L9.82145 4.13514C10.3776 4.68906 10.4687 5.53914 10.2686 6.26083C10.0817 6.93659 9.55748 7.45207 8.8135 7.72294C7.92579 8.04629 7.24286 8.92918 7.34995 9.90861C7.42134 10.5562 7.67967 11.1926 8.01221 11.7672C9.15825 13.7438 10.867 15.3344 12.9252 16.3044C14.1586 16.8864 15.6512 16.549 16.1933 15.2781C16.5089 14.5368 16.9316 13.936 17.6577 13.7195C18.4609 13.4805 19.3327 13.6042 19.9329 14.2078L23.4499 17.7356C24.2127 18.5004 24.1629 19.9016 23.4199 20.7414H23.4208Z" fill="white"/>
</svg>
