<svg width="44" height="41" viewBox="0 0 44 41" fill="none" xmlns="http://www.w3.org/2000/svg">
<g clip-path="url(#clip0_2358_441)">
<path d="M20.0862 18.2061C20.0862 17.6057 19.6616 17.1211 19.1408 17.1211C18.6199 17.1211 18.1953 17.6057 18.1953 18.2061C18.1953 18.8064 18.6199 19.291 19.1408 19.291C19.6616 19.291 20.0862 18.8064 20.0862 18.2061Z" fill="white"/>
<path d="M28.7218 18.2061C28.7218 17.6057 28.2972 17.1211 27.7764 17.1211C27.2556 17.1211 26.8281 17.6057 26.8281 18.2061C26.8281 18.8064 27.2527 19.291 27.7764 19.291C28.3001 19.291 28.7218 18.8064 28.7218 18.2061Z" fill="white"/>
<path d="M24.4053 21.2522C24.3883 21.2522 24.3713 21.2522 24.3544 21.2494C24.1421 21.2219 23.992 21.0319 24.0203 20.8253C24.0515 20.5858 23.9835 20.3489 23.8335 20.1727C23.7316 20.0543 23.5986 19.9772 23.4853 19.9717C23.3665 19.9662 23.2221 20.0405 23.106 20.1617C22.939 20.3352 22.8598 20.5802 22.8909 20.8281C22.9164 21.0346 22.7635 21.2219 22.5512 21.2466C22.3417 21.2714 22.1464 21.1227 22.121 20.9162C22.0643 20.4481 22.2172 19.9854 22.5371 19.6495C22.8116 19.3631 23.1655 19.2034 23.5165 19.2199C23.8477 19.2337 24.1789 19.4044 24.4251 19.688C24.7167 20.024 24.8497 20.4756 24.7903 20.9245C24.7648 21.1145 24.5978 21.2522 24.4053 21.2522Z" fill="white"/>
<path d="M23.5122 24.8548C23.4924 24.8548 23.4726 24.8548 23.4528 24.8548C20.3702 24.8328 18.4283 22.9851 17.9047 22.4205C17.7603 22.2663 17.7745 22.0268 17.933 21.8863C18.0915 21.7486 18.3378 21.7597 18.4821 21.9139C18.952 22.4205 20.6957 24.0783 23.4585 24.0976C23.4754 24.0976 23.4924 24.0976 23.5094 24.0976C26.3005 24.0976 28.0611 22.4288 28.5367 21.9139C28.681 21.7597 28.9273 21.7459 29.0858 21.8863C29.2444 22.0268 29.2585 22.2636 29.1141 22.4205C28.5848 22.9933 26.6203 24.8548 23.5094 24.8548H23.5122Z" fill="white"/>
<path d="M15.8008 21.9429C16.6184 21.9429 17.2812 21.2981 17.2812 20.5027C17.2812 19.7073 16.6184 19.0625 15.8008 19.0625C14.9831 19.0625 14.3203 19.7073 14.3203 20.5027C14.3203 21.2981 14.9831 21.9429 15.8008 21.9429Z" fill="#FAD5D6"/>
<path d="M31.1211 21.9429C31.9387 21.9429 32.6015 21.2981 32.6015 20.5027C32.6015 19.7073 31.9387 19.0625 31.1211 19.0625C30.3034 19.0625 29.6406 19.7073 29.6406 20.5027C29.6406 21.2981 30.3034 21.9429 31.1211 21.9429Z" fill="#FAD5D6"/>
<path d="M7.83673 21.4374C7.55367 21.4374 7.3074 21.2363 7.26211 20.9582C6.34214 15.2085 8.12829 10.2435 11.8167 8.30767C12.5272 7.93592 13.6821 7.4375 15.4909 7.4375H15.4937C15.8164 7.4375 16.0768 7.69084 16.0768 8.00476C16.0768 8.31869 15.8164 8.57203 15.4937 8.57203C15.4937 8.57203 15.4937 8.57203 15.4909 8.57203C13.9453 8.57203 12.9687 8.99059 12.3686 9.30452C9.17281 10.9815 7.58197 15.594 8.41136 20.782C8.45948 21.0904 8.24435 21.3795 7.92448 21.4291C7.89335 21.4346 7.86504 21.4346 7.8339 21.4346L7.83673 21.4374Z" fill="white"/>
<path d="M30.08 40.9992C30.0318 40.9992 29.9837 40.9992 29.9328 40.9937C28.2712 40.8973 27.2635 39.1983 26.2869 37.5543C25.4377 36.1224 24.5602 34.6409 23.4505 34.6299H23.4364C22.3607 34.6299 21.5625 35.9902 20.7189 37.4304C19.7395 39.0991 18.729 40.8257 16.9541 40.845C16.9456 40.845 16.9372 40.845 16.9258 40.845C15.3208 40.845 13.6932 39.3663 12.0882 36.4501C10.8569 34.2141 9.84348 31.4851 9.30565 29.6759C9.07637 28.9077 8.87822 28.1173 8.71687 27.327C7.61291 26.8038 3.56788 24.711 1.50148 21.3019C0.881566 20.2775 -1.01216 16.7363 0.697572 14.1312C1.5581 12.8205 2.81209 12.066 4.23592 12.0054C5.11909 11.9668 6.74672 12.1045 7.72048 13.4456C8.71404 14.8142 8.54986 16.7913 7.34683 17.9479C6.37307 18.8842 5.11909 18.9337 4.62372 18.9117C4.30385 18.8979 4.05475 18.6336 4.06891 18.3196C4.08306 18.0057 4.36896 17.7661 4.6775 17.7799C4.94641 17.7909 5.86638 17.7799 6.53159 17.1411C7.32701 16.3755 7.43458 15.0097 6.7722 14.0955C6.11831 13.1922 4.93509 13.1041 4.2897 13.1317C2.96494 13.1895 2.14122 14.0349 1.67982 14.7371C0.292786 16.8519 2.12423 20.0958 2.50354 20.7236C4.67184 24.3007 9.27452 26.3329 9.467 26.4156C9.53211 26.4431 9.59155 26.4844 9.6425 26.534C9.72459 26.6138 9.78121 26.7185 9.80385 26.8286C9.96803 27.6795 10.1775 28.5304 10.4238 29.3565C11.6155 33.3659 14.432 39.7105 16.9258 39.7105C16.9315 39.7105 16.9372 39.7105 16.94 39.7105C18.0468 39.6995 18.8903 38.2593 19.7084 36.8659C20.6793 35.2082 21.687 33.4926 23.4364 33.4926C23.4449 33.4926 23.4562 33.4926 23.4647 33.4926C25.2367 33.5119 26.284 35.277 27.2974 36.9815C28.1183 38.3639 28.9675 39.7958 30.0035 39.8564C30.9094 39.906 32.8455 38.9202 35.696 31.7137C35.8121 31.4218 36.1489 31.2759 36.449 31.3888C36.749 31.5017 36.8991 31.8293 36.783 32.1212C34.3939 38.1629 32.2596 40.9909 30.0828 40.9909L30.08 40.9992Z" fill="white"/>
<path d="M38.6372 33.3544C37.8587 33.3544 36.7604 33.1727 35.8433 32.3383C34.694 31.2919 34.0288 29.3891 34.9828 27.7726C35.8433 26.3104 37.7087 25.6303 39.4156 26.1507C39.7213 26.2443 39.894 26.561 39.7977 26.8612C39.7015 27.1586 39.3731 27.3265 39.0674 27.2329C37.8785 26.8694 36.5849 27.3348 35.9933 28.3372C35.2658 29.5708 35.982 30.9119 36.6387 31.5122C37.6323 32.4182 39.0108 32.2171 39.2769 32.1676C41.0093 31.8454 41.9462 30.1491 42.2519 29.5901C43.7777 26.8199 42.2406 22.0257 38.3343 17.3719C38.2352 17.2535 38.1899 17.102 38.2069 16.9506C38.2126 16.9065 38.691 12.3904 35.3677 10.0387C33.8901 8.99234 32.2823 8.78856 31.1925 8.78305C30.8726 8.78305 30.6122 8.53247 30.6094 8.21854C30.6094 7.90462 30.867 7.65128 31.1897 7.64853C32.4635 7.64302 34.3232 7.89361 36.0556 9.11901C39.4835 11.545 39.4524 15.7637 39.3873 16.8294C43.5427 21.8577 45.0345 26.9355 43.2795 30.1216C42.9087 30.7962 41.7736 32.8532 39.4949 33.2773C39.325 33.3076 39.0193 33.3517 38.6372 33.3517V33.3544Z" fill="white"/>
<path d="M22.2887 12.086C22.2122 12.086 22.1358 12.086 22.0622 12.086C19.8373 12.0365 17.7737 11.1333 15.9281 9.39841L15.9027 9.37638C13.072 6.72456 12.9276 0.828867 12.922 0.578279C12.9191 0.426825 12.9786 0.280878 13.089 0.17073C13.1994 0.0605816 13.3494 0 13.5051 0L20.2987 0.00550742C21.4876 0.0385519 23.7012 0.101887 25.9119 1.37686C27.0046 2.00746 27.783 2.88589 28.352 3.5275C28.451 3.64041 28.5445 3.74505 28.6322 3.84143C28.8473 4.07549 28.8247 4.43347 28.5841 4.64C28.3435 4.84928 27.9755 4.82726 27.7632 4.59319C27.6698 4.4913 27.5735 4.38115 27.4688 4.2655C26.9225 3.65142 26.2431 2.88589 25.3147 2.34892C23.3615 1.22265 21.4225 1.16757 20.2619 1.13453L20.0723 1.12902H14.1165C14.2241 2.62979 14.6996 6.67224 16.7094 8.55578L16.7349 8.57781C18.3654 10.1061 20.1657 10.9047 22.0877 10.946C22.6906 10.9598 24.5249 11.0011 26.2686 9.73437C26.2799 9.72611 26.2941 9.71784 26.3054 9.70958C27.2537 9.12855 27.8877 8.06011 28.2331 7.33589C26.7583 7.34965 23.7719 7.36893 22.0566 7.32762C21.7339 7.31936 21.4819 7.06051 21.4904 6.74659C21.4989 6.43542 21.7678 6.18759 22.0877 6.19585C24.3919 6.25368 29.0455 6.19585 29.0908 6.19585C29.2804 6.19585 29.4531 6.27846 29.5663 6.42441C29.6767 6.57035 29.7107 6.75761 29.6541 6.93109C29.6201 7.03573 28.8105 9.49755 26.9451 10.6541C25.6317 11.6014 24.0663 12.0778 22.2858 12.0778L22.2887 12.086Z" fill="white"/>
<path d="M6.53144 9.17021C6.36726 9.17021 6.22006 9.06833 6.16628 8.91687L5.9738 8.37715C5.59732 7.31972 4.75661 6.50187 3.6668 6.13287L3.11198 5.94562C2.9563 5.8933 2.85156 5.75011 2.85156 5.59039C2.85156 5.43068 2.9563 5.28748 3.11198 5.23241L3.6668 5.04516C4.75378 4.67616 5.59449 3.86106 5.9738 2.80088L6.16628 2.26115C6.22006 2.1097 6.36726 2.00781 6.53144 2.00781C6.69562 2.00781 6.84281 2.1097 6.8966 2.26115L7.08908 2.80088C7.46556 3.85831 8.30627 4.67616 9.39608 5.04516L9.95089 5.23241C10.1066 5.28473 10.2113 5.42792 10.2113 5.59039C10.2113 5.75286 10.1066 5.8933 9.95089 5.94562L9.39608 6.13287C8.3091 6.50187 7.46839 7.31697 7.08908 8.37715L6.8966 8.91687C6.84281 9.06833 6.69562 9.17021 6.53144 9.17021ZM4.34899 5.58764C5.31425 6.02548 6.08136 6.77173 6.53144 7.71075C6.97868 6.77173 7.74863 6.02548 8.71389 5.58764C7.74863 5.1498 6.98152 4.40354 6.53144 3.46453C6.08136 4.40354 5.31425 5.1498 4.34899 5.58764Z" fill="white"/>
</g>
<defs>
<clipPath id="clip0_2358_441">
<rect width="44" height="41" fill="white"/>
</clipPath>
</defs>
</svg>
