<svg width="110" height="28" viewBox="0 0 110 28" fill="none" xmlns="http://www.w3.org/2000/svg">
<g clip-path="url(#clip0_2358_553)">
<path d="M49.1096 4.02539H47.2812V19.0671H49.1096V4.02539Z" fill="#F4F1EA"/>
<path d="M37.3004 7.18733H42.9266C42.862 7.96209 42.7139 8.70614 42.4868 9.40532C42.2335 10.1848 41.8606 10.9076 41.3754 11.5572C40.8903 12.2067 40.2712 12.7973 39.5375 13.3122C38.799 13.8295 37.9075 14.2712 36.8845 14.6255L36.5547 14.7389L37.5442 16.2388L37.7497 16.1632C38.971 15.7191 40.0346 15.1475 40.9165 14.4625C41.7985 13.7775 42.5394 12.9839 43.1154 12.1052C43.6914 11.2265 44.124 10.2509 44.4036 9.20454C44.6809 8.16523 44.8291 7.04324 44.8386 5.87166V5.59766H37.3004V7.18497V7.18733Z" fill="#F4F1EA"/>
<path d="M65.1518 15.25H51.3516V16.8373H65.1518V15.25Z" fill="#F4F1EA"/>
<path d="M63.6217 11.0109H54.7713V6.81583H63.5906V5.22852H52.9453V12.5982H63.6217V11.0109Z" fill="#F4F1EA"/>
<path d="M69.6414 17.0173C69.6342 17.0008 69.6175 16.9488 69.6175 16.8331V13.9277H67.7891V17.3008C67.7891 17.7826 67.9492 18.1369 68.2623 18.3543C68.5443 18.5503 68.8718 18.6495 69.2327 18.6495H78.5778V17.0622H69.9114C69.7609 17.0622 69.682 17.0386 69.6437 17.0197L69.6414 17.0173Z" fill="#F4F1EA"/>
<path d="M73.9531 10.6842C75.3345 10.6086 76.4124 10.337 77.1629 9.87635C78.0066 9.35906 78.4321 8.58194 78.4321 7.57333C78.4321 6.56473 77.9493 5.71674 76.9932 5.19945C76.0922 4.71286 74.7681 4.46484 73.0544 4.46484C71.3408 4.46484 70.0119 4.71286 69.1084 5.19945C68.1476 5.71674 67.6624 6.51512 67.6624 7.57333C67.6624 8.63154 68.0855 9.35906 68.9196 9.87635C69.6629 10.3393 70.7408 10.611 72.1271 10.6865V11.7306H66.1328V13.3179H79.933V11.7306H73.9555V10.6865L73.9531 10.6842ZM70.313 6.46316C70.9321 6.18916 71.8522 6.04979 73.0473 6.04979C74.2423 6.04979 75.1624 6.18916 75.7815 6.46316C76.3431 6.71117 76.606 7.07021 76.606 7.5875C76.606 8.1048 76.3431 8.45911 75.7767 8.7024C75.1529 8.97168 74.2303 9.10868 73.0305 9.10868C71.8307 9.10868 70.9153 8.97168 70.3035 8.7024C69.7466 8.45911 69.4885 8.1048 69.4885 7.5875C69.4885 7.07021 69.749 6.71117 70.3106 6.46316H70.313Z" fill="#F4F1EA"/>
<path d="M83.7915 6.3774C83.9922 6.427 84.2097 6.46479 84.4416 6.49314C84.6638 6.51912 84.8933 6.54038 85.1251 6.55691C85.357 6.57345 85.5768 6.58053 85.7824 6.58053H88.1868V4.92945H85.7657C85.4454 4.92945 85.0941 4.89638 84.7236 4.8326C84.3555 4.76882 84.0353 4.68143 83.77 4.57513L83.476 4.45703L83.0625 6.09395L83.2585 6.19079C83.4043 6.26165 83.5764 6.32307 83.7891 6.37503L83.7915 6.3774Z" fill="#F4F1EA"/>
<path d="M88.8641 7.96109V7.68945H81.7059V9.27677H86.8828C86.8087 9.84366 86.6462 10.3964 86.3952 10.9231C86.0988 11.5444 85.6949 12.1231 85.1978 12.6451C84.6983 13.1695 84.0984 13.6395 83.4196 14.0411C82.7384 14.4426 81.9784 14.7686 81.1634 15.0119L80.8359 15.1087L81.7131 16.6606L81.9282 16.5897C82.9655 16.252 83.9048 15.8173 84.7198 15.2977C85.4607 14.8253 86.1108 14.282 86.6605 13.6773L90.1643 16.2779L91.2709 14.804L87.6715 12.3286C88.4674 11.0152 88.8689 9.5484 88.8689 7.96109H88.8641Z" fill="#F4F1EA"/>
<path d="M93.5471 4.02539H91.7188V19.0671H93.5471V4.02539Z" fill="#F4F1EA"/>
<path d="M102.551 8.06853C102.537 8.54095 102.506 9.02517 102.465 9.51176C102.424 9.99362 102.369 10.4684 102.31 10.9172C102.247 11.3636 102.18 11.7652 102.109 12.1148L102.049 12.4006L103.803 12.625L103.861 12.3864C103.947 12.0274 104.026 11.5715 104.095 11.0329C104.164 10.5015 104.222 9.92512 104.269 9.32043C104.317 8.72282 104.351 8.09924 104.372 7.46384C104.394 6.83789 104.398 6.24265 104.389 5.69465L104.384 5.42773H96.1719V7.01505H102.565C102.57 7.34101 102.565 7.69532 102.553 8.06853H102.551Z" fill="#F4F1EA"/>
<path d="M107.621 10.0747V4.02539H105.793V13.4926C105.565 13.5233 105.295 13.5563 104.987 13.5894C104.562 13.6367 104.1 13.6815 103.622 13.7217C103.135 13.7642 102.635 13.802 102.129 13.8374C101.627 13.8729 101.158 13.9012 100.738 13.9225L100.477 13.9366V9.54083H98.6486V13.9886C98.1348 13.9957 97.6376 14.0028 97.1549 14.0075C96.5884 14.0122 96.1319 14.0146 95.7853 14.0146H95.4531L95.7638 15.6184H95.9909C96.2442 15.6184 96.5573 15.6184 96.9326 15.6114C97.3078 15.6066 97.7093 15.5995 98.1419 15.5877C98.5745 15.5783 99.0191 15.5617 99.4732 15.5405C99.9249 15.5192 100.358 15.498 100.769 15.4791C101.753 15.4271 102.726 15.3539 103.661 15.2594C104.456 15.1791 105.173 15.0917 105.795 14.9949V19.0623H107.623V11.688H110.006V10.0699H107.623L107.621 10.0747Z" fill="#F4F1EA"/>
<path d="M39.6785 26.4436C39.6785 26.5428 39.6594 26.609 39.6211 26.642C39.5829 26.6751 39.5184 26.6964 39.4275 26.7058C39.3511 26.7153 39.265 26.7247 39.167 26.7365C39.069 26.7483 38.9663 26.7578 38.8635 26.7696C38.7607 26.7814 38.6555 26.7908 38.5504 26.7979C38.4452 26.805 38.3472 26.8097 38.2564 26.8097C37.9266 26.8097 37.6517 26.7696 37.4342 26.6869C37.2167 26.6042 37.0423 26.4743 36.9108 26.2972C36.7794 26.12 36.6885 25.8933 36.6359 25.6193C36.5834 25.3453 36.5547 25.0122 36.5547 24.6248C36.5547 24.2374 36.5834 23.8973 36.6383 23.6257C36.6933 23.354 36.7841 23.1344 36.9084 22.9643C37.0351 22.7942 37.1976 22.6738 37.4008 22.5958C37.6039 22.5202 37.8525 22.4824 38.1465 22.4824C38.2445 22.4824 38.352 22.4895 38.4715 22.5013C38.591 22.5131 38.7081 22.5297 38.8252 22.5462C38.9424 22.5627 39.0499 22.5816 39.1503 22.6005C39.2507 22.6194 39.3295 22.636 39.3869 22.6478C39.4251 22.6572 39.4538 22.6714 39.4753 22.6879C39.4968 22.7045 39.5064 22.7517 39.504 22.8249L39.4849 23.1934C39.4825 23.2548 39.4658 23.2973 39.4371 23.3186C39.4084 23.3399 39.3726 23.3469 39.3295 23.3422C39.2698 23.3351 39.1933 23.328 39.0953 23.3186C38.9997 23.3091 38.9017 23.2997 38.799 23.2903C38.6962 23.2808 38.5982 23.2737 38.5026 23.2666C38.407 23.2595 38.3281 23.2572 38.2684 23.2572C38.1082 23.2572 37.9744 23.2784 37.8644 23.3186C37.7569 23.3588 37.6685 23.4296 37.6039 23.5335C37.5394 23.6375 37.4916 23.7768 37.4653 23.9516C37.439 24.1288 37.4247 24.3532 37.4247 24.6272C37.4247 24.9012 37.4366 25.1067 37.4605 25.2815C37.4844 25.4563 37.5298 25.598 37.5944 25.7019C37.6589 25.8059 37.7521 25.8838 37.8716 25.9287C37.9911 25.9736 38.1441 25.9972 38.3329 25.9972C38.395 25.9972 38.4572 25.9972 38.5193 25.9972C38.5815 25.9972 38.634 25.9925 38.6818 25.9901C38.7392 25.9877 38.7918 25.983 38.842 25.9759V25.2673H38.352C38.309 25.2673 38.2755 25.2602 38.2588 25.2437C38.2397 25.2272 38.2301 25.1964 38.2301 25.1516V24.639C38.2301 24.5918 38.2397 24.561 38.2588 24.5469C38.2779 24.5303 38.309 24.5233 38.352 24.5233H39.5542C39.5972 24.5233 39.6307 24.5303 39.6474 24.5469C39.6665 24.5634 39.6761 24.5941 39.6761 24.639V26.4507L39.6785 26.4436Z" fill="#F4F1EA"/>
<path d="M41.1063 26.7035C41.0632 26.7035 41.0298 26.6964 41.0131 26.6799C40.9939 26.6633 40.9844 26.6326 40.9844 26.5877V22.6431C40.9844 22.5958 40.9939 22.5651 41.0131 22.551C41.0322 22.5344 41.0632 22.5273 41.1063 22.5273H41.7659C41.8089 22.5273 41.8424 22.5344 41.8591 22.551C41.8783 22.5675 41.8878 22.5982 41.8878 22.6431V26.5877C41.8878 26.635 41.8783 26.6657 41.8591 26.6799C41.84 26.6964 41.8089 26.7035 41.7659 26.7035H41.1063Z" fill="#F4F1EA"/>
<path d="M43.9354 26.7035C43.8039 26.7035 43.6988 26.6893 43.6247 26.661C43.5506 26.6326 43.4908 26.5925 43.4526 26.5429C43.4143 26.4909 43.3881 26.4295 43.3761 26.3563C43.3642 26.283 43.3594 26.2027 43.3594 26.1153V23.1084C43.3594 23.0021 43.3689 22.9124 43.3881 22.8391C43.4072 22.7636 43.4382 22.7045 43.4813 22.6573C43.5243 22.61 43.584 22.5769 43.6557 22.5581C43.7274 22.5392 43.8183 22.5273 43.9282 22.5273H44.748C45.1089 22.5273 45.4053 22.5675 45.6371 22.6454C45.8689 22.7234 46.0482 22.8462 46.1796 23.0139C46.3111 23.1793 46.3995 23.3895 46.4473 23.6422C46.4951 23.895 46.5214 24.195 46.5214 24.5375C46.5214 24.88 46.4999 25.2036 46.4545 25.4728C46.4115 25.7421 46.323 25.9689 46.1964 26.1508C46.0673 26.3326 45.8881 26.4696 45.6562 26.5618C45.4244 26.6539 45.1232 26.7011 44.7504 26.7011H43.9354V26.7035ZM45.6251 24.5375C45.6251 24.3272 45.6156 24.143 45.5989 23.9895C45.5821 23.8359 45.5415 23.7084 45.4817 23.6092C45.4196 23.51 45.3312 23.4367 45.2117 23.3871C45.0922 23.3399 44.9296 23.3139 44.7265 23.3139H44.2174V25.9075H44.7265C44.9296 25.9075 45.0922 25.8768 45.2117 25.8153C45.3312 25.7539 45.422 25.6618 45.4817 25.5437C45.5439 25.4232 45.5821 25.2792 45.5989 25.1114C45.6156 24.9414 45.6251 24.7501 45.6251 24.5375Z" fill="#F4F1EA"/>
<path d="M48.6705 24.2592H50.193C50.236 24.2592 50.2695 24.2662 50.2862 24.2828C50.3053 24.2993 50.3149 24.33 50.3149 24.3749V24.9347C50.3149 24.9819 50.3053 25.0127 50.2862 25.0268C50.2671 25.0434 50.236 25.0504 50.193 25.0504H48.6705V25.6788C48.6705 25.7685 48.6873 25.8299 48.7183 25.863C48.7494 25.8961 48.8068 25.9126 48.8928 25.9126H50.3722C50.4153 25.9126 50.4487 25.9197 50.4655 25.9362C50.4846 25.9528 50.4941 25.9835 50.4941 26.0283V26.5882C50.4941 26.6354 50.4846 26.6661 50.4655 26.6803C50.4463 26.6968 50.4153 26.7039 50.3722 26.7039H48.3885C48.2571 26.7039 48.1519 26.6897 48.0778 26.6614C48.0037 26.633 47.944 26.5929 47.9057 26.5433C47.8675 26.4913 47.8412 26.4299 47.8292 26.3567C47.8173 26.2834 47.8125 26.2031 47.8125 26.1157V23.1135C47.8125 23.0261 47.8173 22.9458 47.8292 22.8726C47.8412 22.7994 47.8651 22.738 47.9057 22.686C47.944 22.634 48.0013 22.5963 48.0778 22.5679C48.1543 22.5396 48.2571 22.5254 48.3885 22.5254H50.3722C50.4153 22.5254 50.4487 22.5325 50.4655 22.549C50.4846 22.5655 50.4941 22.5963 50.4941 22.6411V23.2009C50.4941 23.2482 50.4846 23.2789 50.4655 23.2931C50.4463 23.3096 50.4153 23.3167 50.3722 23.3167H48.8928C48.8092 23.3167 48.7494 23.3332 48.7183 23.3663C48.6873 23.3994 48.6705 23.4608 48.6705 23.5505V24.2592Z" fill="#F4F1EA"/>
<path d="M53.3608 26.782C53.031 26.782 52.7561 26.7371 52.5363 26.6473C52.3164 26.5576 52.1395 26.4229 52.0033 26.2434C51.867 26.0639 51.7714 25.8419 51.7165 25.575C51.6591 25.3081 51.6328 24.9986 51.6328 24.649C51.6328 24.2994 51.6615 23.9853 51.7165 23.7137C51.7738 23.4397 51.8694 23.2105 52.0033 23.0239C52.1371 22.8373 52.3164 22.6956 52.5363 22.6011C52.7561 22.5066 53.031 22.457 53.3608 22.457C53.6907 22.457 53.9607 22.5043 54.183 22.6011C54.4053 22.698 54.5821 22.8397 54.716 23.0239C54.8498 23.2105 54.9454 23.4397 55.0004 23.7137C55.0578 23.9877 55.0841 24.2994 55.0841 24.649C55.0841 24.9986 55.0554 25.3081 55.0004 25.575C54.943 25.8419 54.8498 26.0639 54.716 26.2434C54.5821 26.4229 54.4053 26.5552 54.183 26.6473C53.9607 26.7371 53.6883 26.782 53.3608 26.782ZM53.3608 25.9765C53.5305 25.9765 53.6715 25.9505 53.7815 25.8986C53.8914 25.8466 53.9799 25.7639 54.0444 25.6529C54.1089 25.5419 54.1543 25.4049 54.1782 25.2396C54.2021 25.0742 54.2165 24.8782 54.2165 24.6514C54.2165 24.4246 54.2045 24.2262 54.1782 24.0538C54.1519 23.8814 54.1089 23.7373 54.0444 23.6215C53.9799 23.5058 53.8914 23.416 53.7815 23.357C53.6691 23.2956 53.5305 23.2672 53.3608 23.2672C53.1911 23.2672 53.0477 23.2979 52.9378 23.357C52.8278 23.4184 52.7418 23.5058 52.6773 23.6215C52.6127 23.7373 52.5673 23.8814 52.5434 24.0538C52.5171 24.2262 52.5052 24.4246 52.5052 24.6514C52.5052 24.8782 52.5171 25.0742 52.5434 25.2396C52.5673 25.4049 52.6127 25.5443 52.6773 25.6529C52.7418 25.7639 52.8278 25.8442 52.9378 25.8986C53.0477 25.9505 53.1887 25.9765 53.3608 25.9765Z" fill="#F4F1EA"/>
<path d="M57.3119 23.5828H57.2402V26.5897C57.2402 26.6369 57.2306 26.6676 57.2115 26.6818C57.1924 26.6984 57.1613 26.7054 57.1183 26.7054H56.4969C56.4539 26.7054 56.4204 26.6984 56.4037 26.6818C56.3846 26.6653 56.375 26.6346 56.375 26.5897V22.7442C56.375 22.6639 56.3846 22.6072 56.4061 22.5765C56.4276 22.5458 56.4778 22.5293 56.559 22.5293H57.4816C57.5724 22.5293 57.6393 22.5482 57.6824 22.586C57.7254 22.6238 57.7588 22.6734 57.7827 22.7395L58.8702 25.6543H58.9419V22.6474C58.9419 22.6002 58.9515 22.5695 58.9706 22.5553C58.9897 22.5387 59.0208 22.5317 59.0638 22.5317H59.6852C59.7283 22.5317 59.7617 22.5387 59.7784 22.5553C59.7976 22.5718 59.8071 22.6025 59.8071 22.6474V26.4929C59.8071 26.5732 59.7976 26.6299 59.7761 26.6606C59.7569 26.6913 59.7043 26.7078 59.6231 26.7078H58.7412C58.6503 26.7078 58.5834 26.6889 58.5404 26.6511C58.4974 26.6133 58.4639 26.5637 58.44 26.4976L57.3095 23.5828H57.3119Z" fill="#F4F1EA"/>
<path d="M63.7948 26.7035C63.6633 26.7035 63.5581 26.6893 63.4841 26.661C63.4076 26.6326 63.3502 26.5925 63.312 26.5429C63.2737 26.4933 63.2474 26.4295 63.2355 26.3563C63.2235 26.283 63.2188 26.2027 63.2188 26.1153V23.1084C63.2188 23.0021 63.2283 22.9124 63.2474 22.8391C63.2666 22.7636 63.2976 22.7045 63.3406 22.6573C63.3837 22.61 63.4434 22.5769 63.5151 22.5581C63.5868 22.5368 63.6776 22.5273 63.7876 22.5273H64.6074C64.9683 22.5273 65.2646 22.5675 65.4965 22.6454C65.7283 22.7234 65.9076 22.8462 66.039 23.0139C66.1705 23.1793 66.2589 23.3895 66.3067 23.6422C66.3545 23.895 66.3808 24.195 66.3808 24.5375C66.3808 24.88 66.3593 25.2036 66.3139 25.4728C66.2709 25.7421 66.1848 25.9689 66.0558 26.1508C65.9267 26.3326 65.7474 26.4696 65.5156 26.5618C65.2838 26.6539 64.9826 26.7011 64.6098 26.7011H63.7948V26.7035ZM65.4869 24.5375C65.4869 24.3272 65.4774 24.143 65.4606 23.9895C65.4439 23.8359 65.4033 23.7084 65.3435 23.6092C65.2814 23.51 65.1929 23.4367 65.0734 23.3871C64.9539 23.3399 64.7914 23.3139 64.5883 23.3139H64.0792V25.9075H64.5883C64.7914 25.9075 64.9539 25.8768 65.0734 25.8153C65.1929 25.7539 65.2838 25.6618 65.3435 25.5437C65.4033 25.4256 65.4439 25.2792 65.4606 25.1114C65.4774 24.9414 65.4869 24.7501 65.4869 24.5375Z" fill="#F4F1EA"/>
<path d="M68.5299 24.2592H70.0524C70.0954 24.2592 70.1289 24.2662 70.1456 24.2828C70.1647 24.2993 70.1743 24.33 70.1743 24.3749V24.9347C70.1743 24.9819 70.1647 25.0127 70.1456 25.0268C70.1265 25.041 70.0954 25.0504 70.0524 25.0504H68.5299V25.6788C68.5299 25.7685 68.5466 25.8299 68.5777 25.863C68.6088 25.8961 68.6685 25.9126 68.7522 25.9126H70.2316C70.2746 25.9126 70.3081 25.9197 70.3248 25.9362C70.3416 25.9528 70.3535 25.9835 70.3535 26.0283V26.5882C70.3535 26.6354 70.344 26.6661 70.3248 26.6803C70.3057 26.6968 70.2746 26.7039 70.2316 26.7039H68.2479C68.1164 26.7039 68.0113 26.6897 67.9372 26.6614C67.8607 26.633 67.8033 26.5929 67.7651 26.5433C67.7268 26.4937 67.7006 26.4299 67.6886 26.3567C67.6767 26.2834 67.6719 26.2031 67.6719 26.1157V23.1135C67.6719 23.0261 67.6767 22.9458 67.6886 22.8726C67.7006 22.7994 67.7245 22.738 67.7651 22.686C67.8033 22.634 67.8607 22.5963 67.9372 22.5679C68.0137 22.5396 68.1164 22.5254 68.2479 22.5254H70.2316C70.2746 22.5254 70.3081 22.5325 70.3248 22.549C70.3416 22.5655 70.3535 22.5963 70.3535 22.6411V23.2009C70.3535 23.2482 70.344 23.2789 70.3248 23.2931C70.3057 23.3072 70.2746 23.3167 70.2316 23.3167H68.7522C68.6685 23.3167 68.6088 23.3332 68.5777 23.3663C68.5466 23.3994 68.5299 23.4608 68.5299 23.5505V24.2592Z" fill="#F4F1EA"/>
<path d="M72.6166 23.5828H72.5449V26.5897C72.5449 26.6369 72.5353 26.6676 72.5162 26.6818C72.4971 26.696 72.466 26.7054 72.423 26.7054H71.8016C71.7586 26.7054 71.7251 26.6984 71.7084 26.6818C71.6916 26.6653 71.6797 26.6346 71.6797 26.5897V22.7442C71.6797 22.6639 71.6892 22.6072 71.7108 22.5765C71.7299 22.5458 71.7825 22.5293 71.8637 22.5293H72.7863C72.8771 22.5293 72.944 22.5482 72.987 22.586C73.0301 22.6238 73.0635 22.6734 73.0874 22.7395L74.1749 25.6543H74.2466V22.6474C74.2466 22.6002 74.2562 22.5695 74.2753 22.5553C74.2944 22.5387 74.3255 22.5317 74.3685 22.5317H74.9899C75.0329 22.5317 75.0664 22.5387 75.0831 22.5553C75.1022 22.5718 75.1118 22.6025 75.1118 22.6474V26.4929C75.1118 26.5732 75.1023 26.6299 75.0807 26.6606C75.0592 26.6913 75.009 26.7078 74.9278 26.7078H74.0458C73.955 26.7078 73.8881 26.6889 73.8451 26.6511C73.8021 26.6133 73.7686 26.5637 73.7447 26.4976L72.6142 23.5828H72.6166Z" fill="#F4F1EA"/>
<path d="M76.2266 22.6431C76.2266 22.5958 76.2361 22.5651 76.2552 22.551C76.2744 22.5368 76.3054 22.5273 76.3485 22.5273H79.1663C79.2094 22.5273 79.2428 22.5344 79.2595 22.551C79.2763 22.5675 79.2882 22.5982 79.2882 22.6431V23.1887C79.2882 23.236 79.2787 23.2667 79.2595 23.2808C79.2404 23.295 79.2094 23.3045 79.1663 23.3045H78.2103V26.5877C78.2103 26.635 78.2007 26.6657 78.1816 26.6799C78.1625 26.6964 78.1314 26.7035 78.0884 26.7035H77.4288C77.3857 26.7035 77.3523 26.6964 77.3355 26.6799C77.3164 26.6633 77.3069 26.6326 77.3069 26.5877V23.3045H76.3508C76.3078 23.3045 76.2744 23.2974 76.2576 23.2808C76.2409 23.2643 76.2289 23.2336 76.2289 23.1887V22.6431H76.2266Z" fill="#F4F1EA"/>
<path d="M82.2756 25.9768H80.9132L80.7913 26.5579C80.7746 26.6193 80.7579 26.6594 80.734 26.676C80.7125 26.6925 80.6671 26.7019 80.5977 26.7019H80.0361C79.9692 26.7019 79.9261 26.6901 79.907 26.6665C79.8879 26.6429 79.8855 26.598 79.8998 26.5342L80.734 22.7478C80.7411 22.7195 80.7483 22.6935 80.7579 22.6675C80.7674 22.6415 80.7818 22.6179 80.8009 22.5943C80.82 22.573 80.8463 22.5565 80.8846 22.5423C80.9204 22.5305 80.9658 22.5234 81.0232 22.5234H82.168C82.2254 22.5234 82.2708 22.5305 82.3066 22.5423C82.3425 22.5541 82.3712 22.5707 82.3879 22.5943C82.407 22.6156 82.4214 22.6392 82.4309 22.6675C82.4405 22.6935 82.4476 22.7219 82.4548 22.7478L83.289 26.5342C83.3057 26.6004 83.3033 26.6429 83.2818 26.6665C83.2603 26.6901 83.2172 26.7019 83.1527 26.7019H82.5911C82.5217 26.7019 82.4763 26.6925 82.4548 26.676C82.4333 26.6594 82.4142 26.6193 82.3975 26.5579L82.2756 25.9768ZM81.0805 25.1997H82.113L81.7115 23.2958H81.4797L81.0781 25.1997H81.0805Z" fill="#F4F1EA"/>
<path d="M85.4028 25.6788C85.4028 25.7685 85.4195 25.8299 85.4506 25.863C85.4817 25.8961 85.5414 25.9126 85.6251 25.9126H86.7412C86.7843 25.9126 86.8177 25.9197 86.8344 25.9362C86.8512 25.9528 86.8631 25.9835 86.8631 26.0283V26.5882C86.8631 26.6354 86.8536 26.6661 86.8344 26.6803C86.8153 26.6968 86.7843 26.7039 86.7412 26.7039H85.0682C84.9367 26.7039 84.8316 26.6897 84.7575 26.6614C84.681 26.633 84.626 26.5929 84.5854 26.5433C84.5472 26.4913 84.5209 26.4299 84.5089 26.3567C84.497 26.2834 84.4922 26.2031 84.4922 26.1157V22.6411C84.4922 22.5939 84.5018 22.5632 84.5209 22.549C84.54 22.5348 84.5711 22.5254 84.6141 22.5254H85.2785C85.3215 22.5254 85.355 22.5325 85.3717 22.549C85.3909 22.5655 85.4004 22.5963 85.4004 22.6411V25.6764L85.4028 25.6788Z" fill="#F4F1EA"/>
<path d="M92.6425 26.4483C92.6449 26.5098 92.6425 26.5546 92.6258 26.5783C92.6114 26.6019 92.5756 26.6231 92.5158 26.6397C92.4585 26.6562 92.3868 26.6704 92.3007 26.6869C92.2147 26.7034 92.1215 26.7153 92.0235 26.7294C91.9255 26.7412 91.8251 26.753 91.7223 26.7625C91.6196 26.7719 91.5263 26.7767 91.4379 26.7767C91.1176 26.7767 90.8547 26.7318 90.6468 26.6444C90.4389 26.557 90.2763 26.4224 90.1592 26.2452C90.0421 26.068 89.9609 25.8436 89.9131 25.5744C89.8676 25.3051 89.8438 24.9886 89.8438 24.6248C89.8438 24.2304 89.87 23.8973 89.925 23.6257C89.98 23.354 90.0708 23.1344 90.1951 22.9643C90.3218 22.7942 90.4843 22.6738 90.6874 22.5958C90.8906 22.5202 91.1392 22.4824 91.4331 22.4824C91.5311 22.4824 91.6315 22.4871 91.7367 22.499C91.8418 22.5108 91.9446 22.5226 92.0426 22.5391C92.1406 22.5556 92.2338 22.5722 92.3175 22.5887C92.4011 22.6052 92.4728 22.6218 92.5302 22.6336C92.5684 22.643 92.5971 22.6572 92.621 22.6737C92.6449 22.6903 92.6521 22.7375 92.6497 22.8107L92.6306 23.1792C92.6282 23.2406 92.6114 23.2832 92.5828 23.3044C92.5541 23.3257 92.5182 23.3328 92.4752 23.328C92.4154 23.321 92.3461 23.3139 92.2697 23.3068C92.1932 23.2997 92.1143 23.2903 92.0307 23.2832C91.947 23.2761 91.8705 23.269 91.7916 23.2643C91.7128 23.2595 91.6458 23.2572 91.5861 23.2572C91.426 23.2572 91.2921 23.2784 91.1822 23.3186C91.0746 23.3588 90.9862 23.4296 90.9217 23.5335C90.8547 23.6351 90.8093 23.7768 90.783 23.9516C90.7568 24.1288 90.7424 24.3532 90.7424 24.6272C90.7424 24.8846 90.7544 25.102 90.7759 25.2768C90.7974 25.4515 90.8404 25.5933 90.9049 25.6996C90.9695 25.8059 91.0579 25.8838 91.1702 25.931C91.2826 25.9783 91.4284 26.0019 91.6076 26.0019C91.6602 26.0019 91.7247 25.9995 91.7988 25.9925C91.8729 25.9854 91.9494 25.9783 92.0283 25.9712C92.1071 25.9641 92.1836 25.9547 92.2601 25.9476C92.3366 25.9405 92.4035 25.9334 92.4633 25.9263C92.5302 25.9192 92.5732 25.924 92.5923 25.9381C92.6114 25.9523 92.6234 25.9854 92.6282 26.0373L92.6377 26.4507L92.6425 26.4483Z" fill="#F4F1EA"/>
<path d="M94.8247 25.6788C94.8247 25.7685 94.8414 25.8299 94.8725 25.863C94.9035 25.8961 94.9633 25.9126 95.0469 25.9126H96.1631C96.2061 25.9126 96.2396 25.9197 96.2563 25.9362C96.273 25.9528 96.285 25.9835 96.285 26.0283V26.5882C96.285 26.6354 96.2754 26.6661 96.2563 26.6803C96.2372 26.6968 96.2061 26.7039 96.1631 26.7039H94.4901C94.3586 26.7039 94.2534 26.6897 94.1794 26.6614C94.1029 26.633 94.0479 26.5929 94.0073 26.5433C93.969 26.4913 93.9427 26.4299 93.9308 26.3567C93.9188 26.2834 93.9141 26.2031 93.9141 26.1157V22.6411C93.9141 22.5939 93.9236 22.5632 93.9427 22.549C93.9619 22.5348 93.9929 22.5254 94.036 22.5254H94.7004C94.7434 22.5254 94.7769 22.5325 94.7936 22.549C94.8127 22.5655 94.8223 22.5963 94.8223 22.6411V25.6764L94.8247 25.6788Z" fill="#F4F1EA"/>
<path d="M97.6219 26.7035C97.5789 26.7035 97.5454 26.6964 97.5287 26.6799C97.5096 26.6633 97.5 26.6326 97.5 26.5877V22.6431C97.5 22.5958 97.5096 22.5651 97.5287 22.551C97.5478 22.5344 97.5789 22.5273 97.6219 22.5273H98.2815C98.3246 22.5273 98.358 22.5344 98.3748 22.551C98.3915 22.5675 98.4034 22.5982 98.4034 22.6431V26.5877C98.4034 26.635 98.3939 26.6657 98.3748 26.6799C98.3556 26.6964 98.3246 26.7035 98.2815 26.7035H97.6219Z" fill="#F4F1EA"/>
<path d="M100.812 23.5828H100.74V26.5897C100.74 26.6369 100.731 26.6676 100.712 26.6818C100.692 26.696 100.661 26.7054 100.618 26.7054H99.9969C99.9539 26.7054 99.9204 26.6984 99.9037 26.6818C99.8869 26.6653 99.875 26.6346 99.875 26.5897V22.7442C99.875 22.6639 99.8846 22.6072 99.9061 22.5765C99.9252 22.5458 99.9778 22.5293 100.059 22.5293H100.982C101.072 22.5293 101.139 22.5482 101.182 22.586C101.225 22.6238 101.259 22.6734 101.283 22.7395L102.37 25.6543H102.442V22.6474C102.442 22.6002 102.451 22.5695 102.471 22.5553C102.49 22.5387 102.521 22.5317 102.564 22.5317H103.185C103.228 22.5317 103.262 22.5387 103.278 22.5553C103.298 22.5718 103.307 22.6025 103.307 22.6474V26.4929C103.307 26.5732 103.298 26.6299 103.276 26.6606C103.255 26.6913 103.204 26.7078 103.123 26.7078H102.241C102.15 26.7078 102.083 26.6889 102.04 26.6511C101.997 26.6133 101.964 26.5637 101.94 26.4976L100.81 23.5828H100.812Z" fill="#F4F1EA"/>
<path d="M104.895 26.7035C104.852 26.7035 104.819 26.6964 104.802 26.6799C104.783 26.6633 104.773 26.6326 104.773 26.5877V22.6431C104.773 22.5958 104.783 22.5651 104.802 22.551C104.821 22.5344 104.852 22.5273 104.895 22.5273H105.555C105.598 22.5273 105.631 22.5344 105.648 22.551C105.665 22.5675 105.677 22.5982 105.677 22.6431V26.5877C105.677 26.635 105.667 26.6657 105.648 26.6799C105.629 26.6964 105.598 26.7035 105.555 26.7035H104.895Z" fill="#F4F1EA"/>
<path d="M109.76 26.4483C109.762 26.5098 109.76 26.5546 109.743 26.5783C109.729 26.6019 109.693 26.6231 109.633 26.6397C109.576 26.6562 109.504 26.6704 109.418 26.6869C109.332 26.7034 109.239 26.7153 109.141 26.7294C109.043 26.7412 108.942 26.753 108.84 26.7625C108.737 26.7719 108.644 26.7767 108.555 26.7767C108.235 26.7767 107.972 26.7318 107.764 26.6444C107.556 26.557 107.394 26.4224 107.276 26.2452C107.159 26.068 107.078 25.8436 107.03 25.5744C106.985 25.3051 106.961 24.9886 106.961 24.6248C106.961 24.2304 106.987 23.8973 107.042 23.6257C107.097 23.354 107.188 23.1344 107.312 22.9643C107.439 22.7942 107.601 22.6738 107.805 22.5958C108.008 22.5202 108.256 22.4824 108.55 22.4824C108.648 22.4824 108.749 22.4871 108.854 22.499C108.959 22.5108 109.062 22.5226 109.16 22.5391C109.258 22.5556 109.351 22.5722 109.435 22.5887C109.518 22.6052 109.59 22.6218 109.647 22.6336C109.686 22.643 109.714 22.6572 109.738 22.6737C109.762 22.6903 109.769 22.7375 109.767 22.8107L109.748 23.1792C109.745 23.2406 109.729 23.2832 109.7 23.3044C109.671 23.3257 109.635 23.3328 109.592 23.328C109.533 23.321 109.463 23.3139 109.387 23.3068C109.31 23.2997 109.231 23.2903 109.148 23.2832C109.064 23.2761 108.988 23.269 108.909 23.2643C108.83 23.2595 108.763 23.2572 108.703 23.2572C108.543 23.2572 108.409 23.2784 108.299 23.3186C108.192 23.3588 108.103 23.4296 108.039 23.5335C107.972 23.6351 107.927 23.7768 107.9 23.9516C107.874 24.1288 107.86 24.3532 107.86 24.6272C107.86 24.8846 107.872 25.102 107.893 25.2768C107.915 25.4515 107.958 25.5933 108.022 25.6996C108.087 25.8059 108.175 25.8838 108.287 25.931C108.4 25.9783 108.546 26.0019 108.725 26.0019C108.777 26.0019 108.842 25.9995 108.916 25.9925C108.99 25.9854 109.067 25.9783 109.145 25.9712C109.224 25.9641 109.301 25.9547 109.377 25.9476C109.454 25.9405 109.521 25.9334 109.58 25.9263C109.647 25.9192 109.69 25.924 109.71 25.9381C109.729 25.9523 109.741 25.9854 109.745 26.0373L109.755 26.4507L109.76 26.4483Z" fill="#F4F1EA"/>
<path d="M27.5956 14.4134C27.249 13.9551 26.6587 13.7213 25.8389 13.7213H16.8069C16.5296 13.7213 16.293 13.8205 16.1257 14.0071C15.9775 14.1724 15.8963 14.3921 15.8963 14.6259C15.8963 15.0535 16.1807 15.5117 16.8069 15.5117H25.1673C25.3752 15.5117 25.5664 15.6062 25.6931 15.7716C25.827 15.9463 25.87 16.1707 25.8078 16.3857C24.0703 22.4798 20.3537 26.2001 19.24 26.1387C18.6735 26.1387 18.3652 25.1584 18.0067 24.0246C17.8059 23.3869 17.598 22.7302 17.316 22.1373C16.6969 20.7532 15.3513 19.9217 13.8002 19.9571C11.1687 20.0256 10.3991 22.2956 9.78011 24.1215C9.70124 24.3553 9.62476 24.5821 9.54589 24.7923C9.21128 25.6946 8.96988 26.082 8.71893 26.1316C8.51099 26.1718 8.23853 25.9922 7.82505 25.5482C4.8566 22.4231 1.78537 15.5472 1.78537 9.45065C1.78537 6.63978 2.39245 4.58478 3.64245 3.16754C4.86855 1.8188 6.30019 1.5259 8.01625 2.26995C8.80975 2.6219 9.49331 3.19825 10.2151 3.8053C11.5583 4.93437 13.0784 6.21697 15.6597 6.21697C17.5813 6.19808 18.7476 5.55087 19.7753 4.98161C20.6788 4.48085 21.4603 4.04623 22.586 4.09819C24.8064 4.17378 25.9369 6.18154 26.0468 8.01215C26.0731 8.45858 26.4675 8.79399 26.9598 8.79399C27.0889 8.79399 27.3375 8.76565 27.5311 8.5696C27.7055 8.39244 27.7892 8.13025 27.7796 7.78303C27.7032 4.41471 25.7003 2.30066 22.543 2.26286C20.858 2.32192 19.7275 2.91007 18.6353 3.47933C17.6506 3.9919 16.7256 4.47613 15.4947 4.45959C14.4885 4.45959 13.707 4.0415 12.9876 3.60925C12.2514 3.21714 11.6348 2.68804 11.0397 2.17547C9.84226 1.14797 8.59943 0.0826725 6.2978 0C2.68403 0.0566897 0.0358509 3.95883 0 9.28058C0.0358509 16.7896 3.75478 24.0341 6.38623 26.7812C7.19168 27.5866 7.98757 28.0024 8.71893 28.0024C8.87906 28.0024 9.03442 27.9835 9.18738 27.9433C10.0956 27.7071 10.8174 26.7646 11.2189 25.2931C11.8284 23.1766 12.4833 21.8586 13.8576 21.8255C14.7753 21.8255 15.1673 22.3995 15.5473 23.094C15.7792 23.538 15.9489 24.0955 16.1305 24.6884C16.63 26.3229 17.1965 28.1772 19.2902 27.9693C21.3815 27.7638 23.2576 25.5576 24.1898 24.2585C25.6477 22.2295 26.9957 19.4965 27.7055 17.1274C28.0712 15.9086 28.033 14.9968 27.5956 14.4134Z" fill="#F4F1EA"/>
<path d="M30.7615 7.93359L31.0937 8.99416C31.4068 9.99804 32.1669 10.8035 33.1563 11.1862L33.9761 11.5027L33.1563 11.8192C32.1669 12.2019 31.4068 13.0073 31.0937 14.0112L30.7615 15.0718L30.4293 14.0112C30.1162 13.0073 29.3561 12.2019 28.3667 11.8192L27.5469 11.5027L28.3667 11.1862C29.3561 10.8035 30.1162 9.99804 30.4293 8.99416L30.7615 7.93359Z" fill="#F4F1EA"/>
</g>
<defs>
<clipPath id="clip0_2358_553">
<rect width="110" height="28" fill="white"/>
</clipPath>
</defs>
</svg>
