<svg width="140" height="36" viewBox="0 0 140 36" fill="none" xmlns="http://www.w3.org/2000/svg">
<g clip-path="url(#clip0_2358_254)">
<path d="M62.5067 5.17578H60.1797V24.5151H62.5067V5.17578Z" fill="#2C4A3E"/>
<path d="M47.4725 9.24309H54.6331C54.551 10.2392 54.3624 11.1958 54.0734 12.0948C53.751 13.097 53.2764 14.0263 52.6589 14.8614C52.0414 15.6966 51.2536 16.4558 50.3197 17.1179C49.3798 17.783 48.2451 18.3509 46.9432 18.8064L46.5234 18.9522L47.7828 20.8807L48.0444 20.7835C49.5988 20.2125 50.9524 19.4776 52.0749 18.5969C53.1973 17.7162 54.1403 16.6958 54.8734 15.566C55.6065 14.4363 56.1571 13.182 56.513 11.8366C56.8659 10.5004 57.0545 9.05783 57.0666 7.5515V7.19922H47.4725V9.24005V9.24309Z" fill="#2C4A3E"/>
<path d="M82.9233 19.6055H65.3594V21.6463H82.9233V19.6055Z" fill="#2C4A3E"/>
<path d="M80.9788 14.1571H69.7146V8.76349H80.9392V6.72266H67.3906V16.1979H80.9788V14.1571Z" fill="#2C4A3E"/>
<path d="M88.6387 21.8786C88.6296 21.8573 88.6083 21.7905 88.6083 21.6417V17.9062H86.2812V22.243C86.2812 22.8626 86.4851 23.3181 86.8835 23.5975C87.2425 23.8496 87.6592 23.9771 88.1186 23.9771H100.012V21.9363H88.9825C88.7908 21.9363 88.6904 21.9059 88.6418 21.8816L88.6387 21.8786Z" fill="#2C4A3E"/>
<path d="M94.1249 13.7385C95.8832 13.6413 97.255 13.292 98.2102 12.6998C99.284 12.0347 99.8255 11.0356 99.8255 9.73881C99.8255 8.44204 99.211 7.35177 97.9942 6.68668C96.8474 6.06107 95.1622 5.74219 92.9812 5.74219C90.8002 5.74219 89.1089 6.06107 87.959 6.68668C86.7362 7.35177 86.1187 8.37826 86.1187 9.73881C86.1187 11.0994 86.6571 12.0347 87.7187 12.6998C88.6647 13.2951 90.0366 13.6443 91.8009 13.7415V15.0838H84.1719V17.1247H101.736V15.0838H94.128V13.7415L94.1249 13.7385ZM89.4921 8.31145C90.28 7.95916 91.4511 7.77998 92.9721 7.77998C94.493 7.77998 95.6641 7.95916 96.452 8.31145C97.1668 8.63033 97.5014 9.09194 97.5014 9.75703C97.5014 10.4221 97.1668 10.8777 96.4459 11.1905C95.652 11.5367 94.4778 11.7128 92.9508 11.7128C91.4237 11.7128 90.2587 11.5367 89.48 11.1905C88.7712 10.8777 88.4427 10.4221 88.4427 9.75703C88.4427 9.09194 88.7743 8.63033 89.4891 8.31145H89.4921Z" fill="#2C4A3E"/>
<path d="M106.639 8.19951C106.894 8.26328 107.171 8.31188 107.466 8.34832C107.749 8.38173 108.041 8.40906 108.336 8.43032C108.631 8.45158 108.911 8.46069 109.173 8.46069H112.233V6.33786H109.151C108.744 6.33786 108.297 6.29534 107.825 6.21334C107.357 6.13135 106.949 6.01898 106.611 5.88232L106.237 5.73047L105.711 7.83507L105.96 7.95959C106.146 8.0507 106.365 8.12966 106.636 8.19647L106.639 8.19951Z" fill="#2C4A3E"/>
<path d="M113.101 10.236V9.88672H103.99V11.9275H110.579C110.485 12.6564 110.278 13.3671 109.958 14.0443C109.581 14.843 109.067 15.5871 108.434 16.2582C107.799 16.9324 107.035 17.5368 106.171 18.0531C105.304 18.5694 104.337 18.9885 103.3 19.3013L102.883 19.4258L103.999 21.4211L104.273 21.3299C105.593 20.8957 106.789 20.3369 107.826 19.6687C108.769 19.0613 109.596 18.3628 110.296 17.5854L114.755 20.9291L116.164 19.034L111.583 15.8513C112.596 14.1627 113.107 12.2768 113.107 10.236H113.101Z" fill="#2C4A3E"/>
<path d="M119.061 5.17578H116.734V24.5151H119.061V5.17578Z" fill="#2C4A3E"/>
<path d="M130.517 10.3758C130.499 10.9832 130.459 11.6057 130.408 12.2314C130.356 12.8509 130.286 13.4613 130.21 14.0383C130.131 14.6123 130.046 15.1286 129.954 15.5781L129.878 15.9455L132.111 16.2341L132.184 15.9273C132.294 15.4657 132.394 14.8796 132.482 14.1872C132.571 13.5038 132.644 12.7628 132.704 11.9854C132.765 11.217 132.808 10.4153 132.835 9.59832C132.863 8.79353 132.869 8.02822 132.856 7.32364L132.85 6.98047H122.398V9.0213H130.535C130.542 9.4404 130.535 9.89594 130.52 10.3758H130.517Z" fill="#2C4A3E"/>
<path d="M136.971 12.9534V5.17578H134.644V17.3479C134.355 17.3874 134.011 17.4299 133.618 17.4724C133.077 17.5331 132.49 17.5908 131.882 17.6425C131.261 17.6971 130.625 17.7457 129.98 17.7913C129.342 17.8368 128.745 17.8733 128.21 17.9006L127.878 17.9188V12.2671H125.551V17.9856C124.897 17.9947 124.265 18.0039 123.65 18.0099C122.929 18.016 122.348 18.019 121.907 18.019H121.484L121.88 20.0811H122.169C122.491 20.0811 122.89 20.0811 123.367 20.072C123.845 20.0659 124.356 20.0568 124.907 20.0416C125.457 20.0295 126.023 20.0082 126.601 19.9809C127.176 19.9536 127.726 19.9262 128.25 19.9019C129.503 19.8351 130.741 19.741 131.93 19.6195C132.943 19.5163 133.856 19.4039 134.647 19.2794V24.509H136.974V15.0276H140.006V12.9473H136.974L136.971 12.9534Z" fill="#2C4A3E"/>
<path d="M50.507 33.9992C50.507 34.1268 50.4827 34.2118 50.434 34.2543C50.3853 34.2968 50.3032 34.3242 50.1876 34.3363C50.0903 34.3485 49.9808 34.3606 49.856 34.3758C49.7313 34.391 49.6005 34.4031 49.4697 34.4183C49.3389 34.4335 49.2051 34.4456 49.0712 34.4548C48.9374 34.4639 48.8127 34.4699 48.6971 34.4699C48.2773 34.4699 47.9275 34.4183 47.6507 34.312C47.3739 34.2057 47.1518 34.0387 46.9845 33.8109C46.8172 33.5832 46.7016 33.2916 46.6347 32.9393C46.5678 32.587 46.5312 32.1588 46.5312 31.6608C46.5312 31.1627 46.5677 30.7254 46.6377 30.3761C46.7077 30.0269 46.8233 29.7444 46.9814 29.5258C47.1427 29.3071 47.3495 29.1522 47.6081 29.052C47.8666 28.9548 48.183 28.9062 48.5571 28.9062C48.6819 28.9062 48.8187 28.9154 48.9708 28.9305C49.1229 28.9457 49.272 28.967 49.421 28.9882C49.5701 29.0095 49.707 29.0338 49.8347 29.0581C49.9625 29.0824 50.0629 29.1037 50.1359 29.1188C50.1846 29.131 50.2211 29.1492 50.2484 29.1705C50.2758 29.1917 50.288 29.2525 50.2849 29.3466L50.2606 29.8204C50.2576 29.8993 50.2363 29.954 50.1998 29.9813C50.1633 30.0087 50.1176 30.0178 50.0629 30.0117C49.9868 30.0026 49.8895 29.9935 49.7648 29.9813C49.6431 29.9692 49.5184 29.957 49.3876 29.9449C49.2568 29.9327 49.1321 29.9236 49.0104 29.9145C48.8887 29.9054 48.7883 29.9024 48.7123 29.9024C48.5085 29.9024 48.3381 29.9297 48.1982 29.9813C48.0613 30.033 47.9488 30.1241 47.8666 30.2577C47.7845 30.3913 47.7237 30.5705 47.6902 30.7952C47.6567 31.023 47.6385 31.3115 47.6385 31.6638C47.6385 32.0161 47.6537 32.2803 47.6841 32.505C47.7145 32.7298 47.7723 32.912 47.8545 33.0456C47.9366 33.1792 48.0552 33.2795 48.2073 33.3372C48.3594 33.3949 48.5541 33.4252 48.7944 33.4252C48.8735 33.4252 48.9526 33.4252 49.0317 33.4252C49.1108 33.4252 49.1777 33.4192 49.2385 33.4161C49.3115 33.4131 49.3785 33.407 49.4423 33.3979V32.4868H48.8187C48.764 32.4868 48.7214 32.4777 48.7001 32.4564C48.6758 32.4352 48.6636 32.3957 48.6636 32.338V31.679C48.6636 31.6182 48.6758 31.5788 48.7001 31.5605C48.7245 31.5393 48.764 31.5302 48.8187 31.5302H50.3488C50.4036 31.5302 50.4462 31.5393 50.4675 31.5605C50.4918 31.5818 50.504 31.6213 50.504 31.679V34.0083L50.507 33.9992Z" fill="#2C4A3E"/>
<path d="M52.327 34.3303C52.2723 34.3303 52.2297 34.3212 52.2084 34.2999C52.184 34.2786 52.1719 34.2392 52.1719 34.1815V29.1097C52.1719 29.049 52.184 29.0095 52.2084 28.9913C52.2327 28.97 52.2723 28.9609 52.327 28.9609H53.1666C53.2213 28.9609 53.2639 28.97 53.2852 28.9913C53.3095 29.0126 53.3217 29.052 53.3217 29.1097V34.1815C53.3217 34.2422 53.3095 34.2817 53.2852 34.2999C53.2609 34.3212 53.2213 34.3303 53.1666 34.3303H52.327Z" fill="#2C4A3E"/>
<path d="M55.9206 34.3303C55.7533 34.3303 55.6194 34.312 55.5252 34.2756C55.4309 34.2392 55.3548 34.1875 55.3061 34.1238C55.2575 34.0569 55.224 33.978 55.2088 33.8838C55.1936 33.7897 55.1875 33.6864 55.1875 33.5741V29.708C55.1875 29.5714 55.1997 29.456 55.224 29.3618C55.2483 29.2646 55.2879 29.1887 55.3426 29.128C55.3974 29.0672 55.4734 29.0247 55.5647 29.0004C55.656 28.9761 55.7715 28.9609 55.9115 28.9609H56.9548C57.4142 28.9609 57.7914 29.0126 58.0864 29.1128C58.3815 29.213 58.6096 29.3709 58.7769 29.5865C58.9442 29.7991 59.0568 30.0694 59.1176 30.3944C59.1785 30.7193 59.2119 31.105 59.2119 31.5454C59.2119 31.9857 59.1845 32.4018 59.1267 32.748C59.072 33.0942 58.9594 33.3858 58.7982 33.6196C58.634 33.8535 58.4058 34.0296 58.1108 34.148C57.8157 34.2665 57.4324 34.3272 56.9579 34.3272H55.9206V34.3303ZM58.0712 31.5454C58.0712 31.2751 58.059 31.0382 58.0378 30.8408C58.0165 30.6434 57.9647 30.4794 57.8887 30.3519C57.8096 30.2243 57.6971 30.1302 57.545 30.0664C57.3929 30.0056 57.186 29.9722 56.9275 29.9722H56.2795V33.3068H56.9275C57.186 33.3068 57.3929 33.2673 57.545 33.1884C57.6971 33.1094 57.8127 32.991 57.8887 32.8391C57.9678 32.6842 58.0165 32.499 58.0378 32.2834C58.059 32.0647 58.0712 31.8187 58.0712 31.5454Z" fill="#2C4A3E"/>
<path d="M61.9514 31.1901H63.8891C63.9439 31.1901 63.9864 31.1992 64.0077 31.2204C64.0321 31.2417 64.0442 31.2812 64.0442 31.3389V32.0586C64.0442 32.1194 64.0321 32.1588 64.0077 32.1771C63.9834 32.1983 63.9439 32.2074 63.8891 32.2074H61.9514V33.0153C61.9514 33.1307 61.9727 33.2096 62.0122 33.2521C62.0518 33.2947 62.1248 33.3159 62.2343 33.3159H64.1172C64.172 33.3159 64.2146 33.325 64.2359 33.3463C64.2602 33.3676 64.2724 33.407 64.2724 33.4647V34.1845C64.2724 34.2452 64.2602 34.2847 64.2359 34.3029C64.2115 34.3242 64.172 34.3333 64.1172 34.3333H61.5925C61.4252 34.3333 61.2913 34.3151 61.197 34.2786C61.1027 34.2422 61.0267 34.1906 60.978 34.1268C60.9293 34.06 60.8959 33.981 60.8807 33.8869C60.8655 33.7927 60.8594 33.6895 60.8594 33.5771V29.7171C60.8594 29.6048 60.8655 29.5015 60.8807 29.4074C60.8959 29.3132 60.9263 29.2343 60.978 29.1675C61.0267 29.1006 61.0997 29.052 61.197 29.0156C61.2944 28.9792 61.4252 28.9609 61.5925 28.9609H64.1172C64.172 28.9609 64.2146 28.97 64.2359 28.9913C64.2602 29.0126 64.2724 29.052 64.2724 29.1097V29.8295C64.2724 29.8902 64.2602 29.9297 64.2359 29.9479C64.2115 29.9692 64.172 29.9783 64.1172 29.9783H62.2343C62.1278 29.9783 62.0518 29.9996 62.0122 30.0421C61.9727 30.0846 61.9514 30.1636 61.9514 30.279V31.1901Z" fill="#2C4A3E"/>
<path d="M67.918 34.4317C67.4983 34.4317 67.1484 34.374 66.8686 34.2586C66.5887 34.1432 66.3636 33.9701 66.1902 33.7393C66.0169 33.5085 65.8952 33.223 65.8252 32.8799C65.7522 32.5367 65.7188 32.1389 65.7188 31.6894C65.7188 31.2399 65.7553 30.836 65.8252 30.4868C65.8982 30.1345 66.0199 29.8399 66.1902 29.6C66.3606 29.36 66.5887 29.1778 66.8686 29.0563C67.1484 28.9349 67.4983 28.8711 67.918 28.8711C68.3378 28.8711 68.6816 28.9318 68.9645 29.0563C69.2473 29.1809 69.4724 29.3631 69.6428 29.6C69.8131 29.8399 69.9348 30.1345 70.0048 30.4868C70.0778 30.839 70.1112 31.2399 70.1112 31.6894C70.1112 32.1389 70.0747 32.5367 70.0048 32.8799C69.9318 33.223 69.8131 33.5085 69.6428 33.7393C69.4724 33.9701 69.2473 34.1402 68.9645 34.2586C68.6816 34.374 68.3348 34.4317 67.918 34.4317ZM67.918 33.3961C68.134 33.3961 68.3135 33.3627 68.4534 33.2959C68.5933 33.2291 68.7059 33.1228 68.788 32.9801C68.8702 32.8373 68.9279 32.6612 68.9584 32.4486C68.9888 32.236 69.007 31.984 69.007 31.6924C69.007 31.4009 68.9918 31.1458 68.9584 30.9241C68.9249 30.7024 68.8702 30.5171 68.788 30.3683C68.7059 30.2195 68.5933 30.1041 68.4534 30.0282C68.3104 29.9492 68.134 29.9128 67.918 29.9128C67.7021 29.9128 67.5196 29.9522 67.3796 30.0282C67.2397 30.1071 67.1302 30.2195 67.0481 30.3683C66.9659 30.5171 66.9081 30.7024 66.8777 30.9241C66.8443 31.1458 66.829 31.4009 66.829 31.6924C66.829 31.984 66.8443 32.236 66.8777 32.4486C66.9081 32.6612 66.9659 32.8404 67.0481 32.9801C67.1302 33.1228 67.2397 33.2261 67.3796 33.2959C67.5196 33.3627 67.699 33.3961 67.918 33.3961Z" fill="#2C4A3E"/>
<path d="M72.9502 30.3193H72.859V34.1854C72.859 34.2461 72.8468 34.2856 72.8225 34.3038C72.7981 34.3251 72.7586 34.3342 72.7038 34.3342H71.9129C71.8582 34.3342 71.8156 34.3251 71.7943 34.3038C71.77 34.2825 71.7578 34.2431 71.7578 34.1854V29.2412C71.7578 29.138 71.77 29.0651 71.7974 29.0256C71.8247 28.9861 71.8886 28.9648 71.992 28.9648H73.1662C73.2818 28.9648 73.367 28.9891 73.4217 29.0377C73.4765 29.0863 73.5191 29.1501 73.5495 29.2351L74.9335 32.9827H75.0248V29.1167C75.0248 29.056 75.037 29.0165 75.0613 28.9983C75.0856 28.977 75.1252 28.9679 75.1799 28.9679H75.9708C76.0256 28.9679 76.0682 28.977 76.0895 28.9983C76.1138 29.0195 76.126 29.059 76.126 29.1167V34.0608C76.126 34.1641 76.1138 34.237 76.0864 34.2765C76.0621 34.316 75.9952 34.3372 75.8917 34.3372H74.7693C74.6537 34.3372 74.5685 34.3129 74.5138 34.2643C74.459 34.2157 74.4164 34.152 74.386 34.0669L72.9472 30.3193H72.9502Z" fill="#2C4A3E"/>
<path d="M81.2018 34.3303C81.0345 34.3303 80.9007 34.312 80.8064 34.2756C80.7091 34.2392 80.6361 34.1875 80.5874 34.1238C80.5387 34.06 80.5053 33.978 80.49 33.8838C80.4748 33.7897 80.4688 33.6864 80.4688 33.5741V29.708C80.4688 29.5714 80.4809 29.456 80.5053 29.3618C80.5296 29.2646 80.5691 29.1887 80.6239 29.128C80.6786 29.0672 80.7547 29.0247 80.846 29.0004C80.9372 28.9731 81.0528 28.9609 81.1927 28.9609H82.2361C82.6954 28.9609 83.0726 29.0126 83.3677 29.1128C83.6627 29.213 83.8909 29.3709 84.0582 29.5865C84.2255 29.7991 84.338 30.0694 84.3989 30.3944C84.4597 30.7193 84.4932 31.105 84.4932 31.5454C84.4932 31.9857 84.4658 32.4018 84.408 32.748C84.3532 33.0942 84.2437 33.3858 84.0795 33.6196C83.9152 33.8535 83.6871 34.0296 83.392 34.148C83.0969 34.2665 82.7137 34.3272 82.2391 34.3272H81.2018V34.3303ZM83.3555 31.5454C83.3555 31.2751 83.3433 31.0382 83.322 30.8408C83.3008 30.6434 83.249 30.4794 83.173 30.3519C83.0939 30.2243 82.9814 30.1302 82.8293 30.0664C82.6772 30.0056 82.4703 29.9722 82.2118 29.9722H81.5638V33.3068H82.2118C82.4703 33.3068 82.6772 33.2673 82.8293 33.1884C82.9814 33.1094 83.0969 32.991 83.173 32.8391C83.249 32.6873 83.3008 32.499 83.322 32.2834C83.3433 32.0647 83.3555 31.8187 83.3555 31.5454Z" fill="#2C4A3E"/>
<path d="M87.2249 31.1901H89.1625C89.2173 31.1901 89.2599 31.1992 89.2812 31.2204C89.3055 31.2417 89.3177 31.2812 89.3177 31.3389V32.0586C89.3177 32.1194 89.3055 32.1588 89.2812 32.1771C89.2568 32.1953 89.2173 32.2074 89.1625 32.2074H87.2249V33.0153C87.2249 33.1307 87.2461 33.2096 87.2857 33.2521C87.3252 33.2947 87.4013 33.3159 87.5078 33.3159H89.3907C89.4454 33.3159 89.488 33.325 89.5093 33.3463C89.5306 33.3676 89.5458 33.407 89.5458 33.4647V34.1845C89.5458 34.2452 89.5336 34.2847 89.5093 34.3029C89.485 34.3242 89.4454 34.3333 89.3907 34.3333H86.8659C86.6986 34.3333 86.5648 34.3151 86.4705 34.2786C86.3731 34.2422 86.3001 34.1906 86.2515 34.1268C86.2028 34.063 86.1693 33.981 86.1541 33.8869C86.1389 33.7927 86.1328 33.6895 86.1328 33.5771V29.7171C86.1328 29.6048 86.1389 29.5015 86.1541 29.4074C86.1693 29.3132 86.1997 29.2343 86.2515 29.1675C86.3001 29.1006 86.3731 29.052 86.4705 29.0156C86.5678 28.9792 86.6986 28.9609 86.8659 28.9609H89.3907C89.4454 28.9609 89.488 28.97 89.5093 28.9913C89.5306 29.0126 89.5458 29.052 89.5458 29.1097V29.8295C89.5458 29.8902 89.5336 29.9297 89.5093 29.9479C89.485 29.9662 89.4454 29.9783 89.3907 29.9783H87.5078C87.4013 29.9783 87.3252 29.9996 87.2857 30.0421C87.2461 30.0846 87.2249 30.1636 87.2249 30.279V31.1901Z" fill="#2C4A3E"/>
<path d="M92.4268 30.3193H92.3355V34.1854C92.3355 34.2461 92.3234 34.2856 92.299 34.3038C92.2747 34.322 92.2352 34.3342 92.1804 34.3342H91.3895C91.3348 34.3342 91.2922 34.3251 91.2709 34.3038C91.2496 34.2825 91.2344 34.2431 91.2344 34.1854V29.2412C91.2344 29.138 91.2465 29.0651 91.2739 29.0256C91.2983 28.9861 91.3652 28.9648 91.4686 28.9648H92.6428C92.7584 28.9648 92.8435 28.9891 92.8983 29.0377C92.953 29.0863 92.9956 29.1501 93.026 29.2351L94.4101 32.9827H94.5014V29.1167C94.5014 29.056 94.5135 29.0165 94.5379 28.9983C94.5622 28.977 94.6017 28.9679 94.6565 28.9679H95.4474C95.5022 28.9679 95.5447 28.977 95.566 28.9983C95.5904 29.0195 95.6025 29.059 95.6025 29.1167V34.0608C95.6025 34.1641 95.5904 34.237 95.563 34.2765C95.5356 34.316 95.4717 34.3372 95.3683 34.3372H94.2458C94.1303 34.3372 94.0451 34.3129 93.9903 34.2643C93.9356 34.2157 93.893 34.152 93.8626 34.0669L92.4238 30.3193H92.4268Z" fill="#2C4A3E"/>
<path d="M97.0234 29.1097C97.0234 29.049 97.0356 29.0095 97.0599 28.9913C97.0843 28.9731 97.1238 28.9609 97.1786 28.9609H100.765C100.82 28.9609 100.862 28.97 100.884 28.9913C100.905 29.0126 100.92 29.052 100.92 29.1097V29.8113C100.92 29.872 100.908 29.9115 100.884 29.9297C100.859 29.9479 100.82 29.9601 100.765 29.9601H99.5482V34.1815C99.5482 34.2422 99.536 34.2817 99.5117 34.2999C99.4874 34.3212 99.4478 34.3303 99.3931 34.3303H98.5535C98.4988 34.3303 98.4562 34.3212 98.4349 34.2999C98.4105 34.2786 98.3984 34.2392 98.3984 34.1815V29.9601H97.1816C97.1269 29.9601 97.0843 29.951 97.063 29.9297C97.0417 29.9085 97.0265 29.869 97.0265 29.8113V29.1097H97.0234Z" fill="#2C4A3E"/>
<path d="M104.715 33.3971H102.981L102.826 34.1441C102.805 34.2231 102.783 34.2747 102.753 34.296C102.726 34.3172 102.668 34.3294 102.58 34.3294H101.865C101.78 34.3294 101.725 34.3142 101.701 34.2838C101.676 34.2535 101.673 34.1958 101.691 34.1138L102.753 29.2455C102.762 29.2091 102.771 29.1757 102.783 29.1423C102.796 29.1089 102.814 29.0785 102.838 29.0481C102.863 29.0208 102.896 28.9995 102.945 28.9813C102.99 28.9661 103.048 28.957 103.121 28.957H104.578C104.651 28.957 104.709 28.9661 104.755 28.9813C104.8 28.9965 104.837 29.0178 104.858 29.0481C104.882 29.0755 104.901 29.1058 104.913 29.1423C104.925 29.1757 104.934 29.2121 104.943 29.2455L106.005 34.1138C106.026 34.1988 106.023 34.2535 105.996 34.2838C105.968 34.3142 105.914 34.3294 105.831 34.3294H105.117C105.028 34.3294 104.971 34.3172 104.943 34.296C104.916 34.2747 104.891 34.2231 104.87 34.1441L104.715 33.3971ZM103.194 32.3979H104.508L103.997 29.9501H103.702L103.191 32.3979H103.194Z" fill="#2C4A3E"/>
<path d="M108.698 33.0153C108.698 33.1307 108.719 33.2096 108.759 33.2521C108.798 33.2947 108.874 33.3159 108.981 33.3159H110.401C110.456 33.3159 110.499 33.325 110.52 33.3463C110.541 33.3676 110.557 33.407 110.557 33.4647V34.1845C110.557 34.2452 110.544 34.2847 110.52 34.3029C110.496 34.3242 110.456 34.3333 110.401 34.3333H108.272C108.105 34.3333 107.971 34.3151 107.877 34.2786C107.779 34.2422 107.709 34.1906 107.658 34.1268C107.609 34.06 107.576 33.981 107.56 33.8869C107.545 33.7927 107.539 33.6895 107.539 33.5771V29.1097C107.539 29.049 107.551 29.0095 107.576 28.9913C107.6 28.9731 107.639 28.9609 107.694 28.9609H108.54C108.595 28.9609 108.637 28.97 108.658 28.9913C108.683 29.0126 108.695 29.052 108.695 29.1097V33.0122L108.698 33.0153Z" fill="#2C4A3E"/>
<path d="M117.914 34.0053C117.917 34.0842 117.914 34.142 117.892 34.1723C117.874 34.2027 117.828 34.23 117.752 34.2513C117.679 34.2725 117.588 34.2908 117.479 34.312C117.369 34.3333 117.25 34.3485 117.126 34.3667C117.001 34.3819 116.873 34.3971 116.742 34.4092C116.612 34.4214 116.493 34.4274 116.38 34.4274C115.973 34.4274 115.638 34.3697 115.374 34.2574C115.109 34.145 114.902 33.9719 114.753 33.7441C114.604 33.5163 114.501 33.2278 114.44 32.8816C114.382 32.5354 114.352 32.1285 114.352 31.6608C114.352 31.1536 114.385 30.7254 114.455 30.3761C114.525 30.0269 114.641 29.7444 114.799 29.5258C114.96 29.3071 115.167 29.1522 115.425 29.052C115.684 28.9548 116 28.9062 116.374 28.9062C116.499 28.9062 116.627 28.9123 116.761 28.9275C116.895 28.9427 117.025 28.9579 117.15 28.9791C117.275 29.0004 117.393 29.0217 117.5 29.0429C117.606 29.0642 117.698 29.0854 117.771 29.1006C117.819 29.1128 117.856 29.131 117.886 29.1522C117.917 29.1735 117.926 29.2342 117.923 29.3284L117.898 29.8021C117.895 29.8811 117.874 29.9358 117.838 29.9631C117.801 29.9904 117.755 29.9996 117.701 29.9935C117.625 29.9844 117.536 29.9753 117.439 29.9661C117.342 29.957 117.241 29.9449 117.135 29.9358C117.028 29.9267 116.931 29.9176 116.831 29.9115C116.73 29.9054 116.645 29.9024 116.569 29.9024C116.365 29.9024 116.195 29.9297 116.055 29.9813C115.918 30.033 115.806 30.1241 115.723 30.2577C115.638 30.3883 115.58 30.5705 115.547 30.7952C115.514 31.023 115.495 31.3115 115.495 31.6638C115.495 31.9948 115.511 32.2742 115.538 32.499C115.565 32.7237 115.62 32.9059 115.702 33.0426C115.784 33.1792 115.897 33.2795 116.04 33.3402C116.183 33.4009 116.368 33.4313 116.596 33.4313C116.663 33.4313 116.746 33.4283 116.84 33.4192C116.934 33.41 117.031 33.4009 117.132 33.3918C117.232 33.3827 117.33 33.3706 117.427 33.3615C117.524 33.3523 117.609 33.3432 117.685 33.3341C117.771 33.325 117.825 33.3311 117.85 33.3493C117.874 33.3675 117.889 33.41 117.895 33.4769L117.908 34.0083L117.914 34.0053Z" fill="#2C4A3E"/>
<path d="M120.69 33.0153C120.69 33.1307 120.711 33.2096 120.751 33.2521C120.791 33.2947 120.867 33.3159 120.973 33.3159H122.394C122.448 33.3159 122.491 33.325 122.512 33.3463C122.534 33.3676 122.549 33.407 122.549 33.4647V34.1845C122.549 34.2452 122.537 34.2847 122.512 34.3029C122.488 34.3242 122.448 34.3333 122.394 34.3333H120.264C120.097 34.3333 119.963 34.3151 119.869 34.2786C119.772 34.2422 119.702 34.1906 119.65 34.1268C119.601 34.06 119.568 33.981 119.553 33.8869C119.537 33.7927 119.531 33.6895 119.531 33.5771V29.1097C119.531 29.049 119.543 29.0095 119.568 28.9913C119.592 28.9731 119.632 28.9609 119.686 28.9609H120.532C120.587 28.9609 120.629 28.97 120.651 28.9913C120.675 29.0126 120.687 29.052 120.687 29.1097V33.0122L120.69 33.0153Z" fill="#2C4A3E"/>
<path d="M124.257 34.3303C124.202 34.3303 124.159 34.3212 124.138 34.2999C124.114 34.2786 124.102 34.2392 124.102 34.1815V29.1097C124.102 29.049 124.114 29.0095 124.138 28.9913C124.162 28.97 124.202 28.9609 124.257 28.9609H125.096C125.151 28.9609 125.194 28.97 125.215 28.9913C125.236 29.0126 125.251 29.052 125.251 29.1097V34.1815C125.251 34.2422 125.239 34.2817 125.215 34.2999C125.191 34.3212 125.151 34.3303 125.096 34.3303H124.257Z" fill="#2C4A3E"/>
<path d="M128.31 30.3193H128.218V34.1854C128.218 34.2461 128.206 34.2856 128.182 34.3038C128.158 34.322 128.118 34.3342 128.063 34.3342H127.272C127.218 34.3342 127.175 34.3251 127.154 34.3038C127.132 34.2825 127.117 34.2431 127.117 34.1854V29.2412C127.117 29.138 127.129 29.0651 127.157 29.0256C127.181 28.9861 127.248 28.9648 127.351 28.9648H128.526C128.641 28.9648 128.726 28.9891 128.781 29.0377C128.836 29.0863 128.878 29.1501 128.909 29.2351L130.293 32.9827H130.384V29.1167C130.384 29.056 130.396 29.0165 130.421 28.9983C130.445 28.977 130.485 28.9679 130.539 28.9679H131.33C131.385 28.9679 131.428 28.977 131.449 28.9983C131.473 29.0195 131.485 29.059 131.485 29.1167V34.0608C131.485 34.1641 131.473 34.237 131.446 34.2765C131.418 34.316 131.355 34.3372 131.251 34.3372H130.129C130.013 34.3372 129.928 34.3129 129.873 34.2643C129.818 34.2157 129.776 34.152 129.745 34.0669L128.307 30.3193H128.31Z" fill="#2C4A3E"/>
<path d="M133.515 34.3303C133.46 34.3303 133.417 34.3212 133.396 34.2999C133.372 34.2786 133.359 34.2392 133.359 34.1815V29.1097C133.359 29.049 133.372 29.0095 133.396 28.9913C133.42 28.97 133.46 28.9609 133.515 28.9609H134.354C134.409 28.9609 134.451 28.97 134.473 28.9913C134.494 29.0126 134.509 29.052 134.509 29.1097V34.1815C134.509 34.2422 134.497 34.2817 134.473 34.2999C134.448 34.3212 134.409 34.3303 134.354 34.3303H133.515Z" fill="#2C4A3E"/>
<path d="M139.695 34.0053C139.698 34.0842 139.695 34.142 139.674 34.1723C139.655 34.2027 139.61 34.23 139.534 34.2513C139.461 34.2725 139.369 34.2908 139.26 34.312C139.15 34.3333 139.032 34.3485 138.907 34.3667C138.782 34.3819 138.655 34.3971 138.524 34.4092C138.393 34.4214 138.274 34.4274 138.162 34.4274C137.754 34.4274 137.42 34.3697 137.155 34.2574C136.89 34.145 136.683 33.9719 136.534 33.7441C136.385 33.5163 136.282 33.2278 136.221 32.8816C136.163 32.5354 136.133 32.1285 136.133 31.6608C136.133 31.1536 136.166 30.7254 136.236 30.3761C136.306 30.0269 136.422 29.7444 136.58 29.5258C136.741 29.3071 136.948 29.1522 137.207 29.052C137.465 28.9548 137.782 28.9062 138.156 28.9062C138.28 28.9062 138.408 28.9123 138.542 28.9275C138.676 28.9427 138.807 28.9579 138.931 28.9791C139.056 29.0004 139.175 29.0217 139.281 29.0429C139.388 29.0642 139.479 29.0854 139.552 29.1006C139.601 29.1128 139.637 29.131 139.667 29.1522C139.698 29.1735 139.707 29.2342 139.704 29.3284L139.68 29.8021C139.677 29.8811 139.655 29.9358 139.619 29.9631C139.582 29.9904 139.537 29.9996 139.482 29.9935C139.406 29.9844 139.318 29.9753 139.22 29.9661C139.123 29.957 139.023 29.9449 138.916 29.9358C138.81 29.9267 138.712 29.9176 138.612 29.9115C138.512 29.9054 138.426 29.9024 138.35 29.9024C138.147 29.9024 137.976 29.9297 137.836 29.9813C137.699 30.033 137.587 30.1241 137.505 30.2577C137.42 30.3883 137.362 30.5705 137.328 30.7952C137.295 31.023 137.277 31.3115 137.277 31.6638C137.277 31.9948 137.292 32.2742 137.319 32.499C137.347 32.7237 137.401 32.9059 137.483 33.0426C137.566 33.1792 137.678 33.2795 137.821 33.3402C137.964 33.4009 138.15 33.4313 138.378 33.4313C138.445 33.4313 138.527 33.4283 138.621 33.4192C138.715 33.41 138.813 33.4009 138.913 33.3918C139.013 33.3827 139.111 33.3706 139.208 33.3615C139.306 33.3523 139.391 33.3432 139.467 33.3341C139.552 33.325 139.607 33.3311 139.631 33.3493C139.655 33.3675 139.671 33.41 139.677 33.4769L139.689 34.0083L139.695 34.0053Z" fill="#2C4A3E"/>
<path d="M35.1217 18.5315C34.6806 17.9423 33.9293 17.6416 32.8859 17.6416H21.3906C21.0377 17.6416 20.7366 17.7692 20.5236 18.0091C20.335 18.2217 20.2316 18.5041 20.2316 18.8048C20.2316 19.3545 20.5936 19.9436 21.3906 19.9436H32.0311C32.2958 19.9436 32.5391 20.0651 32.7003 20.2777C32.8707 20.5024 32.9254 20.791 32.8463 21.0673C30.6349 28.9026 25.9047 33.6858 24.4872 33.6069C23.7663 33.6069 23.3739 32.3465 22.9176 30.8888C22.6621 30.0688 22.3974 29.2246 22.0385 28.4623C21.2507 26.6826 19.5381 25.6136 17.5639 25.6592C14.2148 25.7473 13.2353 28.6658 12.4474 31.0133C12.347 31.314 12.2497 31.6055 12.1493 31.8758C11.7234 33.0359 11.4162 33.534 11.0968 33.5978C10.8322 33.6494 10.4854 33.4186 9.95915 32.8476C6.18112 28.8298 2.27229 19.9892 2.27229 12.1508C2.27229 8.53686 3.04493 5.89472 4.63584 4.07255C6.19633 2.33845 8.01842 1.96187 10.2025 2.91851C11.2124 3.37101 12.0824 4.11203 13.001 4.89253C14.7106 6.34419 16.6452 7.99325 19.9305 7.99325C22.3762 7.96896 23.8606 7.13683 25.1686 6.40493C26.3184 5.76109 27.3131 5.20229 28.7459 5.26911C31.5718 5.36629 33.0106 7.9477 33.1505 10.3013C33.184 10.8753 33.6859 11.3066 34.3125 11.3066C34.4768 11.3066 34.7932 11.2701 35.0395 11.0181C35.2616 10.7903 35.3681 10.4532 35.3559 10.0067C35.2586 5.67606 32.7095 2.95799 28.6911 2.9094C26.5466 2.98532 25.1078 3.74152 23.7176 4.47343C22.4644 5.13244 21.2872 5.75502 19.7206 5.73376C18.4399 5.73376 17.4452 5.19622 16.5296 4.64046C15.5927 4.13632 14.8079 3.45605 14.0505 2.79703C12.5265 1.47596 10.9447 0.106293 8.01538 0C3.41604 0.0728868 0.0456284 5.08993 0 11.9322C0.0456284 21.5866 4.77881 30.901 8.12793 34.4329C9.15305 35.4685 10.166 36.003 11.0968 36.003C11.3006 36.003 11.4983 35.9787 11.693 35.9271C12.8489 35.6234 13.7676 34.4117 14.2786 32.5197C15.0543 29.7985 15.8878 28.1039 17.6369 28.0614C18.805 28.0614 19.3038 28.7994 19.7875 29.6923C20.0826 30.2632 20.2985 30.9799 20.5297 31.7422C21.1655 33.8438 21.8864 36.2278 24.5511 35.9605C27.2128 35.6963 29.6006 32.8598 30.787 31.1895C32.6425 28.5807 34.3582 25.067 35.2616 22.0209C35.727 20.4539 35.6783 19.2816 35.1217 18.5315Z" fill="#2C4A3E"/>
<path d="M39.1538 10.1992L39.5767 11.5628C39.9752 12.8535 40.9425 13.8891 42.2018 14.3811L43.2452 14.788L42.2018 15.195C40.9425 15.687 39.9752 16.7226 39.5767 18.0133L39.1538 19.3769L38.731 18.0133C38.3325 16.7226 37.3652 15.687 36.1059 15.195L35.0625 14.788L36.1059 14.3811C37.3652 13.8891 38.3325 12.8535 38.731 11.5628L39.1538 10.1992Z" fill="#2C4A3E"/>
</g>
<defs>
<clipPath id="clip0_2358_254">
<rect width="140" height="36" fill="white"/>
</clipPath>
</defs>
</svg>
