<svg width="30" height="30" viewBox="0 0 30 30" fill="none" xmlns="http://www.w3.org/2000/svg">
<path d="M3.01692 20.3392C3.01223 18.5601 2.98876 16.781 3.0066 15.0018C3.04414 11.3817 4.41837 8.35328 7.13115 5.95421C8.96814 4.32889 11.1233 3.37132 13.563 3.08996C16.9497 2.69887 19.9864 3.58328 22.6175 5.73663C24.8909 7.59736 26.3112 9.9983 26.8068 12.9029C27.4216 16.5024 26.5674 19.7493 24.2677 22.5761C22.4091 24.8607 19.9948 26.2741 17.0793 26.7749C16.3753 26.8959 15.6534 26.9578 14.9391 26.9625C11.2679 26.9897 7.59767 26.9906 3.9265 27C3.32011 27.0019 3.03382 26.7205 3.03288 26.1212C3.02725 24.1939 3.02255 22.2666 3.01692 20.3383V20.3392ZM14.9719 13.4844C16.042 13.4815 17.1112 13.4787 18.1813 13.4759C18.8684 13.474 19.5555 13.4759 20.2426 13.4675C20.5927 13.4628 20.8546 13.2574 20.956 12.932C21.0499 12.6318 20.9588 12.2923 20.6838 12.131C20.5195 12.0344 20.3046 11.9791 20.1131 11.9791C16.701 11.9791 13.2889 11.9913 9.87678 12.0007C9.80638 12.0007 9.73598 11.9988 9.66652 12.0063C9.35394 12.0429 9.10707 12.2604 9.02259 12.5709C8.94468 12.8569 9.04793 13.1946 9.31545 13.3474C9.47503 13.4384 9.6806 13.4909 9.86552 13.4919C11.5673 13.4984 13.2701 13.4891 14.9719 13.4844ZM12.736 17.9852C13.7348 17.9824 14.7344 17.9833 15.7332 17.9758C16.1725 17.9721 16.5029 17.6466 16.5048 17.233C16.5076 16.8194 16.1772 16.4827 15.7416 16.4827C13.7507 16.4827 11.7607 16.4874 9.76978 16.5043C9.6102 16.5052 9.43185 16.5775 9.29762 16.6694C9.03197 16.8504 8.95031 17.1805 9.05263 17.4816C9.16057 17.7986 9.42716 17.9927 9.78479 17.9936C10.7685 17.9946 11.7523 17.9899 12.736 17.9871V17.9852Z" fill="white"/>
</svg>
