<svg width="30" height="30" viewBox="0 0 30 30" fill="none" xmlns="http://www.w3.org/2000/svg">
<g clip-path="url(#clip0_164_31)">
<path d="M24.4618 16.515L24.4304 13.3789C24.4186 12.2842 24.9534 11.4223 25.9464 10.9726C24.3045 6.2724 19.902 3.17969 15.0629 3.15603C10.157 3.13433 5.71715 6.22111 4.05366 10.9687C5.00928 11.4381 5.55198 12.2053 5.55394 13.2211L5.56181 16.2724C5.56574 17.6333 4.56097 18.657 3.27501 18.655C1.98906 18.6531 0.996079 17.6235 1.00001 16.2685L1.00788 13.2211C1.00984 12.089 1.69805 11.1797 2.85226 10.9095C4.559 5.60573 9.42557 2.03176 14.9233 2.00021C20.482 1.96865 25.4233 5.55642 27.1419 10.9095C28.3826 11.1935 29.0098 12.1856 29.002 13.3789L28.9804 16.4164C28.9725 17.5426 28.1899 18.3592 27.1281 18.6531C26.0565 21.9568 23.7972 24.5821 20.7239 26.1817C20.8045 27.4992 20.02 28.5406 18.9601 28.8306C17.7214 29.1698 16.5573 28.5288 16.1011 27.5032C15.584 26.3414 16.0186 25.0574 17.0233 24.442C18.1028 23.7813 19.4419 24.0219 20.2933 25.1008C22.9674 23.6984 24.973 21.3888 25.9424 18.5545C25.1579 18.1639 24.4736 17.5051 24.4638 16.513L24.4618 16.515ZM27.8379 16.4401L27.8419 13.1146C27.8419 12.4381 27.1753 11.9746 26.6208 12.0298C26.0663 12.085 25.5747 12.5939 25.5767 13.2172L25.5885 16.4085C25.5905 17.0377 26.1843 17.5268 26.7112 17.5189C27.2028 17.5111 27.834 17.0752 27.836 16.4401H27.8379ZM4.40956 16.3493V13.227C4.40956 12.5209 3.89636 12.0298 3.25732 12.0357C2.75001 12.0397 2.14636 12.4815 2.14833 13.1146L2.16209 16.4894C2.16406 17.1501 2.86209 17.5683 3.40872 17.5051C3.8826 17.4519 4.4076 16.9903 4.4076 16.3493H4.40956ZM17.8649 25.3138C17.0921 25.5978 16.8444 26.4361 17.1747 27.085C17.448 27.6215 18.1107 27.9292 18.7714 27.6748C19.3612 27.4479 19.7211 26.7122 19.495 26.0969C19.2688 25.4815 18.6121 25.0377 17.8649 25.3118V25.3138Z" fill="white"/>
<path d="M10.8904 24.0516C10.792 24.1147 10.4047 24.1404 10.3182 24.097C10.2022 24.0398 10.0232 23.7814 10.0154 23.6354L9.91508 21.8603C9.86003 20.88 9.56115 20.0339 8.96733 19.2725C6.73755 16.4185 6.74542 12.4421 9.04795 9.61375C11.2699 6.88199 15.167 5.92735 18.5038 7.63347C21.5693 9.19954 23.3429 12.7558 22.4561 16.3593C21.6401 19.6709 18.6297 22.2134 14.9763 22.2035C14.1642 22.2015 13.3404 22.4599 12.6679 22.8978L10.8904 24.0536V24.0516ZM11.1302 22.5053C12.3356 21.738 13.3817 21.0477 14.6637 21.0753C17.8333 21.1443 20.5213 19.1108 21.3058 16.2173C22.1415 13.1345 20.651 10.024 17.9847 8.65714C15.1179 7.18771 11.7555 8.02992 9.86789 10.4323C7.93109 12.8958 8.00778 16.3041 9.99373 18.7262C10.8864 19.8149 11.0319 21.1502 11.1322 22.5053H11.1302Z" fill="white"/>
<path d="M14.8348 13.801C15.5524 13.6906 16.1148 14.2586 16.1994 14.7872C16.3154 15.517 15.8356 16.1186 15.1887 16.2211C14.5418 16.3237 13.9656 15.9055 13.8142 15.3079C13.6491 14.6551 14.0345 13.9253 14.8348 13.801Z" fill="white"/>
<path d="M11.1421 13.8007C11.8932 13.708 12.4536 14.2938 12.4949 14.9033C12.5401 15.5818 12.0958 16.1538 11.3997 16.2268C10.7862 16.2919 10.1885 15.852 10.0862 15.211C9.98396 14.57 10.3713 13.8934 11.1421 13.7988V13.8007Z" fill="white"/>
<path d="M18.6456 13.7931C19.4066 13.7399 19.906 14.3829 19.9257 14.9332C19.9512 15.663 19.4184 16.1679 18.8737 16.2251C18.1049 16.304 17.5917 15.7774 17.5111 15.2034C17.4108 14.4874 17.8768 13.8464 18.6456 13.7931Z" fill="white"/>
</g>
<defs>
<clipPath id="clip0_164_31">
<rect width="28" height="26.9231" fill="white" transform="translate(1 2)"/>
</clipPath>
</defs>
</svg>
