<svg width="30" height="30" viewBox="0 0 30 30" fill="none" xmlns="http://www.w3.org/2000/svg">
<g clip-path="url(#clip0_164_33)">
<path d="M6.99499 27.2513C6.90556 27.3108 6.65837 27.3376 6.57295 27.3337C6.46644 27.3277 6.33782 27.0249 6.36495 26.9217L7.62704 22.1816C4.07993 20.4434 1.29752 17.4227 1.01114 13.4033C0.77098 8.47262 4.53513 4.68553 8.99463 3.06149C13.1155 1.56155 17.6976 1.64592 21.7371 3.34838C23.9055 4.26264 25.7434 5.61865 27.125 7.44321C29.597 10.7072 29.6331 15.0015 27.1833 18.2853C23.9387 22.6948 17.8081 24.4132 12.4191 23.625L6.99499 27.2513ZM8.30631 16.8727L8.33043 11.9738L9.95024 11.9401C10.2828 11.9331 10.4617 11.4576 10.4527 11.1956C10.4456 10.9821 10.2507 10.5414 9.94019 10.5414L5.11492 10.5543C4.80141 10.5543 4.66676 11.0784 4.67581 11.2948C4.68485 11.4914 4.8617 11.9212 5.09784 11.9301L6.75885 11.9947L6.77191 16.9263C6.89953 17.1715 7.32659 17.3115 7.55067 17.2996C7.77475 17.2877 8.3043 17.1904 8.30531 16.8737L8.30631 16.8727ZM13.5546 15.9972C13.6903 16.4508 13.7707 16.7576 13.9666 17.109C14.0892 17.3284 14.5846 17.3204 14.8127 17.239C15.0136 17.1676 15.3332 16.8648 15.3282 16.6027C14.6208 14.667 13.9626 12.8315 13.1466 10.9186C12.9376 10.4292 11.6796 10.3389 11.4585 10.8422C10.6134 12.766 9.98239 14.6511 9.24182 16.6007C9.20464 16.8767 9.56739 17.1735 9.76735 17.244C9.98139 17.3194 10.5059 17.3184 10.5863 17.0971L10.9892 15.9853L13.5546 15.9962V15.9972ZM19.5043 17.1725C19.9705 17.0574 19.8892 15.9198 19.4641 15.8731C18.7507 15.7937 18.0814 15.8175 17.364 15.8006L17.3268 10.9752C17.3238 10.6407 16.75 10.5116 16.5129 10.5235C16.2948 10.5344 15.7814 10.6972 15.7803 10.9742L15.7623 16.7973C15.7623 17.0603 16.1109 17.3115 16.3551 17.2907C17.4162 17.2013 18.4633 17.4286 19.5043 17.1715V17.1725ZM25.24 16.3446C24.617 15.3271 23.8794 14.534 23.2041 13.5949L25.1676 11.5053C25.2239 11.0675 24.6612 10.5295 24.1889 10.5195L21.7009 12.9427C21.5873 12.2081 21.7863 11.4815 21.5723 10.8213C21.4236 10.3657 20.3936 10.4461 20.1484 10.8422L20.1363 17.0296C20.4509 17.3899 21.3924 17.4783 21.5612 16.9988C21.8697 16.1223 21.2527 14.8298 22.0807 14.6352C22.7751 15.5326 23.388 16.423 24.1185 17.2758C24.5456 17.4922 25.5263 16.8122 25.241 16.3456L25.24 16.3446Z" fill="white"/>
<path d="M13.0864 14.6124L11.4575 14.6193L12.2986 12.2021L13.0864 14.6124Z" fill="white"/>
</g>
<defs>
<clipPath id="clip0_164_33">
<rect width="28" height="25.3333" fill="white" transform="translate(1 2)"/>
</clipPath>
</defs>
</svg>
