<svg width="30" height="30" viewBox="0 0 30 30" fill="none" xmlns="http://www.w3.org/2000/svg">
<g clip-path="url(#clip0_164_32)">
<path d="M22.2073 6.02286V5.15422C22.2073 4.51626 21.6667 4 21.0004 4C20.3342 4 19.7935 4.51705 19.7935 5.15422V6.02286H10.2073V5.15422C10.2073 4.51626 9.66667 4 9.00042 4C8.33416 4 7.79351 4.51705 7.79351 5.15422V6.02286H3V27H27V6.02286H22.2073ZM24.9347 24.8117H5.39967V10.9332H24.9347V24.8117Z" fill="white"/>
<path d="M13.6532 17.5879L16.8057 21.9192H19.4191V13.8262H16.6817V18.1575L13.5285 13.8262H10.915V21.9192H13.6532V17.5879Z" fill="white"/>
</g>
<defs>
<clipPath id="clip0_164_32">
<rect width="24" height="23" fill="white" transform="translate(3 4)"/>
</clipPath>
</defs>
</svg>
