<svg width="95" height="95" viewBox="0 0 95 95" fill="none" xmlns="http://www.w3.org/2000/svg">
<g clip-path="url(#clip0_149_90)">
<path d="M70.9194 80.8239V20.9787L64.6999 20.9302L64.6447 23.952C64.6193 25.2922 63.544 26.4525 62.1348 26.4525L34.0725 26.4594C32.5827 26.4594 31.3968 25.4514 31.3669 23.9336L31.3116 20.9279L25.0921 20.9787V80.8654L63.3206 80.8746C63.9124 80.8746 64.4006 81.7442 64.3614 82.1502C64.3108 82.6785 63.841 83.2344 63.1364 83.2344L24.6178 83.2298C23.5563 83.2298 22.7435 82.3647 22.7435 81.2668V20.6188C22.7412 19.3571 23.7152 18.5866 24.832 18.5843L31.3323 18.5774L31.3047 16.2269L22.0941 16.2499C21.2099 16.2499 20.3948 17.1403 20.3948 18.033L20.3832 29.5227C20.3832 30.1594 19.7362 30.6761 19.1836 30.6899C18.6309 30.7037 17.9977 30.1755 18 29.525L18.0415 17.8692C18.0507 15.4864 20.2888 13.8302 22.4902 13.8348L31.429 13.8509C31.7859 12.6238 32.7346 11.8303 33.985 11.8303L39.7231 11.8257C39.6287 9.26291 41.5261 7.03694 44.1051 7.02771L51.6831 7.00003C54.3588 6.9908 56.3736 9.13143 56.2861 11.821L62.2499 11.8418C63.4012 11.8464 64.2532 12.7737 64.5825 13.8463L73.5098 13.8348C75.847 13.8325 78 15.5741 78 18.0999L77.9954 83.8041C77.9954 86.1524 75.9852 87.9977 73.6941 87.9977H22.3175C20.0217 87.9977 18.0161 86.1454 18.0161 83.811L18 35.1419C18 34.3968 18.6194 33.8916 19.1928 33.8916C19.7661 33.8916 20.3809 34.4014 20.3809 35.1465V83.6034C20.3809 84.7176 21.1892 85.6541 22.3451 85.6541H73.6595C74.8154 85.6541 75.6237 84.7245 75.6237 83.5942V18.0907C75.6237 16.9396 74.6796 16.2453 73.7148 16.243L64.7091 16.2315L64.6861 18.5705L71.3799 18.6005C72.4115 18.6051 73.2704 19.4955 73.2704 20.6188V81.2691C73.2704 82.5239 72.2848 83.2528 71.2141 83.2436L68.3657 83.2159C67.9835 83.2113 67.4792 82.5124 67.4677 82.1387C67.4539 81.7373 67.9927 80.9392 68.4049 80.9231L70.9171 80.8239H70.9194ZM62.3305 24.0604L62.319 14.2062L54.665 14.197C54.0272 13.7564 53.8199 13.0828 53.9282 12.2824C53.9489 11.4658 53.8338 10.6308 53.3387 10.0633C52.9703 9.6389 52.1298 9.34364 51.4735 9.34364H44.5357C43.8103 9.34364 42.9215 9.67812 42.5577 10.1971C42.1709 10.7484 42.0834 11.5419 42.0442 12.2778C42.2561 13.1589 41.9521 13.9617 41.137 14.197L33.6787 14.2154L33.6902 24.065L62.3282 24.0604H62.3305Z" fill="white"/>
<path d="M40.5197 61.2494L30.791 61.2425C29.4923 61.2425 28.0601 60.1745 28.0578 58.772L28.0439 48.6386C28.0439 47.3353 29.2943 46.1497 30.5584 46.1543L40.8582 46.1889C42.1615 46.1935 43.1217 47.7067 43.1217 48.8785L43.1171 58.5275C43.1171 59.983 42.0164 61.0672 40.5243 61.2494H40.5197ZM40.7361 48.461H30.388V58.8804H40.7361V48.461Z" fill="white"/>
<path d="M40.4946 43.7231H30.5979C29.2186 43.7231 28.0442 42.4382 28.0419 41.0704L28.0327 30.937C28.2998 29.6845 29.2807 28.7733 30.5541 28.5957H40.4325C41.9361 28.7387 43.1196 29.8759 43.1196 31.4076L43.115 41.0473C43.115 42.4175 41.9798 43.7231 40.4946 43.7231ZM40.7364 30.9993H30.3883V41.3656H40.7364V30.9993Z" fill="white"/>
<path d="M40.3864 78.7019L30.8304 78.7088C29.3544 78.7088 28.0442 77.6108 28.0419 76.0376L28.0327 65.9181C28.3205 64.6171 29.4005 63.5768 30.7798 63.5791L40.4325 63.5953C41.9384 63.5976 43.1219 64.9539 43.1196 66.3748L43.1127 76.0215C43.1127 77.5416 41.8601 78.6996 40.3841 78.7019H40.3864ZM40.7364 65.9689H30.3883V76.349H40.7364V65.9689Z" fill="white"/>
<path d="M67.3482 37.1436L46.401 37.1644C45.7977 37.1644 45.2727 36.5715 45.2336 36.0987C45.1852 35.522 45.7033 34.8115 46.4102 34.8115H67.0581C67.5002 34.8138 67.9538 35.3536 68.0735 35.6604C68.2117 36.0133 67.887 37.1413 67.3482 37.1413V37.1436Z" fill="white"/>
<path d="M67.0531 54.6774L46.403 54.682C45.8158 54.682 45.2586 54.0361 45.2309 53.5979C45.1941 52.9866 45.6846 52.3223 46.403 52.3223H67.0577C67.5965 52.3223 68.0617 52.9681 68.0962 53.3718C68.14 53.877 67.6932 54.6774 67.0531 54.6774Z" fill="white"/>
<path d="M66.8276 72.153H46.4055C45.7815 72.153 45.2703 71.5694 45.2334 71.0827C45.1874 70.4829 45.6802 69.8025 46.4101 69.8025L66.8276 69.7979C67.5207 69.7979 68.0457 70.3192 68.0826 70.8497C68.1332 71.5948 67.6474 72.153 66.8253 72.153H66.8276Z" fill="white"/>
<path d="M33.3472 56.2114C32.7578 55.1042 32.4101 54.403 32.0186 53.3811C31.839 52.9082 32.5851 52.1516 33.0134 52.1378C33.6834 52.1124 34.1601 52.4884 34.5861 53.3788L37.3124 50.8068C37.6255 50.5116 38.6157 50.7261 38.8621 51.0329C39.1085 51.3397 39.1729 52.2416 38.846 52.5576L34.9522 56.3129C34.6667 56.5874 33.5338 56.5644 33.3449 56.2114H33.3472Z" fill="white"/>
<path d="M33.3469 38.7284C32.7436 37.575 32.4374 36.9591 32.016 35.9142C31.8433 35.4852 32.564 34.6317 32.9923 34.6063C33.6601 34.5671 34.1689 34.9708 34.5788 35.9027L37.3282 33.2892C37.6275 33.0054 38.6084 33.2269 38.8525 33.5337C39.1887 33.9558 39.1588 34.7678 38.7259 35.1853L34.9611 38.816C34.6479 39.1182 33.5426 39.0998 33.3469 38.7261V38.7284Z" fill="white"/>
<path d="M33.317 73.5993C32.8012 72.7204 32.3798 71.8462 32.0275 70.912C31.8502 70.4368 32.5571 69.6179 32.9877 69.5925C33.6716 69.551 34.1551 69.9501 34.5811 70.8889L37.1969 68.3769C37.5861 68.0032 38.5048 68.1162 38.8502 68.5245C39.1956 68.9328 39.1519 69.7563 38.7305 70.1623L35.1959 73.5785C34.763 73.996 33.7982 74.4205 33.3147 73.5993H33.317Z" fill="white"/>
</g>
<defs>
<clipPath id="clip0_149_90">
<rect width="60" height="81" fill="white" transform="translate(18 7)"/>
</clipPath>
</defs>
</svg>
