<svg width="95" height="95" viewBox="0 0 95 95" fill="none" xmlns="http://www.w3.org/2000/svg">
<g clip-path="url(#clip0_149_92)">
<path d="M74.033 57.2742L75.8068 59.3239C77.2158 60.9502 77.2997 63.254 76.0962 65.1851C75.2491 66.5487 73.1524 67.3237 71.2989 67.4296C70.5021 70.1442 68.225 72.2871 64.9164 71.2961C64.0693 74.2987 61.4987 75.7004 58.5382 75.0864C57.7079 76.3738 56.563 77.5892 55.4518 77.873C53.9379 78.2583 52.2186 77.7544 51.1493 76.6829L46.5952 72.1261L43.2614 75.4802C42.3137 76.4331 40.6111 76.9794 39.2524 76.6956C37.9776 76.4288 36.8035 75.1414 35.9396 73.8074C33.3732 74.6502 31.0165 73.0155 29.7836 71.0208C27.6072 72.0965 24.8563 73.0028 22.8225 70.826C21.0528 68.933 20.7257 66.0194 22.7218 63.7325C21.057 62.7796 19.9709 61.5007 19.6816 60.0439C19.3042 58.1127 20.3064 56.3595 21.3799 54.9789L17.0271 48.131L13.6472 50.5873L3 38.8184L26.6343 17L36.946 28.2776C37.4786 28.8578 36.2373 30.4883 35.3777 31.0261C35.9396 31.9874 37.0718 33.1224 38.2376 33.6264C47.0229 37.4124 50.3022 36.7899 59.2049 34.1557C60.0939 33.8932 61.4065 32.5464 61.7084 32.0044L59.3852 29.1797L68.9966 18.6135L70.7789 18.4356L93 39.3012L82.8015 50.5195C82.0257 50.799 80.6125 49.8207 79.9458 48.9441C78.2432 51.8112 76.3981 54.6274 74.033 57.2742ZM56.9698 64.1306C56.5966 63.7537 57.104 62.2545 57.5779 62.1571C57.9762 62.0766 59.033 62.191 59.3769 62.5425L64.7277 67.9801C65.5748 68.8398 66.8664 68.8525 67.7009 68.23C68.5354 67.6075 68.7115 65.9897 67.9483 65.219L62.4213 59.6543C61.9726 59.2011 61.7671 58.1 62.1362 57.5834C62.4632 57.1302 63.7674 57.0413 64.1826 57.4648L70.7369 64.1179C71.2695 64.66 72.884 64.4652 73.4585 64.0078C73.9994 63.5758 74.4691 61.9581 73.8694 61.3567L58.8065 46.0982C54.7976 46.5556 51.0528 47.1993 47.1781 48.1479C43.3033 49.0966 39.3824 46.4921 38.6696 42.3715L44.2594 38.6829C40.0115 37.5606 35.9061 36.4849 33.2306 32.9996L19.2203 45.8865C20.3987 48.3385 21.8454 50.7482 23.5144 52.9207L26.4959 50.0367C28.0853 48.4952 30.1484 48.076 32.2368 49.0669C33.7045 49.7657 34.6354 51.7265 35.0632 53.4458C37.7218 53.8228 39.785 55.6226 39.8353 58.4854C42.6911 58.5151 44.3601 60.6664 44.8968 63.093C46.3436 63.5081 47.9665 64.2958 48.629 65.4731C49.4467 66.9256 49.1826 68.5053 48.5577 70.0129L53.5438 75.0228C53.9757 75.4548 55.6069 74.8407 55.7202 74.2987C55.8208 73.8328 55.6614 72.8503 55.3134 72.5031L52.336 69.5005C51.9251 69.0897 51.8454 68.0056 52.0718 67.5567C52.2983 67.1078 53.7534 66.8579 54.1225 67.2306L58.5382 71.6984C59.4272 72.6005 60.9788 72.6343 61.7755 71.5756C62.4297 70.7074 62.1949 69.3946 61.3016 68.501L56.9656 64.1348L56.9698 64.1306ZM48.109 45.0649C52.0341 44.0612 55.7369 43.642 59.8004 43.0491L71.9824 55.3177C74.2888 52.8021 76.1213 50.0664 77.6939 46.8436L63.9477 34.0117C60.4504 38.0942 54.5628 38.0603 49.2413 39.4197C46.7587 40.055 44.4188 42.2487 42.0453 43.3752C43.4082 45.9204 45.6894 45.6874 48.1132 45.0649H48.109ZM25.7914 60.7045L31.6874 54.7206C32.2452 54.1531 32.0523 52.3914 31.482 51.8832C30.941 51.4046 29.2133 51.2903 28.7227 51.79L22.6338 58.0153C22.1557 58.5066 22.6422 60.3403 23.1663 60.7596C23.6905 61.1788 25.2463 61.2593 25.7914 60.7045ZM27.9301 68.5942L36.4093 60.0227C37.2773 59.1461 37.2186 57.6046 36.3044 56.8042C35.6293 56.2113 34.2077 56.2578 33.4613 57.0159L24.6299 65.9431C23.9379 66.6419 24.1392 68.3316 24.7892 68.8737C25.6279 69.581 27.0495 69.4836 27.9301 68.5942ZM35.9186 70.4068L41.5379 64.6938C42.1795 64.0417 41.9027 62.3434 41.1143 61.7379C40.5189 61.2762 39.0134 61.2847 38.3676 61.9369L32.8448 67.5185C32.09 68.2808 32.1991 69.9579 32.8197 70.5296C33.6584 71.3003 35.1303 71.1987 35.9103 70.4068H35.9186ZM41.324 73.3627L45.8907 68.734C46.3058 68.3147 46.4358 67.1459 46.1507 66.6885C45.8655 66.2311 44.3601 65.9686 43.9156 66.4175L39.0763 71.2622C38.4892 71.8509 38.5689 73.1044 39.047 73.5067C39.6508 74.0192 40.7914 73.9006 41.324 73.3585V73.3627Z" fill="white"/>
</g>
<defs>
<clipPath id="clip0_149_92">
<rect width="90" height="61" fill="white" transform="translate(3 17)"/>
</clipPath>
</defs>
</svg>
