<svg width="95" height="95" viewBox="0 0 95 95" fill="none" xmlns="http://www.w3.org/2000/svg">
<g clip-path="url(#clip0_149_88)">
<path d="M83.5641 88.9995C82.832 88.9995 82.2045 88.4494 82.1284 87.7001L80.0081 66.7971C79.4661 61.4859 75.4062 57.1707 70.1292 56.3171L57.4549 54.2495L48.2035 59.3899C47.7661 59.6365 47.2336 59.6365 46.7963 59.3899L37.5449 54.2495L24.8706 56.3171C19.5936 57.1801 15.5241 61.4859 14.9916 66.7971L12.8713 87.7001C12.7953 88.4873 12.0821 89.0659 11.293 88.99C10.5038 88.9141 9.9238 88.2028 9.99987 87.4156L12.1202 66.5125C12.7857 59.9116 17.8441 54.5435 24.4142 53.4813L37.5829 51.3379C37.9062 51.2905 38.2295 51.3379 38.5147 51.4991L47.4999 56.4973L56.485 51.4991C56.7703 51.3379 57.1031 51.281 57.4168 51.3379L70.5856 53.4813C77.1557 54.553 82.2045 59.9116 82.8796 66.5125L84.9999 87.4156C85.0759 88.2028 84.5054 88.9141 83.7068 88.99C83.6592 88.99 83.6117 88.99 83.5641 88.99V88.9995Z" fill="white"/>
<path d="M37.8109 54.1831C37.6207 54.1831 37.4306 54.1452 37.2404 54.0693C36.5083 53.7564 36.166 52.9123 36.4798 52.182L37.8775 48.9384C38.1912 48.2081 39.0374 47.8667 39.7696 48.1797C40.5017 48.4926 40.844 49.3367 40.5302 50.067L39.1325 53.3106C38.8948 53.8607 38.3624 54.1831 37.8014 54.1831H37.8109Z" fill="white"/>
<path d="M57.1886 54.1831C56.6276 54.1831 56.0951 53.8512 55.8574 53.3106L54.4597 50.067C54.146 49.3367 54.4883 48.4926 55.2204 48.1797C55.9525 47.8667 56.7987 48.2081 57.1125 48.9384L58.5102 52.182C58.824 52.9123 58.4817 53.7564 57.7496 54.0693C57.5689 54.1452 57.3692 54.1831 57.1791 54.1831H57.1886Z" fill="white"/>
<path d="M47.4999 48.2654C39.7793 48.2654 35.0157 41.2281 33.1712 34.9306C31.0318 33.802 30.8892 31.5353 30.8322 30.6248L30.6896 28.4245C30.5564 26.3001 31.1554 24.7636 32.4676 23.8437C32.382 20.8467 32.5722 12.2635 37.1836 10.0347C37.2692 9.97783 37.3167 9.86402 37.3547 9.78815C38.0203 8.39398 39.0662 7.54989 42.6698 7.14207C47.1291 6.62992 53.6421 7.53092 56.9034 10.196L57.027 10.3003C59.1378 12.0169 62.6178 14.8527 62.5132 23.8342C63.8348 24.7447 64.4338 26.2811 64.3007 28.4245L64.1581 30.6248C64.1011 31.5163 63.9584 33.7262 61.9427 34.8737C60.1742 41.4747 55.5247 48.2748 47.4904 48.2748L47.4999 48.2654ZM45.2655 9.87351C44.4763 9.87351 43.7062 9.91144 42.9931 9.9968C40.2927 10.3003 40.0931 10.7366 39.9505 11.0211C39.7508 11.4384 39.418 12.1402 38.4387 12.6144C35.7479 13.9232 35.1394 20.6475 35.3866 24.5834C35.4246 25.1999 35.0633 25.7784 34.4833 26.0061C33.9413 26.2242 33.4659 26.5561 33.5705 28.2348L33.7131 30.4352C33.8082 31.9052 34.16 32.2846 34.8351 32.5122C35.301 32.6639 35.6528 33.0433 35.7764 33.5175C37.2121 38.9899 41.1485 45.3917 47.5094 45.3917C55.8575 45.3917 58.6624 36.3058 59.328 33.5175C59.4421 33.0433 59.7844 32.6544 60.2503 32.4932C60.8873 32.2656 61.2106 31.9052 61.3057 30.4446L61.4483 28.2443C61.5529 26.5656 61.0775 26.2337 60.5355 26.0155C59.9745 25.7879 59.6132 25.2378 59.6323 24.6309C59.9365 16.3702 57.1031 14.0655 55.23 12.5291L55.0969 12.4247C53.0051 10.7176 48.8691 9.88299 45.2845 9.88299L45.2655 9.87351Z" fill="white"/>
<path d="M60.5639 19.7942C59.9079 19.7942 59.3184 19.3485 59.1567 18.6846C58.9951 18.0207 58.6433 17.556 58.0443 17.2145C56.1236 16.1239 51.9115 16.4179 46.7867 18.0207C42.0706 19.4907 38.5526 19.4054 36.3373 17.7741C34.6163 16.5127 34.1504 14.6064 34.1504 13.6769C34.1504 12.8803 34.7969 12.2354 35.5956 12.2354C36.3848 12.2354 37.0314 12.8708 37.0409 13.658C37.0409 13.7338 37.1074 14.7866 38.0868 15.4789C39.494 16.4748 42.2798 16.3989 45.9309 15.2703C49.4394 14.1796 55.8574 12.6527 59.48 14.7107C60.7731 15.441 61.6288 16.5886 61.9711 18.0207C62.1518 18.7984 61.6764 19.5666 60.8967 19.7563C60.7826 19.7847 60.6685 19.7942 60.5639 19.7942Z" fill="white"/>
<path d="M29.3872 72.6687C28.636 72.6687 27.999 72.0902 27.9514 71.3314C27.1528 59.5426 31.7262 53.046 31.9163 52.7804C32.3822 52.1355 33.2855 51.9837 33.932 52.4485C34.5786 52.9132 34.7307 53.8047 34.2648 54.4496C34.2078 54.535 30.1098 60.4721 30.8324 71.1323C30.8895 71.9289 30.2904 72.6118 29.4918 72.6687C29.4537 72.6687 29.4252 72.6687 29.3967 72.6687H29.3872Z" fill="white"/>
<path d="M65.4038 67.7648H65.3848C64.5861 67.7553 63.949 67.1009 63.9585 66.3042C64.0536 58.7169 61.2297 54.4585 61.2012 54.4206C60.7543 53.7662 60.9255 52.8652 61.5815 52.4194C62.2376 51.9737 63.1313 52.1349 63.5782 52.7893C63.7113 52.9885 66.9536 57.778 66.8395 66.3422C66.83 67.1294 66.1834 67.7648 65.3943 67.7648H65.4038Z" fill="white"/>
<path d="M29.3963 84.6085C26.5629 84.6085 24.2524 82.3039 24.2524 79.4776C24.2524 76.6513 26.5629 74.3467 29.3963 74.3467C32.2297 74.3467 34.5402 76.6513 34.5402 79.4776C34.5402 82.3039 32.2297 84.6085 29.3963 84.6085ZM29.3963 77.2299C28.1508 77.2299 27.1429 78.2352 27.1429 79.4776C27.1429 80.72 28.1508 81.7254 29.3963 81.7254C30.6419 81.7254 31.6498 80.72 31.6498 79.4776C31.6498 78.2352 30.6419 77.2299 29.3963 77.2299Z" fill="white"/>
<path d="M60.0603 85.415H57.7688C57.2744 85.415 56.8085 85.159 56.5423 84.7417C55.1921 82.5982 54.479 80.066 54.479 77.4104C54.479 70.5059 59.3852 64.8818 65.4038 64.8818C71.4225 64.8818 76.3287 70.4965 76.3287 77.4104C76.3287 79.8858 75.7011 82.2758 74.5126 84.3244C74.2559 84.7701 73.7805 85.0452 73.267 85.0452H71.0136C70.2149 85.0452 69.5684 84.4002 69.5684 83.6036C69.5684 82.8069 70.2149 82.162 71.0136 82.162H72.3923C73.0769 80.7109 73.4382 79.0891 73.4382 77.4009C73.4382 72.0803 69.8346 67.7555 65.3943 67.7555C60.954 67.7555 57.3505 72.0803 57.3505 77.4009C57.3505 79.2409 57.7783 80.9954 58.5865 82.5224H60.0508C60.8494 82.5224 61.496 83.1673 61.496 83.964C61.496 84.7606 60.8494 85.4055 60.0508 85.4055L60.0603 85.415Z" fill="white"/>
</g>
<defs>
<clipPath id="clip0_149_88">
<rect width="75" height="82" fill="white" transform="translate(10 7)"/>
</clipPath>
</defs>
</svg>
