<svg width="14" height="17" viewBox="0 0 14 17" fill="none" xmlns="http://www.w3.org/2000/svg">
<path d="M13.9982 16.9982L0 17V0H14L13.9982 16.9982ZM10.1986 6.2109C10.5217 6.2109 10.6897 5.92509 10.6704 5.68388C10.6527 5.46791 10.4683 5.24255 10.1957 5.24255H4.57914C4.27602 5.24196 4.07805 5.47789 4.08333 5.7367C4.08803 5.96499 4.26897 6.2109 4.55211 6.2109H10.1981H10.1986ZM10.2198 9.62357C10.5253 9.62357 10.6786 9.3272 10.6715 9.12825C10.6627 8.88587 10.4836 8.65992 10.1992 8.65992H4.57561C4.26309 8.65934 4.0663 8.90348 4.08627 9.18165C4.10272 9.41054 4.29423 9.62592 4.58149 9.62592L10.2204 9.62298L10.2198 9.62357ZM10.1699 13.0339C10.507 13.0339 10.6821 12.7763 10.6715 12.5221C10.6621 12.3021 10.4794 12.0656 10.1992 12.0656H4.57679C4.26603 12.065 4.06923 12.3091 4.08392 12.5797C4.09684 12.8103 4.286 13.0339 4.5762 13.0339H10.1699Z" fill="#2C4A3E"/>
</svg>
