<svg width="75" height="75" viewBox="0 0 75 75" fill="none" xmlns="http://www.w3.org/2000/svg">
<g clip-path="url(#clip0_135_45)">
<path d="M56.8676 38.2309H17.9618C16.4435 38.2309 15.0807 37.2687 14.577 35.8365C13.8734 33.8523 13.0809 31.801 12.207 29.7422C10.6294 26.02 9.71843 20.6194 10.0813 17.1881C10.7924 10.4075 16.5842 4.90252 23.8499 4.10436C29.0566 3.52999 34.0633 5.30532 37.4925 8.88582C40.929 5.31278 45.9284 3.52999 51.1351 4.10436C58.1489 4.87268 63.9185 10.1539 64.8517 16.6659C65.3776 20.3658 64.4296 25.9752 62.6002 30.0033C61.7707 31.8308 60.9782 33.8001 60.2524 35.844C59.7487 37.2761 58.3859 38.2384 56.8676 38.2384V38.2309ZM25.7681 6.26758C25.2126 6.26758 24.6572 6.29742 24.0943 6.35709C17.8729 7.04335 12.918 11.698 12.3107 17.4268C12.0292 20.0972 12.6884 25.1025 14.2734 28.8545C15.1621 30.9581 15.9768 33.0541 16.6953 35.0831C16.8804 35.6127 17.3915 35.9708 17.9618 35.9708H56.8676C57.4379 35.9708 57.949 35.6127 58.1341 35.0831C58.8822 32.9721 59.6895 30.9432 60.556 29.0559C62.2002 25.4456 63.089 20.2539 62.6298 16.9867C61.8447 11.4891 56.9121 7.01352 50.8981 6.35709C45.9876 5.82002 41.3068 7.66994 38.3738 11.3101C38.159 11.5712 37.8406 11.7278 37.4999 11.7278C37.1592 11.7278 36.8407 11.5712 36.6259 11.3101C34.0263 8.08766 30.0564 6.26758 25.7755 6.26758H25.7681Z" fill="#2C4A3E"/>
<path d="M34.5892 16.8224C34.4707 16.8224 34.3448 16.8 34.2263 16.7627C33.6412 16.5613 33.3227 15.9198 33.5227 15.323C34.5448 12.3095 36.5593 9.94484 36.6482 9.84787C37.0555 9.37793 37.7666 9.32571 38.2332 9.73598C38.6998 10.1462 38.7516 10.8623 38.3443 11.3323C38.2998 11.3845 36.5149 13.488 35.6483 16.0541C35.4854 16.524 35.0558 16.8224 34.5818 16.8224H34.5892Z" fill="#2C4A3E"/>
<path d="M51.4686 46.0782H23.5242C22.9021 46.0782 22.3984 45.571 22.3984 44.9444C22.3984 44.3178 22.9021 43.8105 23.5242 43.8105H51.4686C52.0907 43.8105 52.5944 44.3178 52.5944 44.9444C52.5944 45.571 52.0907 46.0782 51.4686 46.0782Z" fill="#2C4A3E"/>
<path d="M49.2828 52.5235H25.7156C25.0935 52.5235 24.5898 52.0163 24.5898 51.3897C24.5898 50.7631 25.0935 50.2559 25.7156 50.2559H49.2828C49.905 50.2559 50.4086 50.7631 50.4086 51.3897C50.4086 52.0163 49.905 52.5235 49.2828 52.5235Z" fill="#2C4A3E"/>
<path d="M46.891 58.9678H28.0935C27.4714 58.9678 26.9678 58.4606 26.9678 57.834C26.9678 57.2074 27.4714 56.7002 28.0935 56.7002H46.891C47.5132 56.7002 48.0168 57.2074 48.0168 57.834C48.0168 58.4606 47.5132 58.9678 46.891 58.9678Z" fill="#2C4A3E"/>
<path d="M44.2842 65.4132H30.7156C30.0935 65.4132 29.5898 64.9059 29.5898 64.2793C29.5898 63.6527 30.0935 63.1455 30.7156 63.1455H44.2842C44.9063 63.1455 45.4099 63.6527 45.4099 64.2793C45.4099 64.9059 44.9063 65.4132 44.2842 65.4132Z" fill="#2C4A3E"/>
<path d="M37.4991 70.9999C35.966 70.9999 34.6106 70.0153 34.1218 68.5533L25.3156 42.0949C25.1156 41.5056 25.4341 40.8641 26.0266 40.6627C26.6117 40.4613 27.2487 40.782 27.4486 41.3788L36.2549 67.8372C36.4326 68.3742 36.9363 68.7397 37.4991 68.7397C38.062 68.7397 38.5583 68.3817 38.7434 67.8372L47.5496 41.3788C47.7496 40.7895 48.3866 40.4688 48.9717 40.6627C49.5642 40.8641 49.8752 41.5056 49.6827 42.0949L40.8765 68.5533C40.3876 70.0153 39.0323 70.9999 37.5065 70.9999H37.4991Z" fill="#2C4A3E"/>
</g>
<defs>
<clipPath id="clip0_135_45">
<rect width="55" height="67" fill="white" transform="translate(10 4)"/>
</clipPath>
</defs>
</svg>
