<svg width="38" height="42" viewBox="0 0 38 42" fill="none" xmlns="http://www.w3.org/2000/svg">
<g clip-path="url(#clip0_124_37)">
<path d="M18.579 33.6288C14.3635 33.6288 10.148 33.6288 5.93138 33.6288C4.64797 33.6288 3.82252 32.8061 3.82252 31.5077C3.82142 26.6187 3.82473 21.7285 3.82583 16.8394C3.82583 13.9248 3.82473 11.009 3.82032 8.09439C3.81921 7.00532 4.14586 6.04273 4.89185 5.24804C5.63343 4.45782 6.54274 4.01122 7.62862 4.00898C12.6619 4.00227 17.6951 4.0045 22.7283 4.00338C24.9696 4.00338 27.2098 3.99219 29.4511 4.00786C31.1803 4.02017 32.6304 5.11484 33.138 6.79042C33.2605 7.19336 33.3168 7.63213 33.3179 8.0541C33.3278 15.8589 33.3256 23.6637 33.3245 31.4685C33.3245 32.8095 32.5145 33.6288 31.1991 33.6288C26.9924 33.6288 22.7857 33.6288 18.579 33.6288ZM18.5437 21.7979C21.7671 21.7979 24.9917 21.7979 28.2151 21.7979C29.0075 21.7979 29.3771 21.4229 29.3771 20.6193C29.3771 17.089 29.3771 13.5599 29.3771 10.0296C29.3771 8.76709 28.5329 7.91643 27.2804 7.91643C21.4659 7.91643 15.6524 7.91643 9.8379 7.91643C8.62181 7.91643 7.76656 8.77156 7.76546 9.99831C7.76215 13.5465 7.76325 17.0957 7.76546 20.6439C7.76546 21.4095 8.14949 21.7968 8.8999 21.7968C12.1145 21.7968 15.3291 21.7968 18.5437 21.7968V21.7979ZM27.4095 29.6273C28.4965 29.6262 29.3771 28.7408 29.3782 27.6462C29.3782 26.5649 28.4789 25.6516 27.4106 25.6493C26.3325 25.6471 25.4585 26.5403 25.4574 27.645C25.4552 28.7576 26.3137 29.6284 27.4095 29.6273ZM11.6896 27.6607C11.6896 26.5537 10.8333 25.6639 9.75072 25.6493C8.69023 25.6348 7.77429 26.5515 7.76877 27.6305C7.76325 28.7285 8.63615 29.6206 9.72093 29.6262C10.8201 29.6318 11.6885 28.7643 11.6896 27.6607Z" fill="white"/>
<path d="M5.88716 34.7148H11.7591C11.7249 35.5465 11.7745 36.3759 11.6344 37.1706C11.4854 38.0168 10.8652 38.5462 10.0177 38.6167C9.18011 38.6861 8.32487 38.6872 7.4906 38.5988C6.59122 38.5036 5.95889 37.7828 5.88937 36.8717C5.8386 36.2046 5.8684 35.5319 5.86509 34.8615C5.86509 34.8167 5.87943 34.7719 5.88826 34.7148H5.88716Z" fill="white"/>
<path d="M25.4223 34.7144H31.2545C31.2623 34.7916 31.2777 34.8699 31.2777 34.9494C31.2799 35.518 31.2832 36.0855 31.2777 36.6541C31.2645 37.7879 30.4136 38.652 29.2969 38.652C28.5454 38.652 27.7861 38.6856 27.0423 38.5983C26.1363 38.492 25.483 37.7398 25.4301 36.8141C25.3903 36.128 25.4223 35.4374 25.4223 34.7144Z" fill="white"/>
<path d="M2.89761 11.9023V13.8611C2.67249 13.8611 2.45509 13.8756 2.2399 13.8577C2.00154 13.8376 1.92429 13.917 1.9265 14.1677C1.93864 15.3866 1.93643 16.6044 1.93091 17.8233C1.9276 18.5207 1.31955 18.9706 0.668468 18.768C0.28554 18.6483 0.00855241 18.299 0.00634534 17.8704C-0.00137942 16.1959 -0.0035865 14.5214 0.00855241 12.847C0.011863 12.3198 0.401412 11.9213 0.91235 11.9068C1.56233 11.8889 2.21342 11.9023 2.89872 11.9023H2.89761Z" fill="white"/>
<path d="M34.25 11.911C34.9474 11.911 35.6349 11.8842 36.3202 11.92C36.7914 11.9457 37.1358 12.3688 37.138 12.8546C37.1446 14.5123 37.1446 16.1699 37.138 17.8276C37.1358 18.394 36.7219 18.8081 36.1867 18.8126C35.6261 18.8171 35.2156 18.4175 35.2101 17.8298C35.2001 16.6098 35.1979 15.3898 35.2101 14.1698C35.2123 13.9213 35.1406 13.8362 34.8989 13.8575C34.6903 13.8765 34.4795 13.862 34.25 13.862V11.911Z" fill="white"/>
</g>
<defs>
<clipPath id="clip0_124_37">
<rect width="37.1429" height="34.6667" fill="white" transform="translate(0 4)"/>
</clipPath>
</defs>
</svg>
