<svg width="38" height="44" viewBox="0 0 38 44" fill="none" xmlns="http://www.w3.org/2000/svg">
<g clip-path="url(#clip0_124_35)">
<path d="M37 22.4885C37.0216 32.1637 29.1993 39.9892 19.4923 40.0016C9.8531 40.0123 2.02006 32.1961 2.00004 22.5485C1.98002 12.8687 9.78073 5.01697 19.4307 5.00003C29.1624 4.98309 36.9769 12.7624 36.9985 22.4885H37ZM18.59 17.1257C18.59 18.8799 18.5885 20.6341 18.59 22.3884C18.59 22.9628 18.8179 23.2878 19.3399 23.3941C20.9798 23.7298 22.6228 24.0564 24.2673 24.3659C24.8324 24.4722 25.2728 24.1642 25.3606 23.6621C25.4545 23.1292 25.1527 22.6933 24.583 22.5763C23.3311 22.3206 22.0792 22.0649 20.8212 21.837C20.5009 21.7785 20.4162 21.6568 20.4178 21.3411C20.4301 18.2808 20.4255 15.2205 20.4255 12.1602C20.4255 12.0201 20.4332 11.8768 20.4162 11.7382C20.3423 11.1606 19.8557 10.8141 19.2875 10.9265C18.8641 11.0112 18.5931 11.3778 18.5931 11.8999C18.59 13.6418 18.5931 15.3822 18.5915 17.1241L18.59 17.1257Z" fill="white"/>
</g>
<defs>
<clipPath id="clip0_124_35">
<rect width="35" height="35" fill="white" transform="translate(2 5)"/>
</clipPath>
</defs>
</svg>
