<svg width="38" height="42" viewBox="0 0 38 42" fill="none" xmlns="http://www.w3.org/2000/svg">
<path d="M8.185 31.7636C7.74218 31.6131 7.28203 31.4898 6.84989 31.3042C4.93591 30.4826 3.71551 29.0808 3.16999 27.1119C2.93258 26.2565 2.97526 25.4103 3.1073 24.5472C3.33805 23.0429 3.53278 21.5334 3.74752 20.0265C3.90757 18.9051 4.07829 17.785 4.24102 16.6636C4.4024 15.5526 4.55712 14.4403 4.71584 13.3293C4.88123 12.1754 5.04795 11.0216 5.21201 9.86771C5.42008 8.41404 5.65349 6.96427 5.82554 5.5067C6.12031 3.03287 8.18233 1.12233 10.7405 1.0146C11.3167 0.991239 11.8942 1.00292 12.4718 1.00292C17.3214 1.00292 22.171 1.00032 27.0219 1.00292C28.9559 1.00422 30.4591 1.79595 31.5208 3.37033C31.9543 4.01409 32.1797 4.73314 32.285 5.48983C32.5158 7.13559 32.7385 8.78265 32.9613 10.4297C33.1653 11.9379 33.3627 13.4474 33.5681 14.9543C33.7348 16.173 33.9136 17.3905 34.0803 18.6105C34.2377 19.7656 34.3857 20.9221 34.5404 22.0772C34.6818 23.1363 34.8365 24.1942 34.9659 25.2546C35.1153 26.4798 34.7939 27.6116 34.175 28.6668C33.292 30.1737 31.9783 31.151 30.2564 31.604C30.1083 31.6429 29.9629 31.6922 29.7615 31.7532C29.9242 32.1387 30.0736 32.5034 30.231 32.863C31.2767 35.2511 32.3224 37.6393 33.3707 40.0262C33.7175 40.8153 33.5628 41.4487 32.8879 41.8238C32.6972 41.9302 32.4464 41.9731 32.2223 41.9783C31.4794 41.9964 30.7352 41.9925 29.9923 41.9821C29.2427 41.9718 28.8065 41.6122 28.6345 40.8945C28.6065 40.779 28.5625 40.6674 28.5371 40.5518C28.4944 40.361 28.3784 40.278 28.181 40.2948C28.1143 40.3 28.0476 40.2948 27.9809 40.2948C22.0096 40.2948 16.0396 40.2948 10.0683 40.2948C9.68327 40.2948 9.45075 40.4761 9.37073 40.8387C9.20134 41.6083 8.73051 41.9834 7.92224 41.986C7.26736 41.9886 6.61114 41.9549 5.95892 41.9938C4.74252 42.0665 4.13565 41.0593 4.63581 39.9574C5.85355 37.2772 7.00727 34.5697 8.18366 31.8726C8.19567 31.8454 8.185 31.809 8.185 31.761V31.7636ZM18.9606 19.1219C22.9219 19.1219 26.8832 19.1219 30.8445 19.1219C30.9339 19.1219 31.0219 19.1206 31.1113 19.1219C31.33 19.1245 31.4061 19.0168 31.3767 18.813C31.278 18.1082 31.1807 17.4021 31.0873 16.6961C30.9152 15.402 30.7472 14.1067 30.5738 12.8127C30.4137 11.6147 30.255 10.4167 30.079 9.22005C30.0096 8.74501 29.9883 8.74761 29.4921 8.74761C22.5458 8.74761 15.5995 8.74761 8.65315 8.74761C8.58646 8.74761 8.51978 8.7528 8.45309 8.74761C8.22501 8.72944 8.10764 8.82029 8.07696 9.05132C7.98893 9.70417 7.88623 10.3544 7.78887 11.0047C7.61414 12.1676 7.43941 13.3306 7.26602 14.4935C7.06062 15.8706 6.86456 17.249 6.64982 18.6235C6.57513 19.0998 6.57779 19.1219 7.07663 19.1219C11.0379 19.1219 14.9993 19.1219 18.9606 19.1219ZM19.0179 37.8768V37.8729C19.8395 37.8729 20.6598 37.8729 21.4814 37.8729C23.4674 37.8729 25.4548 37.8729 27.4408 37.8768C27.6688 37.8768 27.8516 37.8587 27.7649 37.5575C27.6515 37.163 27.5181 36.7723 27.4474 36.3699C27.3821 35.9987 27.1847 35.9286 26.8312 35.9286C21.5935 35.939 16.3557 35.9351 11.118 35.9351C11.062 35.9351 11.0073 35.939 10.9513 35.9351C10.7565 35.9209 10.6458 35.9935 10.5991 36.1921C10.5058 36.5906 10.4004 36.9878 10.2804 37.3784C10.1403 37.8366 10.1617 37.8755 10.6618 37.8768C13.4468 37.8768 16.233 37.8768 19.0179 37.8768ZM19.0006 33.4963C21.2867 33.4963 23.5728 33.4963 25.8589 33.4963C26.047 33.4963 26.2363 33.4963 26.4244 33.4925C26.5871 33.4899 26.6752 33.4353 26.6231 33.2523C26.5191 32.8889 26.4137 32.5255 26.331 32.1569C26.2724 31.8973 26.1323 31.822 25.8629 31.8233C23.9769 31.8337 22.0896 31.8285 20.2037 31.8285C17.5294 31.8285 14.8552 31.835 12.181 31.8207C11.8275 31.8181 11.6808 31.9479 11.6221 32.2594C11.5728 32.5242 11.5048 32.7851 11.4367 33.0473C11.3207 33.4976 11.318 33.4976 11.8102 33.4976C14.207 33.4976 16.6038 33.4976 19.0006 33.4976V33.4963ZM13.6762 25.5622C13.7442 24.2539 12.5384 22.9676 11.0219 22.9741C9.56146 22.9806 8.37973 24.1357 8.37973 25.579C8.37973 26.9912 9.57613 28.1567 11.0206 28.1528C12.4984 28.1489 13.6762 26.999 13.6762 25.5622ZM24.309 25.4973C24.281 26.9042 25.4481 28.0723 26.9166 28.1074C28.3304 28.1411 29.5668 26.9756 29.6161 25.6089C29.6668 24.2006 28.5211 22.9417 26.9833 22.9183C25.5174 22.8962 24.253 24.1306 24.3104 25.4973H24.309Z" fill="white"/>
</svg>
