<svg width="75" height="75" viewBox="0 0 75 75" fill="none" xmlns="http://www.w3.org/2000/svg">
<g clip-path="url(#clip0_135_44)">
<path d="M72.9996 41.0148V49.6268C72.5408 51.1867 71.2491 52.3934 69.5274 52.4276L68.0385 52.4577C66.04 57.7101 62.2062 61.8545 57.3286 64.806L57.9833 68.7628C58.3189 70.7966 57.0313 72.6017 55.0493 73.0003H51.399C49.9348 72.5771 48.8773 71.4595 48.6102 69.8954L48.3637 68.4409C43.1176 69.6653 37.825 69.6776 32.483 68.4464L32.2173 69.9611C31.9461 71.5088 30.8462 72.6195 29.3902 73.0003H25.6988C23.8825 72.5675 22.532 70.8665 22.847 68.9025L23.5017 64.8265C16.7517 60.7479 11.9453 54.2341 11.4988 46.2315C9.62227 45.6933 8.09502 44.636 6.69242 43.3212C5.43912 44.4552 4.14472 45.9727 3.22427 44.7113C2.95032 44.336 2.91608 43.6512 3.3448 43.2719L5.20215 41.6215C3.87352 39.7027 3.03935 37.536 2.99963 35.1406C2.95717 32.552 5.15147 30.5935 7.59507 30.8661C10.1058 31.1455 11.7015 33.4423 11.2344 35.976C10.8331 38.1537 9.68665 39.9533 8.22241 41.6722C9.25107 42.598 10.2578 43.3417 11.5262 43.8594C12.1467 36.1116 16.6599 30.0607 23.0237 25.9862C19.0816 22.291 17.6927 16.7894 19.5501 11.678C21.6197 5.98325 27.4959 2.39765 33.3967 3.08382C37.5099 3.56318 41.0781 5.92573 43.1163 9.16482C45.4845 12.9271 45.7804 17.3262 44.1504 21.3474C46.3515 21.6213 48.4363 22.0431 50.5717 22.6923C52.5674 19.4532 56.0355 17.5002 59.8475 17.5481C60.4214 17.555 60.9008 18.0809 60.9022 18.6547L60.9172 28.2693C64.106 30.9743 66.5811 34.1736 68.0412 38.0674L69.3096 38.0825C71.1587 38.1044 72.5942 39.2973 72.9983 41.0148H72.9996ZM30.8147 9.0936C30.8818 8.30883 31.3708 7.83084 32.0132 7.85686C32.694 7.88425 33.0323 8.47181 33.1227 9.1251C35.3485 9.51544 37.5141 10.5851 37.8962 12.8326C38.0332 13.6379 37.588 14.283 36.8566 14.3337C36.0663 14.3885 35.78 13.7571 35.5786 13.0353C35.2992 12.0314 34.0569 11.6465 33.0967 11.4616L33.0871 15.1842C34.6582 15.4061 36.0964 15.9731 37.1045 17.1509C38.1277 18.3466 38.2071 20.0148 37.1881 21.2803C38.6728 21.1967 40.1302 21.1474 41.7123 21.1762C44.3545 16.0607 42.4643 9.78388 37.6127 6.86664C32.6488 3.88229 26.2946 5.26011 22.9853 9.96056C19.687 14.6446 20.5938 21.1762 25.1221 24.7851C26.4932 24.1126 27.7986 23.5579 29.2231 23.0046C28.2752 22.5937 27.5452 22.1541 26.8822 21.5172C26.3741 20.8707 26.0001 20.1257 25.996 19.3039C25.9919 18.5383 26.611 18.1001 27.2493 18.1548C27.9616 18.2151 28.1232 18.7931 28.3177 19.4395C28.6245 20.4544 29.8463 20.8529 30.8147 21.0173L30.8065 17.2824C29.3135 17.0866 28.0533 16.5647 27.0658 15.617C25.5933 14.2063 25.6864 12.1026 27.148 10.7316C28.1492 9.7921 29.4751 9.38396 30.8147 9.09497V9.0936ZM30.8133 14.9705L30.8161 11.4411C29.4902 11.6369 28.0972 12.5655 28.2615 13.327C28.3067 13.5379 28.5204 13.8406 28.7012 14.0899C29.3518 14.5364 29.9764 14.8336 30.8133 14.9705ZM35.6608 19.2218C35.5718 18.3699 34.25 17.6851 33.0898 17.4865L33.0871 21.0474C34.3212 20.816 35.7471 20.0394 35.6622 19.2218H35.6608ZM50.8799 69.6146C51.0004 70.3172 51.562 70.7254 52.214 70.7268L54.4165 70.7295C55.2603 70.7295 55.8958 70.0378 55.7547 69.1846L54.9767 64.5088C54.8795 63.9281 55.1425 63.4528 55.6506 63.1584C60.4707 60.3767 64.3484 56.3131 66.1565 50.9923C66.3112 50.5348 66.7797 50.1801 67.2372 50.1773L69.4493 50.1637C70.1972 50.1595 70.73 49.5446 70.73 48.8091V41.6941C70.7286 40.96 70.1711 40.3628 69.4397 40.3574L67.2303 40.3409C66.8934 40.3382 66.3592 40.0711 66.2318 39.6945C64.9223 35.813 62.5226 32.5205 59.353 29.921C59.0572 29.6663 58.6421 29.2486 58.6421 28.85L58.6353 19.8778C55.8917 20.2229 53.4961 21.9226 52.188 24.4358C51.9113 24.9672 51.3839 25.3507 50.7169 25.1275C43.8176 22.8211 36.3265 22.8375 29.4751 25.3658C22.6237 27.894 17.1462 32.5822 14.7916 39.2521C13.0288 44.2429 13.5328 49.5556 16.0888 54.1944C18.1886 58.006 21.3732 60.9876 25.1468 63.1529C25.6796 63.4583 25.9672 63.9021 25.8631 64.5293L25.0961 69.1654C24.9591 69.994 25.5371 70.724 26.3768 70.724H28.7135C29.371 70.724 29.8586 70.2241 29.9641 69.6174L30.4517 66.8207C30.5682 66.1496 31.2571 65.7825 31.9269 65.9619C37.4976 67.4589 43.2929 67.4836 48.865 65.9647C49.5827 65.7688 50.2786 66.1372 50.4073 66.8837L50.8785 69.6146H50.8799ZM6.76501 39.8835C7.79642 38.6234 8.70318 37.2128 9.01137 35.5542C9.22505 34.401 8.64017 33.3902 7.54165 33.141C6.57599 32.9218 5.40076 33.5888 5.32406 34.7215C5.19667 36.5869 5.78155 38.3317 6.76501 39.8835Z" fill="#40584E"/>
<path d="M59.6956 40.3834C59.6956 41.0874 59.134 41.5407 58.5738 41.5449C58.0369 41.5503 57.4356 41.1025 57.4356 40.4588V38.0182C57.4328 37.3375 58.0013 36.8773 58.5765 36.8869C59.1518 36.8965 59.6929 37.3676 59.6942 38.036L59.697 40.3834H59.6956Z" fill="#40584E"/>
</g>
<defs>
<clipPath id="clip0_135_44">
<rect width="70" height="70" fill="white" transform="translate(3 3)"/>
</clipPath>
</defs>
</svg>
