<svg width="38" height="42" viewBox="0 0 38 42" fill="none" xmlns="http://www.w3.org/2000/svg">
<g clip-path="url(#clip0_124_38)">
<path d="M7.01926 20.9384C7.01926 15.3592 7.03835 9.77621 7.00017 4.19702C6.99253 3.28761 7.24456 2.98832 8.17248 2.99983C11.8231 3.04971 15.4737 3.0075 19.1243 3.02285C22.1104 3.0382 24.9438 3.62912 27.3419 5.54769C30.6336 8.17996 31.8288 12.8651 30.4121 17.3929C29.2245 21.1763 26.5209 23.3904 22.7825 24.0734C20.1553 24.553 17.4212 24.507 14.7329 24.5722C13.7668 24.5952 13.4995 24.837 13.5147 25.8078C13.5682 29.8559 13.5224 33.908 13.5567 37.96C13.5644 38.7543 13.32 39.0229 12.5295 38.9922C11.0708 38.9384 9.60828 38.9308 8.14957 38.9922C7.28656 39.0305 7.00017 38.7619 7.0078 37.8717C7.04217 32.2273 7.0269 26.5829 7.02308 20.9384H7.01926ZM13.5376 13.8321C13.5376 13.8321 13.5376 13.8321 13.5415 13.8321C13.5415 15.4245 13.5491 17.0169 13.5376 18.6093C13.5376 19.0736 13.5987 19.4343 14.1868 19.4151C16.0847 19.3575 17.994 19.4036 19.8842 19.2309C21.5262 19.0813 22.9314 18.356 23.7219 16.7751C25.8489 12.5198 23.4508 8.40635 18.7424 8.26822C17.2837 8.22601 15.825 8.29508 14.3663 8.24519C13.656 8.22217 13.5147 8.5253 13.5262 9.15076C13.5529 10.7125 13.5338 12.2703 13.5338 13.8321H13.5376Z" fill="white"/>
</g>
<defs>
<clipPath id="clip0_124_38">
<rect width="24" height="36" fill="white" transform="translate(7 3)"/>
</clipPath>
</defs>
</svg>
