<svg width="75" height="75" viewBox="0 0 75 75" fill="none" xmlns="http://www.w3.org/2000/svg">
<path d="M33.9737 69.68C33.9737 70.4313 33.5459 70.8929 32.9875 70.9811C32.4901 71.0587 31.7842 70.5908 31.7842 69.934L31.7884 50.4017C31.7884 48.9265 32.3047 47.3548 33.3078 46.3266L35.9336 43.6364C36.2981 43.2628 37.0652 43.2628 37.3898 43.5272C37.8218 43.8798 37.9103 44.673 37.5478 45.0381L35.0127 47.5982C34.3446 48.2739 33.9716 49.3441 33.9716 50.343V69.6779L33.9737 69.68Z" fill="#40584E"/>
<path d="M53.7385 55.4839C49.1171 54.8144 45.3997 52.3593 42.6475 48.7898C40.7888 49.5348 39.1345 51.2219 39.1303 53.2952L39.0945 69.8141C39.0945 70.4184 38.5929 70.9388 38.0766 70.9766C37.4866 71.0207 36.8944 70.5003 36.8965 69.8099L36.9534 53.2868C36.9618 50.84 38.4791 48.7856 40.5022 47.4384C38.772 44.9644 39.301 41.6594 42.0363 40.1044C42.0553 38.604 42.6875 37.3198 43.815 36.4825L43.3492 33.7021C39.1071 27.3522 40.224 18.927 45.8865 13.9222C51.5743 8.89648 60.1618 8.83143 65.9191 13.8257C71.63 18.7801 72.8607 27.2788 68.5554 33.6601L68.1213 36.5644C69.4278 37.3848 69.7545 38.7467 69.8893 40.0918C72.5004 41.6426 73.2632 44.9245 71.3687 47.428C73.5899 48.7982 74.9807 51.0708 74.9828 53.6939L74.9976 69.984C74.9976 70.5464 74.2748 71.05 73.847 70.9955C73.3054 70.9262 72.8523 70.4268 72.8523 69.812V53.9037C72.8523 51.5451 71.3982 49.5012 69.215 48.8276C65.5756 53.7107 59.8183 56.3631 53.7364 55.4839H53.7385ZM56.3706 26.5968C54.514 26.0596 52.7881 25.1908 51.1064 24.2759C49.5259 26.3911 46.5967 28.6491 46.015 26.9661C45.425 25.2538 47.9517 25.6273 49.783 22.2803C50.0549 21.7851 50.8177 21.3717 51.3614 21.7683C57.6856 26.3848 64.7453 24.5823 67.8979 30.4117C70.4625 24.4144 68.2983 17.7204 62.9624 14.302C57.6856 10.9215 50.6238 11.828 46.3628 16.4676C42.1017 21.1073 41.7434 27.9125 45.5156 32.9949C45.5556 38.795 50.3246 43.3108 55.9787 43.3045C61.5168 43.3003 66.3047 38.8831 66.3722 33.1838C66.3911 31.5785 65.4175 30.0676 64.0562 29.3394C64.8443 30.8797 65.0045 32.464 63.9908 33.7797C63.1142 34.9171 61.599 35.5109 60.0311 35.0766C58.6128 34.6821 57.8711 33.5342 57.3569 32.0275C57.0682 31.1819 54.8575 31.1567 54.5836 32.0087C54.0062 33.7965 52.8724 35.1206 51.0643 35.2255C49.2562 35.3305 47.7368 34.1281 47.3174 32.5312C46.8453 30.737 47.7958 29.01 49.3847 28.2986C51.058 27.5516 52.8387 28.2462 53.9493 29.6815C55.2558 29.1842 56.6909 29.2471 57.9701 29.6521C58.714 28.8232 59.5801 28.1559 60.8783 27.9041L56.3706 26.5989V26.5968ZM62.5599 31.6099C62.5599 30.7999 61.9003 30.1452 61.089 30.1452C60.2777 30.1452 59.6181 30.802 59.6181 31.6099C59.6181 32.4178 60.2777 33.0747 61.089 33.0747C61.9003 33.0747 62.5599 32.4178 62.5599 31.6099ZM52.2971 31.612C52.2971 30.802 51.6375 30.1452 50.824 30.1452C50.0106 30.1452 49.351 30.802 49.351 31.612C49.351 32.422 50.0106 33.0789 50.824 33.0789C51.6375 33.0789 52.2971 32.422 52.2971 31.612ZM42.7044 46.4858L49.4606 43.7284C47.3659 42.2595 45.916 40.799 44.66 38.56C43.7981 39.8673 44.8075 41.3026 43.6948 41.7328C42.5822 42.163 41.9542 42.7946 41.7434 43.741C41.5327 44.6874 41.7434 45.8164 42.7044 46.4858ZM67.6324 40.5367C67.7314 39.8043 67.6682 39.2378 67.2067 38.6229C66.0076 40.8053 64.5914 42.2301 62.4377 43.7221L69.2887 46.5025C70.1443 45.6863 70.412 44.7608 70.1359 43.6151C69.6681 41.6761 67.4195 42.0958 67.6324 40.5367ZM62.1469 46.0199L60.4673 44.6098C57.5149 45.7681 54.2822 45.659 51.3846 44.6202L49.7767 46.0199C53.2749 49.2053 58.6676 49.1927 62.1469 46.0199ZM44.7359 47.9526C47.5007 51.4821 51.6396 53.5197 55.9723 53.5029C60.2671 53.4882 64.3175 51.5556 67.1456 47.9714L64.3428 46.8194C59.8035 51.8452 52.0885 51.7591 47.5429 46.8299L44.7338 47.9484L44.7359 47.9526Z" fill="#40584E"/>
<path d="M45.5116 69.8545C45.5116 70.5554 44.9152 71.0003 44.4094 70.9961C43.931 70.9919 43.3389 70.526 43.3389 69.949V55.8538C43.3389 55.2788 43.931 54.8024 44.4136 54.7941C44.8962 54.7857 45.5095 55.2704 45.5095 55.8538V69.8524L45.5116 69.8545Z" fill="#40584E"/>
<path d="M68.5961 69.8102C68.5961 70.4859 68.0187 70.9958 67.5466 70.9895C66.9292 70.9832 66.4066 70.4901 66.4066 69.7934L66.4023 56.0046C66.4023 55.4024 66.8639 54.8715 67.3549 54.8106C67.9302 54.7393 68.5898 55.2303 68.5919 55.9039L68.5961 69.8102Z" fill="#40584E"/>
<path d="M57.5382 36.185C58.0356 35.6415 58.7163 35.4568 59.2621 35.973C59.654 36.3445 59.6519 37.0621 59.2284 37.5301C57.435 39.5194 54.6659 39.5677 52.8199 37.6644C52.3457 37.1754 52.1582 36.5417 52.5691 36.057C52.98 35.5722 53.8082 35.5366 54.2402 36.0486C55.1 37.0663 56.5499 37.2657 57.5382 36.185Z" fill="#40584E"/>
<path d="M10.8646 50.2276L10.8835 69.7934C10.8835 70.4103 10.382 70.9245 9.86567 70.9916C9.46949 71.0441 8.7003 70.574 8.7003 70.0137L8.68976 50.2255C8.68976 49.2539 8.24932 48.2194 7.58972 47.5668L3.1474 43.181L3.14319 69.7997C3.14319 70.4502 2.70064 70.9161 2.15062 70.9874C1.7165 71.042 1 70.5719 1 69.9718V43.4433C1 41.3449 2.30656 39.4039 4.30645 38.7953L11.8719 36.4891C12.6474 35.1776 12.5209 34.4222 14.1036 34.29C10.9489 31.9229 9.06909 28.6955 8.7298 24.9079C7.66348 24.4945 6.78049 23.7474 6.39485 23.034C5.74789 21.8358 5.99866 20.6648 6.4686 19.5464C5.16625 18.7091 4.33806 17.492 4.22005 16.0546C4.08939 14.4618 4.98713 13.1608 6.16093 12.1221C6.17989 10.8798 6.2684 9.51793 7.30312 8.59882C8.33783 7.6797 9.72448 7.52022 11.1153 7.88115C13.347 6.0744 15.9328 5 18.8725 5H23.7068C26.6023 5 29.3229 5.99466 31.4809 7.89164C32.8865 7.49924 34.1699 7.69649 35.2594 8.52537C36.4058 9.39832 36.3657 10.8337 36.5259 12.0549C37.4637 13.1986 38.5974 14.2709 38.4373 15.9287C38.3024 17.3178 37.6449 18.7343 36.136 19.5338C36.6692 20.6166 36.8209 21.7015 36.3468 22.8241C35.9527 23.7558 35.0107 24.4714 33.9022 24.9393C33.5672 28.6494 31.7422 31.9586 28.5727 34.2396C29.4093 34.4557 29.8456 34.6992 30.1764 35.3077L30.8445 36.5353L37.7882 38.619C38.3424 38.7848 38.7428 39.4836 38.5995 39.9264C38.3825 40.5958 37.7018 40.8329 37.0422 40.6377L32.6631 39.3367C30.4462 44.7087 26.9079 49.2665 22.1495 52.5401C21.6353 52.8926 21.0895 52.9681 20.5753 52.6051C15.8674 49.2896 12.2217 44.8304 10.0216 39.3178C8.13763 39.8508 6.31687 40.3943 4.22216 41.1015L9.11545 46.0517C10.1228 47.0715 10.8625 48.5992 10.8646 50.2276ZM31.8096 23.8041C31.8117 22.5786 34.3132 23.1934 34.4902 21.5609C34.7072 19.5443 31.9382 20.4067 30.3787 17.7837C29.6517 16.5603 29.8772 15.1417 30.2481 13.9079C29.1817 12.5586 28.9183 10.8567 29.7655 9.32278C28.2145 7.90424 26.0607 7.16978 23.9218 7.16978H18.6618C16.487 7.16768 14.5588 7.9567 12.8455 9.2976C13.8486 10.9281 13.3639 12.5628 12.4071 13.91C12.7759 15.1564 13.0183 16.5288 12.2365 17.8361C10.717 20.3773 7.95429 19.5443 8.15871 21.5441C8.34205 23.3319 10.8393 22.2806 10.8772 24.1818C10.991 29.9693 15.8148 34.4411 21.4772 34.355C27.165 34.269 31.7949 29.6608 31.8096 23.802V23.8041ZM10.0996 14.3716C9.60857 13.7568 9.77927 12.9929 10.4094 12.6257C11.2228 12.1515 11.4904 11.2198 11.0268 10.5105C10.5969 9.85158 9.65704 9.64804 9.11123 9.97749C7.22093 11.119 9.75819 13.058 7.93954 13.719C6.65616 14.1849 5.96284 15.5174 6.62876 16.7617C7.17668 17.7879 8.60547 18.2558 9.70551 17.492C10.6433 16.8436 10.9784 15.4754 10.0996 14.3737V14.3716ZM34.7852 13.7652C34.1024 13.5511 33.7526 12.7873 34.1066 12.1305C34.5703 11.268 34.2984 10.351 33.4618 9.94601C32.7495 9.59977 31.8728 9.95021 31.5083 10.7161C31.1437 11.4821 31.5083 12.2249 32.3533 12.6866C32.8865 12.9783 32.956 13.889 32.5683 14.3716C31.6979 15.4565 31.9445 16.9401 33.1225 17.6032C34.1762 18.1971 35.5881 17.7774 36.115 16.5561C36.568 15.5048 36.037 14.1597 34.7852 13.7673V13.7652ZM25.4138 35.9666C22.3644 36.6549 19.9789 36.6213 17.1171 35.9184L21.3424 38.0986L25.4117 35.9666H25.4138ZM17.4564 42.5872L19.6881 39.6536L14.1015 36.8899L13.6568 37.9391L17.4564 42.5893V42.5872ZM25.2094 42.5872L28.9879 37.9308C28.8762 37.6055 28.6085 37.1208 28.4062 36.934L22.9524 39.6473L25.2115 42.5851L25.2094 42.5872ZM22.3981 47.0086C22.3918 47.5248 21.7343 48.0284 21.2834 47.999C20.6828 47.9613 20.2571 47.4241 20.2529 46.8239L20.2255 42.6606L19.3425 43.691C18.3604 44.8367 16.7504 44.9815 15.7052 43.8588L13.1995 40.9105C15.0076 44.822 17.8589 47.9046 21.3234 50.5004C24.6572 47.9886 27.6708 44.8955 29.4325 40.9189L27.0048 43.8127C26.4717 44.3709 25.6856 44.7297 24.9249 44.6395C24.2842 44.5618 23.6288 44.0939 23.1905 43.5734L22.4487 42.6942L22.4003 47.0086H22.3981Z" fill="#40584E"/>
<path d="M22.9062 27.21C23.2455 26.8302 23.9261 26.6246 24.3265 26.7903C24.7628 26.9687 25.1168 27.7703 24.8386 28.2257C24.0884 29.4469 22.7481 30.0303 21.4942 30.087C20.0423 30.152 18.7547 29.5435 17.8443 28.2802C17.5556 27.8794 17.7769 27.1135 18.1456 26.8911C18.5987 26.6183 19.3005 26.7484 19.644 27.1471C20.5354 28.1837 21.8988 28.3369 22.9062 27.2121V27.21Z" fill="#40584E"/>
<path d="M27.5468 22.7526C27.5468 23.1177 26.9082 23.7221 26.5374 23.7557C26.1665 23.7892 25.4331 23.3192 25.4141 22.9331L25.3404 21.3865C25.3193 20.9333 25.9325 20.3415 26.3224 20.3184C26.9546 20.2807 27.5468 20.7759 27.5468 21.4138V22.7505V22.7526Z" fill="#40584E"/>
<path d="M17.1866 23.0526C17.1508 23.4093 16.371 23.8038 16.0613 23.7451C15.7093 23.6779 15.1003 23.1407 15.1045 22.7735L15.1235 21.2249C15.1277 20.8744 15.7156 20.3603 16.0507 20.3141C16.4743 20.2575 17.2393 20.738 17.2519 21.1955C17.2709 21.8334 17.2519 22.4 17.1866 23.0526Z" fill="#40584E"/>
</svg>
