<svg width="21" height="22" viewBox="0 0 21 22" fill="none" xmlns="http://www.w3.org/2000/svg">
<g clip-path="url(#clip0_71_638)">
<path d="M17.9383 0L18.8314 0.00323305C19.0612 0.00415678 19.237 0.189826 19.2503 0.412445V19.6708V21.1211L19.2723 21.1553L20.5815 21.1571C20.817 21.1571 20.9903 21.3492 20.9999 21.5622C21.0085 21.7608 20.848 22 20.5834 22H0.425462C0.176617 22 0.00132612 21.7908 -0.000106769 21.582C-0.00201729 21.3622 0.175184 21.1585 0.418776 21.1576L1.74993 21.1529V0.412907C1.7614 0.171352 1.95102 0.00369492 2.1927 0H3.06199H17.9383ZM6.12551 2.53979H4.37404V4.23853H6.12551V2.53979ZM9.62559 2.54026H7.87555V4.23253H9.62559V2.54026ZM13.1242 2.54026H11.3742V4.23253H13.1242V2.54026ZM16.6262 2.53979H14.8748V4.23299H16.6262V2.53979ZM6.12551 5.92388H4.37356V7.62123H6.12551V5.92388ZM7.86982 5.92434V7.61753H9.63037V5.92434H7.86982ZM11.3699 5.92434V7.61707H13.1304V5.92434H11.3699ZM14.8743 5.92434V7.61753H16.6262V5.92434H14.8743ZM6.12551 9.30888H4.36926V11.0081H6.12551V9.30888ZM7.87316 9.30934V11.0081H9.62607V9.30934H7.87316ZM13.1257 9.30934H11.3737V11.0081H13.1257V9.30934ZM14.8743 9.30888V11.0076H16.6262V9.30888H14.8743ZM10.0621 14.3857H5.68657V21.1562H10.0621V14.3857ZM10.9376 14.3857V21.1608H15.3132V14.3857H10.9376Z" fill="white"/>
</g>
<defs>
<clipPath id="clip0_71_638">
<rect width="21" height="22" fill="white"/>
</clipPath>
</defs>
</svg>
