<svg width="20" height="19" viewBox="0 0 20 19" fill="none" xmlns="http://www.w3.org/2000/svg">
<path d="M18.5898 14.9572C18.0308 15.5576 17.4732 16.0527 16.8883 16.5938C15.9328 17.4774 14.1755 17.1539 12.9133 16.6821C9.52444 15.4163 6.19548 12.4634 4.12212 9.63984C3.09209 8.23781 2.01681 6.29087 2.00018 4.60124C1.99485 4.06831 2.10797 3.46852 2.49323 3.07623C3.08344 2.47518 3.65568 1.93216 4.29578 1.3658C4.87401 0.854305 5.89406 0.883947 6.46563 1.42508L8.95686 3.78261C9.35077 4.15535 9.41532 4.72738 9.27359 5.21302C9.14117 5.66774 8.76988 6.01462 8.24289 6.19689C7.6141 6.41448 7.13036 7.00859 7.20621 7.66767C7.25678 8.10348 7.43976 8.53171 7.67531 8.91833C8.48709 10.2485 9.69744 11.3187 11.1553 11.9715C12.029 12.3632 13.0863 12.1361 13.4702 11.2809C13.6938 10.782 13.9932 10.3777 14.5076 10.2321C15.0765 10.0712 15.694 10.1545 16.1191 10.5607L18.6104 12.9346C19.1507 13.4492 19.1154 14.3921 18.5891 14.9572H18.5898Z" fill="white"/>
</svg>
