<svg width="16" height="27" viewBox="0 0 16 27" fill="none" xmlns="http://www.w3.org/2000/svg">
<g clip-path="url(#clip0_71_630)">
<path d="M14.0754 24.602C14.5415 25.357 14.3304 26.267 13.662 26.7232C13.0295 27.1552 12.0709 27.0468 11.626 26.3265L4.53517 14.8393L5.59788 9.65303L4.26326 10.7949C3.81986 11.1487 3.42262 11.6447 3.3464 12.2499L2.91839 15.665C2.8407 16.283 2.31594 16.6676 1.756 16.6255C1.22831 16.5863 0.69769 16.0722 0.771713 15.461L1.30307 11.0704C1.36536 10.5555 1.61895 10.0753 2.00299 9.74411L4.82906 7.3068C5.99218 6.30418 7.92704 5.64781 9.22208 6.38171C10.1323 6.89732 10.8946 9.33086 11.2178 10.5653C11.4267 11.3632 11.8767 11.9089 12.5942 12.2574L15.4708 13.6537C15.9641 13.8931 16.1055 14.5193 15.9245 14.9808C15.7588 15.4023 15.1711 15.8246 14.6822 15.589L10.8059 13.717C10.342 13.4926 9.9799 13.1532 9.74171 12.6948L9.28511 11.735L8.48771 15.5521L14.0754 24.6013V24.602Z" fill="white"/>
<path d="M2.39663 26.4381C1.9371 27.0749 1.14043 27.16 0.568771 26.7429C-0.00289343 26.3259 -0.208839 25.4882 0.239697 24.8649L3.19843 20.7581L4.17758 17.1172L6.17621 19.8533L5.6214 21.9692L2.3959 26.4373L2.39663 26.4381Z" fill="white"/>
<path d="M9.37165 5.18322C10.7653 5.18322 11.895 4.02291 11.895 2.59161C11.895 1.1603 10.7653 0 9.37165 0C7.97802 0 6.84827 1.1603 6.84827 2.59161C6.84827 4.02291 7.97802 5.18322 9.37165 5.18322Z" fill="white"/>
</g>
<defs>
<clipPath id="clip0_71_630">
<rect width="16" height="27" fill="white"/>
</clipPath>
</defs>
</svg>
