<svg width="20" height="19" viewBox="0 0 20 19" fill="none" xmlns="http://www.w3.org/2000/svg">
<path d="M10.5226 19C7.86714 15.5864 5.31623 12.4238 4.19476 8.43839C3.45099 5.80674 4.91529 2.50989 7.26283 0.986916C9.35469 -0.366837 11.9928 -0.325991 13.9277 1.09778C16.3334 2.86 17.5827 6.09267 16.7343 8.77683C15.5373 12.5755 13.1375 15.6681 10.5226 18.9942V19ZM10.5052 4.28961C8.97699 4.30128 7.77417 5.52666 7.77998 7.0613C7.77998 8.60761 8.97699 9.78048 10.5401 9.78048C12.0567 9.78048 13.2944 8.53176 13.2944 7.02045C13.2944 5.53833 11.9986 4.2721 10.5052 4.28377V4.28961Z" fill="white"/>
</svg>
