<svg width="72" height="68" viewBox="0 0 72 68" fill="none" xmlns="http://www.w3.org/2000/svg">
<g clip-path="url(#clip0_71_4083)">
<mask id="mask0_71_4083" style="mask-type:luminance" maskUnits="userSpaceOnUse" x="4" y="5" width="64" height="59">
<path d="M68 5H4V64H68V5Z" fill="white"/>
</mask>
<g mask="url(#mask0_71_4083)">
<path d="M67.9703 51.8629C67.9776 53.9841 66.577 55.6341 64.8231 56.7304C63.4007 57.6196 61.8999 58.1109 60.3591 58.8002C44.8272 65.7394 27.2226 65.7302 11.6871 58.8002C10.0643 58.0761 8.4634 57.5774 6.9918 56.5966C5.34536 55.5003 4.19248 53.8778 4.07774 51.8684C3.912 48.97 3.77176 46.4198 6.34706 45.4958L5.9136 43.2225C5.73693 42.3003 5.93909 41.4772 6.5383 40.7933C7.07376 40.1792 7.8478 39.8785 8.82765 39.8785L33.1655 39.873C34.2801 39.873 35.2308 40.2158 36.0249 40.9015C36.8135 40.214 37.7697 39.8785 38.8843 39.8785L63.1257 39.8968C64.0454 39.8968 64.8413 40.104 65.4077 40.6815C65.9742 41.259 66.282 42.139 66.129 43.03L65.7064 45.4976C66.9467 45.9908 67.9539 47.0413 67.9575 48.4621L67.9703 51.8684V51.8629ZM34.2728 48.5135L34.6808 43.987C34.7446 43.2867 34.2255 42.5753 33.4678 42.568L26.1973 42.4855C25.7929 42.48 25.1336 42.7697 24.9023 43.0117C24.671 43.2537 24.5162 43.9778 24.5581 44.3665L25.0407 48.7995C25.3194 51.3533 27.2463 53.3113 29.7397 53.2398C32.233 53.1683 34.0306 51.1865 34.271 48.5135H34.2728ZM46.878 49.3843L47.4699 44.02C47.5518 43.2848 46.9363 42.5735 46.2005 42.5643L38.9262 42.4892C38.5419 42.4855 37.8754 42.777 37.6532 43.0153C37.4546 43.2262 37.3035 43.8568 37.3381 44.1942L37.7643 48.4126C38.0174 50.917 39.4599 52.9611 41.9623 53.2196C44.1861 53.4488 46.5993 51.9234 46.8798 49.3861L46.878 49.3843ZM12.8764 42.5607L8.53261 42.557C8.73841 43.965 8.9515 45.2703 9.27569 46.605C9.52339 47.6243 10.6854 48.0698 11.5122 47.8095C13.685 47.1256 12.2298 44.625 12.8764 42.5625V42.5607ZM22.1995 47.2301L21.9919 44.9367C21.9154 44.0988 21.9591 43.3215 22.1303 42.5533L16.5863 42.568C15.8159 42.5698 15.2677 43.283 15.3479 43.9925L15.7376 47.3951C15.9434 49.19 17.2147 50.5998 19.0323 50.5668C20.7207 50.5375 22.3762 49.1936 22.1995 47.2301ZM56.3414 47.3236L56.7129 44.0182C56.8003 43.2427 56.2539 42.5735 55.4253 42.5698L49.9013 42.5478C50.1016 43.3838 50.1563 44.119 50.0689 44.9513L49.8212 47.3053C49.9177 49.1918 51.2782 50.5521 53.0193 50.5815C54.8461 50.6126 56.1283 49.223 56.3432 47.3236H56.3414ZM62.8215 46.3703L63.5081 42.5497L59.1899 42.5698C59.7253 44.7533 58.4031 47.3255 60.6779 47.881C61.5011 48.0808 62.6212 47.4758 62.8197 46.3703H62.8215ZM65.0526 48.1505C63.5755 50.7061 60.636 51.3203 58.4322 49.7216C57.6782 51.5128 56.0809 52.7594 54.3944 53.1353C52.371 53.5844 50.506 53.0014 48.9907 51.6264C47.7795 54.3013 45.3117 55.8688 42.6417 55.9549C39.9261 56.0429 37.431 54.6258 36.0231 52.1214C34.5861 54.6734 32.0217 56.1016 29.2315 55.9476C26.6435 55.8046 24.2412 54.2481 23.0555 51.6301C21.5348 52.9923 19.6752 53.5808 17.6682 53.1279C15.9707 52.7448 14.3662 51.5238 13.614 49.7216C11.3665 51.3643 8.38872 50.6383 6.98087 48.1285C6.62754 48.8288 6.7095 49.5328 6.66397 50.224C6.38167 54.4021 9.47785 54.8916 12.5631 56.2794C27.5632 63.0279 44.625 63.0132 59.6088 56.2244C62.5319 54.9008 65.6208 54.3691 65.3768 50.4091C65.3294 49.6501 65.4624 48.8655 65.0526 48.1523V48.1505Z" fill="#2C4A3E"/>
<path d="M38.2384 34.4724C37.4898 34.4504 36.6903 33.926 36.1202 33.486C35.5065 33.9004 34.6741 34.4815 33.8345 34.487L26.207 34.5384C24.9393 34.5475 23.812 34.0434 22.9414 33.1799L16.647 33.1652C15.4741 33.1634 14.4323 32.6317 13.6346 31.836L8.55688 31.8397C7.68812 31.8397 6.83576 31.3484 6.39501 30.7544C5.83769 30.0045 5.82495 29.1539 5.97611 28.2501L6.31123 26.2334C5.10918 25.6504 4.14936 24.6861 4.08562 23.3129C3.99637 21.3366 3.9818 19.3768 4.12204 17.4096C4.2896 15.0648 5.43519 12.918 7.58067 11.9463C17.4775 7.46199 25.8992 4.85317 36.9307 5.00533C43.7441 5.09883 50.2916 6.16216 56.5787 8.70131L63.8511 11.6365C66.3099 12.6283 68.0164 14.9529 68 17.6864L67.9672 23.1204C67.9581 24.5174 67.1659 25.6522 65.7981 26.1711L66.0913 28.2116C66.2261 29.1429 66.2315 30.0174 65.6724 30.7507C65.137 31.4529 64.2828 31.8379 63.2938 31.8415L58.4237 31.858C57.6715 32.3989 56.7882 33.1634 55.7755 33.1579L49.1424 33.123C48.4212 33.9774 47.3849 34.4742 46.1938 34.5035C43.5128 34.5714 40.9339 34.5494 38.2402 34.4705L38.2384 34.4724ZM36.0783 22.3193C37.3441 20.0056 39.6481 18.5683 42.1432 18.4821C44.6384 18.3959 47.1518 19.6188 48.6161 21.9416C49.8782 20.4914 51.6157 19.7104 53.5372 19.8534C55.231 19.9781 56.9393 20.9094 57.9265 22.4274C59.1103 21.3659 60.4963 20.8636 62.1337 21.2449C63.2883 21.5126 64.2372 22.3321 65.2244 23.6374C65.4083 21.6794 65.3482 20.0166 65.3792 18.2401C65.4429 14.5973 62.3194 14.0234 59.6075 12.797C44.5874 5.99533 27.4582 5.99349 12.4399 12.8025C10.0339 13.8933 7.25283 14.4378 6.69734 17.318L6.68095 22.9958C6.74105 23.1278 6.94686 23.5604 7.05978 23.4999C7.1727 23.4394 7.29472 23.3056 7.41857 23.1223C8.98306 20.8086 12.1229 20.4291 14.2029 22.4293C15.3648 20.8324 16.973 19.9598 18.685 19.8516C20.5428 19.7343 22.2457 20.4603 23.5606 21.9471C24.9703 19.6958 27.3088 18.3941 29.9096 18.4803C32.4321 18.5646 34.7634 19.8956 36.0783 22.3229V22.3193ZM33.1024 31.8947C33.5395 31.8984 34.1969 31.561 34.4082 31.3135C34.5958 31.0917 34.747 30.472 34.7124 30.1329L34.2789 25.9126C34.0112 23.3056 32.3447 21.2064 29.7439 21.1423C27.2852 21.0818 25.3145 22.9958 25.0559 25.5422L24.5915 30.1329C24.4986 31.0605 25.0341 31.8415 26.0194 31.847L33.1024 31.8965V31.8947ZM46.0226 31.8397C47.017 31.8397 47.547 31.0587 47.4541 30.1329L46.9897 25.5404C46.7329 23.0049 44.7895 21.0854 42.3071 21.1404C39.8247 21.1954 38.0599 23.0618 37.8231 25.5496L37.3696 30.3327C37.2913 31.1595 37.8996 31.8397 38.7411 31.8397H46.0207H46.0226ZM16.658 30.4885L21.8796 30.505C22.0635 28.9101 22.242 27.4562 22.2384 25.9309C22.2347 23.9656 20.8251 22.4971 19.0384 22.4623C17.2517 22.4274 15.9313 23.8281 15.7273 25.6522L15.3485 29.0494C15.2811 29.7735 15.8111 30.4849 16.6561 30.4885H16.658ZM55.5042 30.461C56.3511 30.4555 56.7536 29.7002 56.7208 29.0237C56.5806 27.5479 56.4585 26.1161 56.1307 24.6861C55.7755 23.1314 54.151 22.2826 52.7012 22.4641C51.2515 22.6456 50.0276 23.7859 49.8764 25.4029C49.7252 27.0199 49.9656 28.7121 50.1259 30.4977L55.5042 30.461ZM12.6675 29.1576C13.1247 26.7302 13.1902 23.9912 11.1613 23.7767C10.2907 23.6851 9.36917 24.2497 9.19979 25.2581L8.54959 29.1429L12.6657 29.1576H12.6675ZM63.4978 29.1191L62.8239 25.1004C62.5234 24.1654 61.6492 23.6484 60.7331 23.8244C58.7151 24.2131 59.052 26.8952 59.4145 29.1539L63.4978 29.1191Z" fill="#2C4A3E"/>
</g>
</g>
<defs>
<clipPath id="clip0_71_4083">
<rect width="64" height="59" fill="white" transform="translate(4 5)"/>
</clipPath>
</defs>
</svg>
