<svg width="72" height="68" viewBox="0 0 72 68" fill="none" xmlns="http://www.w3.org/2000/svg">
<g clip-path="url(#clip0_71_3990)">
<mask id="mask0_71_3990" style="mask-type:luminance" maskUnits="userSpaceOnUse" x="3" y="4" width="66" height="59">
<path d="M69 4H3V63H69V4Z" fill="white"/>
</mask>
<g mask="url(#mask0_71_3990)">
<path d="M20.8838 49.4746C20.6623 49.6166 20.5064 49.7119 20.3562 49.8147C18.9929 50.7341 17.6128 50.736 16.257 49.8073C14.2647 48.4394 12.2761 47.0659 10.2876 45.6961C8.42668 44.4142 6.57332 43.1192 4.70306 41.8523C3.52006 41.0469 2.93607 39.9724 3.00555 38.5372C3.20835 34.3757 3.39988 30.2141 3.59329 26.0544C3.70784 23.5709 3.80924 21.0856 3.93317 18.6002C3.9557 18.1536 3.9895 17.692 4.12095 17.2697C4.59039 15.7692 5.79216 14.96 7.51972 14.9525C9.62846 14.9432 11.7372 14.9395 13.8459 14.96C14.2365 14.9637 14.3924 14.8367 14.475 14.4685C14.905 12.5775 15.5772 10.7761 16.6757 9.16152C18.2512 6.84809 20.3092 5.12329 23.0808 4.47299C24.3746 4.17027 25.7398 4.08244 27.0749 4.05628C29.2118 4.0133 31.3581 4.00582 33.4893 4.15905C36.199 4.35153 38.6326 5.38678 40.7732 7.05364C41.1901 7.37693 41.468 7.39748 41.8905 7.07046C44.3447 5.17562 47.137 4.17961 50.2447 4.06936C52.883 3.97592 55.5231 3.94042 58.1539 4.21512C61.7705 4.59259 64.3656 6.5491 66.2565 9.52218C67.6141 11.6581 68.2732 14.0481 68.6281 16.5316C68.9473 18.7534 69.0938 20.9847 68.9323 23.2252C68.7276 26.0768 68.0817 28.8369 67.1315 31.5315C66.4518 33.4544 65.6612 35.3324 64.5195 37.031C64.0276 37.7636 63.8867 38.5652 63.729 39.3856C62.8765 43.8069 62.0259 48.2282 61.1621 52.6477C60.7339 54.8415 60.3302 57.0428 59.8251 59.2198C59.3068 61.4548 57.2788 62.9815 54.9617 62.9946C53.4463 63.0039 51.9309 63.0002 50.4156 62.9946C48.012 62.9871 45.9972 61.4267 45.432 59.1096C44.4668 55.1573 43.5204 51.2032 42.5665 47.249C42.4125 46.6081 41.9018 46.1913 41.2633 46.1932C40.6681 46.1932 40.2925 46.5464 40.1291 47.2247C39.1771 51.1957 38.2307 55.1666 37.258 59.132C36.6966 61.423 34.6611 62.9871 32.2988 62.9964C30.8454 63.002 29.3939 62.9983 27.9405 62.9964C25.2328 62.9946 23.2461 61.3539 22.7222 58.7078C22.1213 55.6618 21.5091 52.6178 20.882 49.4746H20.8838ZM16.6063 14.9507C16.8654 14.9507 17.0475 14.9507 17.2297 14.9507C21.1824 14.9507 25.1351 14.9451 29.0878 14.9525C31.2585 14.9581 32.558 16.2008 32.6631 18.3535C32.8058 21.2724 32.941 24.1913 33.0743 27.1121C33.249 30.9485 33.4255 34.783 33.5851 38.6194C33.602 39.0324 33.5532 39.4585 33.4555 39.8602C33.2227 40.8301 32.5185 41.4355 31.7299 41.9756C28.8756 43.9321 26.0252 45.8961 23.1841 47.8713C23.0414 47.9703 22.8855 48.2245 22.9137 48.3721C23.5691 51.7413 24.2357 55.1068 24.9286 58.4686C25.2215 59.8925 26.3857 60.8045 27.8466 60.8157C29.2362 60.825 30.6276 60.8157 32.0172 60.8157C33.7409 60.8157 34.8188 59.9411 35.2169 58.2668C36.1558 54.3257 37.104 50.3847 38.0636 46.4492C38.426 44.9618 39.7705 43.99 41.3666 44.0106C42.8857 44.0311 44.3053 45.1299 44.6433 46.5333C45.6104 50.5323 46.5718 54.5332 47.5557 58.5284C47.9106 59.9729 49.0279 60.8119 50.5189 60.8175C51.9253 60.8232 53.3318 60.8175 54.7363 60.8175C56.3324 60.8138 57.4741 59.9075 57.7896 58.3434C58.4487 55.0863 59.0947 51.8273 59.7293 48.5664C60.3471 45.3953 60.9311 42.2185 61.5564 39.0511C61.7442 38.1018 61.8362 37.1394 62.4052 36.2705C64.8444 32.5425 66.1307 28.3959 66.6527 24.0101C66.9813 21.2444 66.7672 18.4844 66.2659 15.7505C65.8922 13.7155 65.2575 11.7702 64.005 10.0865C62.5178 8.08703 60.6457 6.61263 58.0656 6.43885C55.6696 6.27814 53.2623 6.27253 50.8606 6.2445C49.5574 6.22955 48.2712 6.4538 47.0487 6.90228C42.6998 8.49253 39.8963 11.5572 38.5762 15.9429C38.2626 16.9857 38.2119 18.1087 38.0711 19.1982C38.0091 19.6747 37.8739 20.0783 37.412 20.2988C37.0233 20.4838 36.6534 20.4297 36.3097 20.1792C35.9605 19.9251 35.8685 19.5645 35.8741 19.1533C35.9154 16.1466 36.8186 13.4109 38.5011 10.9274C38.918 10.3126 39.393 9.73894 39.8512 9.13349C39.808 9.08117 39.7761 9.02698 39.7292 8.99147C37.8026 7.49278 35.6488 6.52294 33.1964 6.32112C30.498 6.09875 27.7959 6.14733 25.0976 6.34541C23.6028 6.45566 22.2396 6.91162 21.0115 7.79551C18.9065 9.31102 17.6616 11.3927 16.9067 13.8127C16.7978 14.1621 16.7171 14.5209 16.6025 14.9544L16.6063 14.9507ZM18.3038 17.1333C14.7266 17.1333 11.1513 17.1314 7.57417 17.1333C6.56581 17.1333 6.16021 17.5332 6.12078 18.5367C6.102 19.0188 6.10012 19.5009 6.07759 19.9812C5.78653 26.1908 5.49923 32.4004 5.19691 38.6101C5.16687 39.2361 5.39032 39.6696 5.90483 40.0228C9.74863 42.6577 13.583 45.3037 17.4212 47.946C18.1273 48.4319 18.4991 48.43 19.2089 47.9404C23.0189 45.3149 26.8251 42.6782 30.6464 40.0695C31.2153 39.6808 31.4407 39.2324 31.4088 38.5522C31.1966 34.1738 31.0163 29.7955 30.8173 25.4172C30.7102 23.0421 30.5863 20.667 30.468 18.2919C30.4342 17.6098 30.0887 17.2398 29.407 17.1538C29.223 17.1296 29.0334 17.1314 28.8456 17.1314C25.3323 17.1314 21.8171 17.1314 18.3038 17.1314V17.1333Z" fill="#2C4A3E"/>
<path d="M50.1447 20.4263C50.1372 19.933 50.4038 19.6153 50.8151 19.391C51.7446 18.8827 52.6816 18.3857 53.5998 17.8587C53.8157 17.7354 54.0204 17.5354 54.1443 17.3205C54.6513 16.4479 55.1321 15.5584 55.6071 14.667C55.8437 14.2222 56.1705 13.9139 56.6962 13.9102C57.2201 13.9083 57.5506 14.1998 57.791 14.6502C58.2811 15.5696 58.7881 16.4796 59.3063 17.3822C59.4077 17.5597 59.573 17.7279 59.7514 17.8288C60.6734 18.352 61.6029 18.8585 62.5399 19.3555C62.9718 19.5854 63.2741 19.8993 63.2797 20.402C63.2853 20.9271 62.968 21.2466 62.5211 21.4821C61.6536 21.9399 60.7823 22.3959 59.9392 22.8986C59.65 23.0705 59.3796 23.3414 59.2068 23.6292C58.7036 24.4682 58.2473 25.3353 57.7816 26.1968C57.545 26.6359 57.2295 26.9592 56.6962 26.9555C56.1611 26.9517 55.8531 26.6116 55.6184 26.18C55.1283 25.2793 54.6476 24.3729 54.1368 23.4835C54.0204 23.2816 53.827 23.091 53.6223 22.9752C52.7022 22.4501 51.7652 21.953 50.8357 21.4485C50.4264 21.2261 50.1428 20.9215 50.1447 20.4244V20.4263ZM53.643 20.3796C53.6223 20.4263 53.6017 20.473 53.581 20.5197C55.1358 20.9906 56.1085 22.0446 56.715 23.5451C57.2821 21.9978 58.3186 21.0018 59.8565 20.4057C58.2773 19.8526 57.3084 18.7725 56.7469 17.2178C56.2925 17.9858 56.0221 18.7127 55.5226 19.2098C55.0138 19.7162 54.2777 19.9984 53.6411 20.3796H53.643Z" fill="#2C4A3E"/>
<path d="M18.3274 42.2407C12.2847 42.2576 7.38933 37.4009 7.35178 31.35C7.31422 25.3609 12.2471 20.4332 18.2917 20.4238C24.3325 20.4126 29.2616 25.3011 29.2785 31.3145C29.2936 37.3168 24.3757 42.2258 18.3274 42.2426V42.2407ZM9.55253 31.3388C9.55628 36.1638 13.4583 40.0469 18.3048 40.0488C23.1382 40.0488 27.0759 36.1507 27.0891 31.3482C27.1022 26.5513 23.1157 22.5878 18.2917 22.6009C13.4602 22.6139 9.55065 26.5251 9.5544 31.3407L9.55253 31.3388Z" fill="#2C4A3E"/>
<path d="M11.7324 31.3355C11.7324 30.6665 11.723 29.9994 11.7343 29.3304C11.7512 28.4764 12.1455 28.0858 13.0055 28.0672C13.505 28.0559 14.0064 28.0447 14.504 28.0709C14.8814 28.0914 15.0391 27.9831 15.0129 27.5813C14.9809 27.0861 14.9978 26.5872 15.0072 26.0901C15.0241 25.2249 15.4466 24.7932 16.3048 24.7876C17.6324 24.7783 18.9581 24.7801 20.2856 24.7876C21.1757 24.7932 21.5719 25.1894 21.5888 26.0658C21.5907 26.1742 21.5851 26.2844 21.5888 26.3928C21.6151 26.9291 21.6414 27.4654 21.6696 28.0017C22.1953 28.0242 22.7211 28.0466 23.2469 28.0672C23.3877 28.0728 23.5286 28.0653 23.6675 28.0709C24.4581 28.1045 24.8824 28.5026 24.8937 29.2949C24.9144 30.6459 24.9125 31.9989 24.8937 33.3499C24.8843 34.1721 24.4449 34.5907 23.5999 34.6169C23.0535 34.6337 22.5071 34.63 21.9606 34.6169C21.679 34.6113 21.5738 34.7178 21.5794 35C21.5945 35.5737 21.5945 36.1492 21.5794 36.7248C21.5588 37.4386 21.1532 37.8665 20.4396 37.8759C19.02 37.8946 17.5986 37.8946 16.1771 37.8759C15.4485 37.8665 15.0279 37.4106 15.0035 36.6407C14.9866 36.0969 14.9847 35.5531 15.0035 35.0093C15.0147 34.6954 14.8908 34.6038 14.5941 34.615C14.0796 34.6318 13.5632 34.6281 13.0487 34.615C12.1417 34.5945 11.738 34.189 11.7249 33.292C11.7155 32.6398 11.7249 31.9877 11.7249 31.3336L11.7324 31.3355ZM22.6967 32.4343C22.6967 31.7391 22.7117 31.1187 22.6817 30.5002C22.6779 30.4105 22.4639 30.2629 22.3418 30.2554C21.7804 30.2274 21.217 30.2535 20.6556 30.2386C20.1411 30.2255 19.6866 30.0648 19.5082 29.5285C19.4275 29.2837 19.4106 29.0108 19.4031 28.7492C19.3881 28.1643 19.3993 27.5794 19.3993 27.0057H17.1986C17.1986 27.6785 17.2042 28.3138 17.1986 28.9492C17.1873 29.8293 16.7986 30.2199 15.9086 30.2404C15.3621 30.2535 14.8157 30.2498 14.2674 30.2404C14.0308 30.2367 13.9275 30.3283 13.9313 30.5675C13.9406 31.0645 13.9444 31.5635 13.9313 32.0605C13.9237 32.3483 14.0477 32.4399 14.3237 32.4343C14.8852 32.4231 15.4485 32.4193 16.01 32.4361C16.8005 32.4604 17.1798 32.8435 17.1967 33.6265C17.2099 34.1852 17.2099 34.7458 17.1967 35.3064C17.1892 35.5849 17.2868 35.7007 17.5741 35.6933C18.0736 35.6783 18.5731 35.682 19.0745 35.6933C19.3148 35.697 19.4106 35.6036 19.405 35.3644C19.3937 34.8991 19.4012 34.4319 19.4031 33.9647C19.4031 32.7912 19.7599 32.4361 20.9354 32.4343C21.5081 32.4343 22.0808 32.4343 22.7023 32.4343H22.6967Z" fill="#2C4A3E"/>
</g>
</g>
<defs>
<clipPath id="clip0_71_3990">
<rect width="66" height="59" fill="white" transform="translate(3 4)"/>
</clipPath>
</defs>
</svg>
