<svg width="72" height="68" viewBox="0 0 72 68" fill="none" xmlns="http://www.w3.org/2000/svg">
<g clip-path="url(#clip0_71_4069)">
<mask id="mask0_71_4069" style="mask-type:luminance" maskUnits="userSpaceOnUse" x="0" y="3" width="72" height="61">
<path d="M72 3H0V64H72V3Z" fill="white"/>
</mask>
<g mask="url(#mask0_71_4069)">
<path d="M18.012 13.748L15.6112 13.7562L15.5948 11.358L13.2309 11.3396L13.2227 8.99455L15.5866 8.99046L15.5968 6.58203H18.0018L17.9997 8.99455L20.3882 8.98229L20.4169 11.3314L17.9997 11.3457L18.012 13.748Z" fill="#40584E"/>
<path d="M40.7918 7.77598C40.7918 10.4134 38.6472 12.552 36.0004 12.552C33.3535 12.552 31.209 10.4134 31.209 7.77598C31.209 5.13856 33.3535 3 36.0004 3C38.6472 3 40.7918 5.13856 40.7918 7.77598ZM38.4012 7.78006C38.4012 6.45727 37.3248 5.3839 35.9983 5.3839C34.6718 5.3839 33.5955 6.45727 33.5955 7.78006C33.5955 9.10286 34.6718 10.1762 35.9983 10.1762C37.3248 10.1762 38.4012 9.10286 38.4012 7.78006Z" fill="#40584E"/>
<path d="M52.8162 16.1586L50.4051 16.1709L50.3969 13.7768L47.9961 13.7359L48.0104 11.3541L50.3867 11.3561L50.4072 8.98242L52.8018 9.00082L52.8121 11.3397L55.1575 11.3684L55.1781 13.742L52.81 13.7522L52.8162 16.1586Z" fill="#40584E"/>
<path d="M33.5904 23.333C33.5904 25.3121 31.981 26.917 29.9964 26.917C28.0118 26.917 26.4023 25.3121 26.4023 23.333C26.4023 21.3539 28.0118 19.749 29.9964 19.749C31.981 19.749 33.5904 21.3539 33.5904 23.333ZM31.1958 23.3269C31.1958 22.6665 30.6586 22.1329 29.9984 22.1329C29.3383 22.1329 28.8011 22.6685 28.8011 23.3269C28.8011 23.9852 29.3383 24.5208 29.9984 24.5208C30.6586 24.5208 31.1958 23.9852 31.1958 23.3269Z" fill="#40584E"/>
<path d="M12.8201 35.6043C14.7473 34.1036 16.7565 33.2081 19.1758 32.9935L19.1943 26.954L21.593 26.9295L21.6053 32.9567C24.0287 33.2593 26.1015 34.1016 28.0021 35.6248L33.9457 29.6936L35.6146 31.3538L29.6812 37.2706C30.7371 38.6486 31.5038 40.0348 31.9856 41.9034L38.2594 41.288L38.5095 43.6495L32.3936 44.2608C32.4039 46.2255 32.0861 48.1167 31.2373 50.0017L33.958 50.9013L33.2301 53.1523L29.9559 52.1055L27.6945 54.4322H57.5848L57.6135 50.8155C55.8462 50.5272 54.2881 49.9936 52.7299 48.9938L48.8221 52.8763L47.1492 51.2162L50.9236 47.4563C49.5069 45.8657 48.4941 43.9643 48.1661 41.8482L43.3624 42.4534L43.0384 40.0981L47.9651 39.4848C48.1763 37.8839 48.5413 36.4201 49.2875 34.9378L43.6617 30.2497L45.1522 28.3974L50.6694 32.971L52.9124 31.0185L50.5423 26.2548L52.6745 25.1834L55.063 29.9758C56.7053 29.4176 58.2881 29.1907 60.164 29.3829L61.2014 23.1553L63.5572 23.5069L62.5054 29.9676C63.5202 30.4133 64.2665 30.8099 65.1748 31.4172L68.6766 27.3384L70.4931 28.8963L66.9277 33.0139C68.2891 34.6291 69.2035 36.5366 69.5192 38.8428L71.9877 38.8898V41.284L69.5172 41.2901C69.2014 43.627 68.2993 45.6633 66.6427 47.4175L69.2199 49.9977L67.5674 51.6721L64.8529 48.9979C63.3337 49.9506 61.8452 50.5067 60.0021 50.7868L59.9939 54.4281H70.776C71.4485 54.4302 71.9918 55.0619 71.9918 55.6998L71.9836 62.8719C71.9836 63.3585 71.4587 63.9964 70.8478 63.9964H1.14403C0.53511 63.9964 0.00820092 63.3585 0.00615069 62.8699L0 55.71C0 54.9351 0.637622 54.3709 1.42901 54.4281L13.1399 54.4342C11.7273 53.1626 10.53 51.8786 9.63198 50.1121L3.99795 51.9686L3.22911 49.7135L8.81599 47.8509C8.31369 45.9761 8.25628 44.2853 8.67248 42.4207L2.00923 39.998L2.83957 37.7756L9.3429 40.1227C9.94157 39.0595 10.4213 38.2867 11.0938 37.2931L5.15223 31.3497L6.84982 29.6486L12.8221 35.6002L12.8201 35.6043ZM60.0062 46.0763L59.9959 48.3539C63.6597 47.8141 66.5628 44.9702 67.0897 41.2983L64.8016 41.286L64.8078 38.8898L67.1225 38.8592C66.8129 37.291 66.3065 36.1522 65.3798 34.8662L63.2927 37.2583L61.5131 35.6963L63.6289 33.2245C61.4495 31.7218 58.8457 31.3047 56.1538 32.1164L57.468 34.7415L55.3173 35.8067L54.0133 33.1836C51.959 34.6618 50.7022 36.7697 50.4726 39.1536L52.6786 38.9307L52.9124 41.2696L50.5361 41.5661C51.2086 45.0806 53.9006 47.7794 57.5869 48.36L57.6258 46.0845L60.0062 46.0804V46.0763ZM29.9621 44.4959L26.5054 44.868L26.2983 42.4759L29.5971 42.1447C28.447 38.3746 25.3306 35.868 21.6115 35.3835L21.591 38.8673L19.1881 38.8612V35.3835C15.8278 35.7822 13.0477 37.9453 11.6289 40.9752L16.0062 42.5372L15.1902 44.7739L10.9585 43.2692C10.2184 47.4502 12.3629 51.5965 16.1169 53.4345C19.8708 55.2725 24.5823 54.5119 27.4464 51.3102L26.0297 50.7541L26.7863 48.5583L28.9882 49.2064C29.7099 47.624 30.0769 46.0783 29.9641 44.4979L29.9621 44.4959ZM69.5889 56.81H2.40902V61.5962H69.5889V56.81Z" fill="#40584E"/>
<path d="M71.9812 16.15C71.9812 18.7875 69.8367 20.926 67.1898 20.926C64.543 20.926 62.3984 18.7875 62.3984 16.15C62.3984 13.5126 64.543 11.374 67.1898 11.374C69.8367 11.374 71.9812 13.5126 71.9812 16.15ZM69.5968 16.1521C69.5968 14.8293 68.5225 13.758 67.196 13.758C65.8695 13.758 64.7952 14.8293 64.7952 16.1521C64.7952 17.4749 65.8695 18.5462 67.196 18.5462C68.5225 18.5462 69.5968 17.4749 69.5968 16.1521Z" fill="#40584E"/>
<path d="M7.18967 18.5418C7.18967 20.5189 5.58229 22.1218 3.59972 22.1218C1.61715 22.1218 0.00976562 20.5189 0.00976562 18.5418C0.00976562 16.5648 1.61715 14.9619 3.59972 14.9619C5.58229 14.9619 7.18967 16.5648 7.18967 18.5418ZM4.80321 18.5521C4.80321 17.8896 4.26399 17.354 3.60177 17.354C2.93955 17.354 2.40033 17.8896 2.40033 18.5521C2.40033 19.2145 2.93955 19.7501 3.60177 19.7501C4.26399 19.7501 4.80321 19.2145 4.80321 18.5521Z" fill="#40584E"/>
</g>
</g>
<defs>
<clipPath id="clip0_71_4069">
<rect width="72" height="61" fill="white" transform="translate(0 3)"/>
</clipPath>
</defs>
</svg>
