<svg width="72" height="68" viewBox="0 0 72 68" fill="none" xmlns="http://www.w3.org/2000/svg">
<g clip-path="url(#clip0_71_4106)">
<mask id="mask0_71_4106" style="mask-type:luminance" maskUnits="userSpaceOnUse" x="6" y="2" width="60" height="64">
<path d="M65.5 2H6.5V66H65.5V2Z" fill="white"/>
</mask>
<g mask="url(#mask0_71_4106)">
<path d="M64.3638 66C63.7879 66 63.2942 65.5707 63.2344 64.9859L61.5664 48.6713C61.1475 44.526 57.9462 41.158 53.7875 40.4918L43.817 38.8781L36.5393 42.8901C36.1952 43.0826 35.7763 43.0826 35.4323 42.8901L28.1545 38.8781L18.184 40.4918C14.0253 41.1654 10.8315 44.526 10.4126 48.6713L8.74462 64.9859C8.68478 65.6003 8.1238 66.0518 7.50299 65.9926C6.88217 65.9334 6.4259 65.3782 6.48574 64.7638L8.15372 48.4492C8.6773 43.2973 12.6565 39.1076 17.825 38.2785L28.1844 36.6056C28.4387 36.5686 28.693 36.6056 28.9174 36.7315L35.9858 40.6324L43.0541 36.7315C43.2785 36.6056 43.5328 36.5612 43.7871 36.6056L54.1465 38.2785C59.315 39.115 63.2867 43.2973 63.8178 48.4492L65.4858 64.7638C65.5456 65.3782 65.0968 65.9334 64.4685 65.9926C64.4311 65.9926 64.3937 65.9926 64.3563 65.9926L64.3638 66Z" fill="#40584E"/>
<path d="M28.3791 38.8261C28.2295 38.8261 28.0799 38.7965 27.9303 38.7373C27.3543 38.493 27.0851 37.8342 27.3319 37.2643L28.4314 34.7327C28.6782 34.1627 29.3439 33.8962 29.9199 34.1405C30.4958 34.3848 30.7651 35.0436 30.5182 35.6136L29.4187 38.1451C29.2317 38.5745 28.8129 38.8261 28.3716 38.8261H28.3791Z" fill="#40584E"/>
<path d="M43.6211 38.8261C43.1798 38.8261 42.761 38.5671 42.574 38.1451L41.4744 35.6136C41.2276 35.0436 41.4969 34.3848 42.0728 34.1405C42.6488 33.8962 43.3145 34.1627 43.5613 34.7327L44.6608 37.2643C44.9076 37.8342 44.6384 38.493 44.0624 38.7373C43.9203 38.7965 43.7632 38.8261 43.6136 38.8261H43.6211Z" fill="#40584E"/>
<path d="M36.0001 34.2074C29.9266 34.2074 26.1793 28.715 24.7282 23.7998C23.0453 22.919 22.9331 21.1498 22.8882 20.4392L22.776 18.7219C22.6713 17.0638 23.1425 15.8646 24.1747 15.1466C24.1074 12.8075 24.257 6.10847 27.8847 4.36894C27.952 4.32452 27.9894 4.2357 28.0193 4.17648C28.5429 3.08834 29.3656 2.42955 32.2005 2.11125C35.7084 1.71893 40.832 2.41474 43.3976 4.49477L43.4948 4.5762C45.1553 5.91601 47.8929 8.12929 47.8106 15.1392C48.8503 15.8498 49.3215 17.049 49.2168 18.7219L49.1046 20.4392C49.0597 21.135 48.9475 22.8598 47.3618 23.7554C45.9781 28.9074 42.313 34.2148 35.9927 34.2148L36.0001 34.2074ZM34.2424 4.2431C33.6216 4.2431 33.0157 4.27271 32.4548 4.33933C30.3305 4.5762 30.1734 4.9167 30.0613 5.13877C29.9042 5.46447 29.6424 6.01224 28.872 6.38235C26.7552 7.40387 26.269 12.652 26.4635 15.724C26.4934 16.2051 26.2092 16.6567 25.7529 16.8417C25.3266 17.012 24.9526 17.271 25.0349 18.5812L25.1471 20.2986C25.2219 21.4459 25.4986 21.742 26.0297 21.9197C26.3962 22.0381 26.6729 22.3342 26.7702 22.7043C27.8996 26.9828 30.9962 31.972 36.0001 31.972C42.5673 31.972 44.7739 24.8806 45.2974 22.7043C45.3872 22.3342 45.6565 22.0307 46.023 21.9049C46.5241 21.7272 46.7784 21.4459 46.8532 20.306L46.9654 18.5887C47.0477 17.2784 46.6737 17.0194 46.2474 16.8491C45.8061 16.6715 45.5218 16.2421 45.5368 15.7684C45.7761 9.32105 43.5472 7.5223 42.0662 6.32313L41.969 6.24171C40.3234 4.9093 37.0697 4.2579 34.2499 4.2579L34.2424 4.2431Z" fill="#40584E"/>
<path d="M46.2789 11.9855C45.7628 11.9855 45.2991 11.6376 45.1719 11.1195C45.0523 10.6013 44.768 10.2386 44.2968 9.97213C42.7859 9.12087 39.4724 9.35034 35.4408 10.6013C31.7309 11.7487 28.9634 11.682 27.2206 10.4089C25.8668 9.42436 25.5078 7.93651 25.5078 7.21108C25.5078 6.58929 26.0164 6.08594 26.6447 6.08594C27.2655 6.08594 27.7741 6.58189 27.7816 7.19628C27.7816 7.2555 27.834 8.07715 28.6044 8.61751C29.7188 9.40215 31.9104 9.34294 34.7751 8.45467C37.5351 7.6034 42.584 6.41164 45.4337 8.01793C46.451 8.58791 47.1241 9.48358 47.3934 10.6013C47.5355 11.2083 47.1615 11.8079 46.5482 11.9559C46.4584 11.9781 46.3687 11.9855 46.2864 11.9855H46.2789Z" fill="#40584E"/>
<path d="M21.7519 53.2534C21.161 53.2534 20.6598 52.8019 20.6224 52.2097C19.9941 43.0087 23.5919 37.9381 23.7415 37.7235C24.108 37.2201 24.8186 37.1017 25.3272 37.4644C25.8358 37.8271 25.9555 38.5229 25.589 39.0263C25.5441 39.0929 22.3203 43.7267 22.8888 52.0469C22.9337 52.6687 22.4624 53.2016 21.8341 53.246C21.8117 53.246 21.7818 53.246 21.7593 53.246L21.7519 53.2534Z" fill="#40584E"/>
<path d="M50.084 49.4261H50.069C49.4407 49.4187 48.9396 48.9079 48.9471 48.2862C49.0219 42.3643 46.8004 39.0407 46.7779 39.0111C46.4264 38.5004 46.561 37.7971 47.0771 37.4492C47.5932 37.1013 48.2963 37.2272 48.6479 37.7379C48.7526 37.8934 51.3032 41.6315 51.2134 48.3158C51.2059 48.9302 50.6973 49.4261 50.0765 49.4261H50.084Z" fill="#40584E"/>
<path d="M21.7594 62.5658C19.5305 62.5658 17.7129 60.7671 17.7129 58.5612C17.7129 56.3553 19.5305 54.5566 21.7594 54.5566C23.9884 54.5566 25.806 56.3553 25.806 58.5612C25.806 60.7671 23.9884 62.5658 21.7594 62.5658ZM21.7594 56.8142C20.7796 56.8142 19.9867 57.5989 19.9867 58.5686C19.9867 59.5383 20.7796 60.3229 21.7594 60.3229C22.7393 60.3229 23.5321 59.5383 23.5321 58.5686C23.5321 57.5989 22.7393 56.8142 21.7594 56.8142Z" fill="#40584E"/>
<path d="M45.8812 63.2017H44.0785C43.6896 63.2017 43.3231 63.0019 43.1211 62.6762C42.059 61.0033 41.498 59.0269 41.498 56.9542C41.498 51.5654 45.3576 47.1758 50.0922 47.1758C54.8269 47.1758 58.6864 51.558 58.6864 56.9542C58.6864 58.8862 58.1928 60.7516 57.2578 62.3505C57.0559 62.6984 56.6819 62.913 56.278 62.913H54.5053C53.877 62.913 53.3684 62.4097 53.3684 61.7879C53.3684 61.1661 53.877 60.6628 54.5053 60.6628H55.5898C56.1284 59.5376 56.4126 58.2644 56.4126 56.9468C56.4126 52.7941 53.5778 49.4187 50.0848 49.4187C46.5917 49.4187 43.7569 52.7941 43.7569 56.9468C43.7569 58.3829 44.0935 59.7523 44.7293 60.944H45.8812C46.5095 60.944 47.0181 61.4474 47.0181 62.0692C47.0181 62.691 46.5095 63.1943 45.8812 63.1943V63.2017Z" fill="#40584E"/>
</g>
</g>
<defs>
<clipPath id="clip0_71_4106">
<rect width="59" height="64" fill="white" transform="translate(6.5 2)"/>
</clipPath>
</defs>
</svg>
