<svg width="72" height="68" viewBox="0 0 72 68" fill="none" xmlns="http://www.w3.org/2000/svg">
<g clip-path="url(#clip0_71_4001)">
<mask id="mask0_71_4001" style="mask-type:luminance" maskUnits="userSpaceOnUse" x="9" y="2" width="54" height="64">
<path d="M63 2H9V66H63V2Z" fill="white"/>
</mask>
<g mask="url(#mask0_71_4001)">
<path d="M59.9752 16.9034C59.9343 19.6901 59.5065 22.4188 58.7343 25.0895C57.9382 27.8438 56.7757 30.4445 55.2586 32.8743C54.8018 33.6052 54.7199 34.4231 54.5359 35.2154C53.7926 38.3915 53.0904 41.5779 52.371 44.7608C51.8051 47.2641 51.2221 49.7657 50.6681 52.2707C50.1908 54.424 48.418 55.9505 46.2515 56.0308C43.9776 56.1162 41.9764 54.5179 41.5485 52.1734C41.0303 49.3405 40.5905 46.4923 40.1132 43.6509C39.5763 40.4457 39.0496 37.2389 38.4888 34.0389C38.2825 32.8641 37.2154 32.0342 36.0205 32.0274C34.8733 32.0206 33.7875 32.8624 33.5761 34.0167C33.1994 36.0675 32.8721 38.1286 32.5261 40.1862C32.1476 42.4402 31.7709 44.6925 31.3942 46.9465C31.1044 48.6814 30.8334 50.4214 30.5215 52.1529C30.0868 54.5623 28.014 56.1896 25.6276 56.0291C23.5889 55.8908 21.8672 54.3693 21.3984 52.3032C20.3569 47.7098 19.312 43.1198 18.2688 38.5264C17.9142 36.964 17.5682 35.3981 17.2034 33.8374C17.1403 33.5676 17.033 33.2944 16.8898 33.0588C15.3318 30.5179 14.0942 27.8319 13.288 24.9597C12.3828 21.7409 11.8834 18.4573 12.1425 15.1121C12.4271 11.417 13.9868 8.30063 16.6989 5.77854C18.6745 3.92923 21.0217 2.77833 23.6639 2.26434C25.7793 1.85282 27.9015 1.91088 29.9794 2.51536C31.1607 2.85858 32.3028 3.3367 33.4875 3.66285C35.4682 4.20927 37.4404 4.08291 39.3888 3.43574C40.5701 3.043 41.736 2.54951 42.9497 2.32069C47.5334 1.45154 51.6329 2.5478 55.1734 5.61632C57.1729 7.34951 58.5382 9.51301 59.3377 12.0317C59.8406 13.6146 60.0298 15.2453 59.9752 16.9034ZM14.0448 16.8095C14.1283 17.8716 14.1658 18.9388 14.3022 19.9924C14.8238 24.024 16.1022 27.8011 18.1802 31.3034C18.5671 31.9557 19.0427 32.5704 19.1705 33.3593C19.2711 33.974 19.4262 34.5802 19.5643 35.1881C20.524 39.4212 21.4854 43.6543 22.4468 47.8857C22.757 49.2551 23.0502 50.6297 23.3877 51.9924C23.6945 53.2253 24.8417 54.0825 26.0418 54.0346C27.2861 53.9834 28.3021 53.0921 28.5424 51.8182C28.6873 51.0515 28.81 50.2797 28.9396 49.5113C29.3504 47.0472 29.7561 44.5832 30.1686 42.1192C30.6374 39.3204 31.0823 36.5166 31.5885 33.723C32.0505 31.1719 34.5665 29.5224 37.0654 30.1559C38.9149 30.6255 40.0826 31.8515 40.4661 33.7418C40.7201 34.9934 40.9025 36.2588 41.1138 37.5172C41.5229 39.9523 41.9286 42.389 42.336 44.824C42.7332 47.2043 43.1133 49.5864 43.5344 51.9616C43.7577 53.2218 45.1094 54.161 46.3793 54.0039C47.6288 53.8502 48.4624 53.0152 48.7675 51.6355C49.2073 49.641 49.6556 47.6483 50.1056 45.6556C50.9528 41.9057 51.7949 38.1559 52.6625 34.4112C52.8466 33.6188 52.9438 32.8043 53.4023 32.0752C56.4126 27.2871 57.9433 22.0517 57.9825 16.3911C57.9877 15.5441 57.9075 14.6818 57.7405 13.8519C57.253 11.4409 56.1314 9.34737 54.3927 7.60394C52.6079 5.81439 50.4533 4.69422 47.9834 4.22635C45.5833 3.77042 43.2463 4.05217 40.9826 4.97939C39.6104 5.54118 38.187 5.89636 36.7006 5.98174C34.6483 6.09956 32.7119 5.63681 30.8164 4.8906C27.9441 3.76018 25.0412 3.72261 22.1365 4.77448C17.1284 6.58793 13.8607 11.4767 14.0499 16.8077L14.0448 16.8095Z" fill="#2C4A3E"/>
<path d="M36.0213 65.9997C31.9166 65.9997 28.2398 65.6651 25.1409 65.2126C15.3888 63.7867 9.25569 60.9846 9 60.8651L9.92901 58.8501L9.46365 59.8576L9.9273 58.8501C9.98696 58.8774 16.0826 61.6557 25.5397 63.0286C34.2434 64.2905 47.6654 64.5859 62.1818 58.8262L62.9983 60.8907C53.1662 64.7925 43.8216 66.0015 36.0196 66.0015L36.0213 65.9997Z" fill="#2C4A3E"/>
</g>
</g>
<defs>
<clipPath id="clip0_71_4001">
<rect width="54" height="64" fill="white" transform="translate(9 2)"/>
</clipPath>
</defs>
</svg>
