<svg width="72" height="68" viewBox="0 0 72 68" fill="none" xmlns="http://www.w3.org/2000/svg">
<g clip-path="url(#clip0_71_4139)">
<mask id="mask0_71_4139" style="mask-type:luminance" maskUnits="userSpaceOnUse" x="5" y="3" width="62" height="62">
<path d="M67 3H5V65H67V3Z" fill="white"/>
</mask>
<g mask="url(#mask0_71_4139)">
<path d="M44.4796 49.5031C44.6648 50.5332 44.8376 51.5103 45.014 52.4857C45.3632 54.4188 45.7195 56.3502 46.0564 58.2851C46.1199 58.652 46.231 58.8372 46.6649 58.8249C47.8679 58.7914 49.0725 58.8002 50.2755 58.8196C52.004 58.8496 53.2881 60.1795 53.3163 61.9362C53.341 63.5113 51.9687 64.9189 50.3301 64.9947C50.2137 65 50.0956 64.9982 49.9774 64.9982C40.6433 64.9982 31.3074 64.9982 21.9732 64.9982C20.5022 64.9982 19.4474 64.3086 18.9042 63.0016C18.1193 61.1143 19.5497 58.8778 21.5975 58.8249C22.8745 58.7931 24.1515 58.8055 25.4286 58.8178C25.7108 58.8196 25.8607 58.7455 25.9118 58.4545C26.4392 55.4983 26.9737 52.5421 27.5222 49.5013C27.3141 49.5013 27.1342 49.5013 26.9543 49.5013C20.7315 49.5013 14.5088 49.5031 8.28423 49.5013C6.65623 49.5013 5.48681 48.6141 5.08643 47.0778C5.02117 46.8256 5.00529 46.5557 5.00529 46.2947C5 32.9391 5 19.5817 5 6.22602C5 4.35285 6.34756 3 8.21721 3C26.7408 3 45.2627 3 63.7863 3C65.6524 3 67 4.35285 67 6.22602C67 19.5534 67 32.8809 67 46.2065C67 48.1696 65.6807 49.4978 63.7158 49.4996C57.493 49.5048 51.2703 49.5013 45.0457 49.5013H44.4796V49.5031ZM36.045 5.05661C29.3372 5.05661 22.6294 5.05661 15.9216 5.05661C15.5229 5.05661 15.3236 5.25592 15.3236 5.65455C15.3236 16.6184 15.3236 27.5823 15.3236 38.5462C15.3236 38.9649 15.5294 39.1742 15.941 39.1742C29.3125 39.1742 42.6822 39.1742 56.0537 39.1742C56.4665 39.1742 56.6734 38.9654 56.6746 38.548C56.6746 27.5841 56.6746 16.6202 56.6746 5.65631C56.6746 5.25651 56.4759 5.05602 56.0784 5.05485C49.4006 5.05485 42.7228 5.05485 36.0432 5.05485L36.045 5.05661ZM35.9903 47.4429C45.178 47.4429 54.3658 47.4429 63.5535 47.4429C64.5589 47.4429 64.9416 47.0602 64.9434 46.0583C64.9451 44.6649 64.9434 43.2697 64.9434 41.8763C64.9434 41.4518 64.7288 41.2396 64.2996 41.2396C45.4408 41.2396 26.5803 41.2396 7.72157 41.2396C7.6034 41.2396 7.48698 41.2466 7.36881 41.2396C7.1448 41.2255 7.05485 41.3207 7.05485 41.5483C7.0619 43.148 7.04779 44.7478 7.0672 46.3476C7.07249 46.8168 7.28944 47.2119 7.77801 47.3512C8.02671 47.4218 8.29834 47.4412 8.55939 47.4412C17.703 47.4447 26.8467 47.4447 35.9903 47.4447V47.4429ZM13.2617 22.1551C13.2617 16.6802 13.2617 11.2053 13.2617 5.73039C13.2617 4.97195 13.3323 5.06014 12.5686 5.05838C11.2034 5.05485 9.83816 5.05661 8.47296 5.05838C7.4376 5.05838 7.06014 5.43407 7.05838 6.46238C7.05838 8.81002 7.05838 11.1594 7.05838 13.5071C7.05838 21.8588 7.05838 30.2104 7.05838 38.5621C7.05838 38.9713 7.26768 39.1759 7.6863 39.1759C9.34429 39.1759 11.004 39.1759 12.662 39.1759C13.0618 39.1759 13.2623 38.9772 13.2635 38.5798C13.2635 33.1049 13.2635 27.63 13.2635 22.1551H13.2617ZM58.7383 22.0669C58.7383 27.6 58.7418 33.1331 58.7295 38.6679C58.7295 39.0719 58.8423 39.1918 59.2498 39.1865C60.966 39.1653 62.6839 39.1653 64.4019 39.1865C64.8182 39.1918 64.9504 39.086 64.9504 38.6521C64.9381 27.9087 64.9416 17.1635 64.9399 6.42004C64.9399 5.44994 64.5465 5.0619 63.5711 5.06014C62.1618 5.05838 60.7526 5.06014 59.3433 5.06014C58.9388 5.06014 58.7365 5.27003 58.7365 5.68982C58.7365 11.1506 58.7365 16.6096 58.7365 22.0704L58.7383 22.0669ZM27.9543 58.8143C28.1942 58.8143 28.3653 58.8143 28.5364 58.8143C30.6636 58.8143 32.7925 58.8108 34.9197 58.8196C35.5211 58.8231 35.9515 59.2235 35.9921 59.7703C36.0309 60.2906 35.6252 60.7668 35.0467 60.855C34.8738 60.8815 34.6957 60.8727 34.5193 60.8727C30.3955 60.8727 26.2734 60.8727 22.1496 60.8727C21.9891 60.8727 21.8251 60.8603 21.6663 60.8815C21.2536 60.9362 20.9679 61.1584 20.8197 61.5535C20.6751 61.9362 20.7685 62.2696 21.0225 62.5712C21.31 62.9116 21.6998 62.9399 22.1055 62.9399C31.3638 62.9399 40.6239 62.9399 49.8821 62.9363C50.085 62.9363 50.3196 62.9557 50.4854 62.8658C50.7288 62.7335 51.0004 62.5518 51.1239 62.319C51.4978 61.6117 50.9739 60.8744 50.1203 60.8727C47.2593 60.8674 44.3967 60.8727 41.5357 60.8656C41.3047 60.8656 41.0666 60.8391 40.8426 60.7809C40.4281 60.6716 40.2129 60.3541 40.1547 59.952C40.0965 59.5586 40.2446 59.2076 40.5868 59.0118C40.8038 58.8884 41.0789 58.8249 41.3311 58.8178C42.2078 58.7949 43.0844 58.809 44.0104 58.809C43.9963 58.5973 43.9998 58.4386 43.9716 58.2851C43.4565 55.4595 42.9327 52.6356 42.4247 49.8082C42.3806 49.5631 42.2871 49.496 42.0561 49.496C38.0205 49.4996 33.9848 49.5013 29.951 49.496C29.6952 49.496 29.6088 49.5789 29.5629 49.8364C29.1449 52.1876 28.704 54.537 28.2754 56.8864C28.1625 57.502 28.0672 58.1211 27.9526 58.809L27.9543 58.8143Z" fill="#2C4A3E"/>
<path d="M35.9359 29.4554C35.7189 30.2843 35.5002 31.1116 35.285 31.9406C35.1122 32.6073 34.9499 33.2758 34.7682 33.9407C34.4243 35.2036 33.3731 36.0273 32.0608 36.0556C31.4593 36.0679 30.8579 36.0609 30.2564 36.0573C28.7289 36.0485 27.6759 35.1825 27.3884 33.6744C26.8681 30.9546 26.3689 28.2295 25.8345 25.5132C25.7428 25.0511 25.5611 24.5907 25.3424 24.1727C24.3441 22.2766 23.7532 20.2711 23.6403 18.1299C23.605 17.4667 23.6121 17.4667 22.9401 17.4667C22.1763 17.4667 21.4144 17.4579 20.6506 17.4684C20.1815 17.4755 19.8287 17.2938 19.5712 16.9093C18.9292 15.9463 18.2801 14.985 17.6469 14.0149C17.3188 13.5122 17.3505 13.0024 17.6962 12.6373C18.0208 12.2933 18.5429 12.1981 18.9397 12.4539C19.1302 12.5773 19.2907 12.7643 19.4213 12.953C19.9045 13.6533 20.3808 14.3571 20.8358 15.0767C20.9911 15.3201 21.1674 15.4101 21.4461 15.4012C21.9894 15.3836 22.5344 15.3677 23.0741 15.4065C23.4886 15.4365 23.6033 15.2531 23.6527 14.888C23.8008 13.7715 24.1465 12.7131 24.7586 11.7642C25.7128 10.2826 27.0304 9.37422 28.8418 9.31955C30.2035 9.27898 31.5669 9.20313 32.9251 9.25076C33.8528 9.28427 34.7242 9.64409 35.4791 10.2103C35.7542 10.4166 35.9818 10.3902 36.2798 10.2385C37.6027 9.56648 38.9961 9.13434 40.4989 9.17668C41.5395 9.2049 42.5837 9.20666 43.6156 9.32131C45.2859 9.50827 46.4782 10.4925 47.309 11.8806C48.526 13.9161 48.713 16.1826 48.519 18.4773C48.3355 20.6521 47.6441 22.6823 46.5135 24.5625C46.3283 24.8712 46.3019 25.2769 46.1996 25.6473C46.3177 25.6896 46.3706 25.7231 46.4236 25.7231C47.7888 25.7284 49.1522 25.739 50.5174 25.7161C50.6814 25.7125 50.8878 25.5591 50.9971 25.4162C51.5563 24.6825 52.0907 23.9275 52.6357 23.1797C52.9038 22.8128 53.2495 22.5782 53.7205 22.6523C54.4154 22.7599 54.7876 23.4919 54.4525 24.1321C54.2567 24.5061 53.9833 24.8394 53.7364 25.1834C53.2742 25.8272 52.7927 26.4569 52.3447 27.1077C52.0061 27.598 51.5651 27.8203 50.9707 27.815C49.3868 27.8009 47.8011 27.8203 46.2172 27.8027C45.8979 27.7991 45.7815 27.9102 45.7251 28.2048C45.3953 29.9475 45.0337 31.6831 44.7197 33.4275C44.4093 35.1454 43.3704 36.0538 41.6348 36.0556C41.0774 36.0556 40.5201 36.0644 39.9627 36.0538C38.5799 36.0291 37.5516 35.186 37.2094 33.8367C36.839 32.3762 36.4492 30.9211 36.0682 29.4624C36.0241 29.4589 35.98 29.4571 35.9359 29.4536V29.4554ZM25.7163 17.4649C25.7057 17.6378 25.6916 17.7401 25.6969 17.8406C25.8045 19.8337 26.3354 21.7051 27.3285 23.4407C27.429 23.6171 27.5401 23.8005 27.5772 23.9946C27.9317 25.7919 28.2703 27.5928 28.6143 29.3919C28.863 30.6865 29.1064 31.9829 29.3657 33.2758C29.4715 33.7979 29.7308 33.9919 30.2582 33.9954C30.7873 33.999 31.3147 33.9972 31.8438 33.9954C32.4347 33.9937 32.6605 33.8243 32.8122 33.2511C32.9956 32.5561 33.1614 31.8577 33.3484 31.1645C33.6623 30.0057 33.9428 28.8363 34.322 27.6986C34.5848 26.9102 35.4632 26.4904 36.2851 26.6297C37.2835 26.799 37.7121 27.4993 37.9378 28.4024C38.3488 30.0357 38.7739 31.6672 39.2007 33.297C39.3418 33.8349 39.5588 33.9919 40.1091 33.9954C40.6224 33.999 41.1356 33.9954 41.6507 33.9954C42.3015 33.9954 42.5361 33.7908 42.6613 33.1488C42.8889 31.9829 43.1252 30.8205 43.351 29.6547C43.4674 29.0585 43.5697 28.4623 43.6896 27.8079C42.8695 27.8079 42.1234 27.8115 41.3773 27.8079C40.9504 27.8044 40.5606 27.7056 40.3119 27.3123C39.8639 26.605 40.3331 25.7778 41.2291 25.7425C42.0352 25.7108 42.843 25.7143 43.6508 25.7425C44.0071 25.7549 44.1235 25.6226 44.1923 25.2927C44.314 24.7248 44.3916 24.111 44.6721 23.6224C45.3212 22.4918 45.7904 21.3083 46.1361 20.0595C46.6493 18.204 46.6282 16.3449 46.1837 14.4911C45.7921 12.8525 44.7515 11.3462 42.8201 11.2968C40.6418 11.2403 38.4158 11.0428 36.6079 12.6814C36.5973 12.6902 36.5832 12.6973 36.5691 12.7026C35.9041 12.9336 35.5725 13.484 35.4067 14.0943C35.1969 14.865 35.0893 15.6641 34.957 16.4542C34.8494 17.0927 34.4508 17.4755 33.8793 17.4455C33.2955 17.4155 32.8474 16.9552 32.9198 16.3078C33.0238 15.3818 33.1702 14.4523 33.4048 13.5528C33.5565 12.9724 33.9004 12.4433 34.1862 11.8259C33.814 11.676 33.4313 11.4097 33.0344 11.385C31.8527 11.3109 30.6656 11.3021 29.4821 11.3285C28.9494 11.3409 28.3585 11.3744 27.8999 11.609C26.4113 12.3674 25.8892 13.7591 25.6599 15.3977C25.9192 15.3977 26.1326 15.3942 26.346 15.3977C27.2103 15.4118 28.0781 15.3924 28.9388 15.4542C29.4292 15.4894 29.7184 15.8616 29.7784 16.3378C29.8278 16.7294 29.595 17.1862 29.2069 17.3379C28.9688 17.4314 28.6937 17.4579 28.4344 17.4614C27.5419 17.4755 26.6494 17.4667 25.711 17.4667L25.7163 17.4649Z" fill="#2C4A3E"/>
<path d="M18.9504 36.0501C18.76 36.0501 18.5695 36.0642 18.3807 36.0484C17.8145 36.0007 17.4212 35.5862 17.4142 35.0448C17.4071 34.535 17.7793 34.0782 18.3137 34.0217C18.7335 33.9776 19.1639 33.9794 19.5837 34.0217C20.1075 34.0747 20.4991 34.5474 20.4938 35.0412C20.4885 35.5616 20.0722 35.999 19.5219 36.0466C19.3332 36.0625 19.1427 36.0484 18.9522 36.0501H18.9504Z" fill="#2C4A3E"/>
<path d="M24.1143 36.0505C23.9238 36.0505 23.7333 36.0647 23.5446 36.0488C22.9872 36.0012 22.5815 35.5743 22.5762 35.0434C22.5709 34.5442 22.9554 34.0768 23.4828 34.0239C23.9026 33.9816 24.333 33.9816 24.751 34.0239C25.289 34.0804 25.6594 34.5337 25.6506 35.0452C25.6435 35.5814 25.2431 36.0012 24.684 36.0488C24.4953 36.0647 24.3048 36.0505 24.1143 36.0505Z" fill="#2C4A3E"/>
<path d="M36.0102 45.372C35.3364 45.372 34.6626 45.3878 33.9906 45.3667C33.4191 45.349 33.0523 45.0368 32.9464 44.5394C32.8494 44.0844 33.0434 43.6434 33.4667 43.4388C33.6308 43.3594 33.8301 43.3206 34.0153 43.3206C35.3329 43.3101 36.6504 43.3083 37.9662 43.3171C38.6294 43.3224 39.0616 43.7175 39.0845 44.3031C39.1074 44.894 38.6577 45.3473 37.9857 45.3684C37.3277 45.3896 36.6681 45.3737 36.0102 45.372Z" fill="#2C4A3E"/>
<path d="M34.9774 21.0967C34.9615 21.3225 34.9633 21.5429 34.928 21.7581C34.8469 22.2537 34.4465 22.603 33.9685 22.6206C33.4923 22.6383 33.0249 22.3155 32.9649 21.8251C32.9049 21.3383 32.9049 20.8339 32.9649 20.3471C33.0249 19.8461 33.4694 19.5375 33.965 19.5533C34.4571 19.5675 34.8487 19.9026 34.9298 20.4053C34.9668 20.6346 34.9651 20.8709 34.9792 21.0967H34.9774Z" fill="#2C4A3E"/>
</g>
</g>
<defs>
<clipPath id="clip0_71_4139">
<rect width="62" height="62" fill="white" transform="translate(5 3)"/>
</clipPath>
</defs>
</svg>
