<svg width="72" height="68" viewBox="0 0 72 68" fill="none" xmlns="http://www.w3.org/2000/svg">
<g clip-path="url(#clip0_71_4092)">
<mask id="mask0_71_4092" style="mask-type:luminance" maskUnits="userSpaceOnUse" x="10" y="6" width="52" height="56">
<path d="M62 6H10V62H62V6Z" fill="white"/>
</mask>
<g mask="url(#mask0_71_4092)">
<path d="M54.3113 34.6106H17.5276C16.0921 34.6106 14.8036 33.8063 14.3275 32.6092C13.6623 30.9508 12.913 29.2363 12.0867 27.5155C10.5952 24.4044 9.7339 19.8905 10.077 17.0225C10.7492 11.3552 16.2251 6.75402 23.0945 6.08691C28.0172 5.60684 32.7509 7.09069 35.993 10.0833C39.2421 7.09693 43.9688 5.60684 48.8915 6.08691C55.5228 6.72908 60.9776 11.1432 61.8599 16.5861C62.3571 19.6785 61.4608 24.367 59.7312 27.7337C58.9469 29.2612 58.1977 30.9072 57.5114 32.6155C57.0353 33.8125 55.7468 34.6168 54.3113 34.6168V34.6106ZM24.9082 7.89497C24.383 7.89497 23.8578 7.9199 23.3256 7.96978C17.4436 8.54337 12.7589 12.4338 12.1847 17.222C11.9187 19.454 12.5419 23.6375 14.0404 26.7736C14.8807 28.5318 15.651 30.2837 16.3302 31.9795C16.5052 32.4222 16.9884 32.7215 17.5276 32.7215H54.3113C54.8505 32.7215 55.3337 32.4222 55.5087 31.9795C56.216 30.2151 56.9793 28.5193 57.7985 26.9419C59.3531 23.9243 60.1934 19.585 59.7592 16.8542C59.017 12.2593 54.3533 8.51843 48.6674 7.96978C44.0248 7.52088 39.5992 9.06709 36.8263 12.1096C36.6232 12.3278 36.3221 12.4588 36 12.4588C35.6779 12.4588 35.3768 12.3278 35.1737 12.1096C32.7159 9.41623 28.9626 7.89497 24.9152 7.89497H24.9082Z" fill="#40584E"/>
<path d="M33.2484 16.718C33.1364 16.718 33.0173 16.6993 32.9053 16.6681C32.3521 16.4997 32.051 15.9636 32.2401 15.4648C33.2064 12.946 35.111 10.9696 35.1951 10.8885C35.5802 10.4957 36.2524 10.4521 36.6936 10.795C37.1347 11.1379 37.1838 11.7364 36.7986 12.1292C36.7566 12.1729 35.069 13.931 34.2497 16.0758C34.0957 16.4686 33.6896 16.718 33.2414 16.718H33.2484Z" fill="#40584E"/>
<path d="M49.2072 41.1698H22.787C22.1988 41.1698 21.7227 40.7458 21.7227 40.2221C21.7227 39.6984 22.1988 39.2744 22.787 39.2744H49.2072C49.7954 39.2744 50.2716 39.6984 50.2716 40.2221C50.2716 40.7458 49.7954 41.1698 49.2072 41.1698Z" fill="#40584E"/>
<path d="M47.141 46.5574H24.8593C24.2711 46.5574 23.7949 46.1335 23.7949 45.6098C23.7949 45.086 24.2711 44.6621 24.8593 44.6621H47.141C47.7292 44.6621 48.2054 45.086 48.2054 45.6098C48.2054 46.1335 47.7292 46.5574 47.141 46.5574Z" fill="#40584E"/>
<path d="M44.8795 51.9441H27.1073C26.5191 51.9441 26.043 51.5202 26.043 50.9965C26.043 50.4728 26.5191 50.0488 27.1073 50.0488H44.8795C45.4677 50.0488 45.9439 50.4728 45.9439 50.9965C45.9439 51.5202 45.4677 51.9441 44.8795 51.9441Z" fill="#40584E"/>
<path d="M42.4143 57.3309H29.5859C28.9976 57.3309 28.5215 56.9069 28.5215 56.3832C28.5215 55.8595 28.9976 55.4355 29.5859 55.4355H42.4143C43.0025 55.4355 43.4787 55.8595 43.4787 56.3832C43.4787 56.9069 43.0025 57.3309 42.4143 57.3309Z" fill="#40584E"/>
<path d="M36.0013 62.0005C34.5518 62.0005 33.2703 61.1776 32.8082 59.9556L24.4823 37.8411C24.2932 37.3486 24.5943 36.8124 25.1545 36.644C25.7077 36.4757 26.3099 36.7438 26.499 37.2426L34.8249 59.357C34.9929 59.8059 35.4691 60.1114 36.0013 60.1114C36.5335 60.1114 37.0026 59.8122 37.1777 59.357L45.5036 37.2426C45.6926 36.75 46.2948 36.4819 46.848 36.644C47.4082 36.8124 47.7023 37.3486 47.5203 37.8411L39.1944 59.9556C38.7322 61.1776 37.4508 62.0005 36.0083 62.0005H36.0013Z" fill="#40584E"/>
</g>
</g>
<defs>
<clipPath id="clip0_71_4092">
<rect width="52" height="56" fill="white" transform="translate(10 6)"/>
</clipPath>
</defs>
</svg>
