<svg width="72" height="68" viewBox="0 0 72 68" fill="none" xmlns="http://www.w3.org/2000/svg">
<g clip-path="url(#clip0_71_4127)">
<mask id="mask0_71_4127" style="mask-type:luminance" maskUnits="userSpaceOnUse" x="5" y="3" width="62" height="62">
<path d="M67 3H5V65H67V3Z" fill="white"/>
</mask>
<g mask="url(#mask0_71_4127)">
<path d="M23.2375 39.6984C23.2375 39.6984 23.1722 39.6984 23.1359 39.6984C21.5742 39.6548 20.2814 38.6015 19.9109 37.0833L18.7197 32.1727C18.2549 30.2549 17.5794 28.2791 16.6715 26.1361C15.9597 24.4581 15.5602 22.1118 15.7272 20.55C16.0613 17.4118 18.7415 14.8621 22.1117 14.4989C24.2907 14.2592 26.3971 14.9129 27.9515 16.2641C29.5058 14.9129 31.6049 14.2592 33.7912 14.4989C37.0888 14.8548 39.7036 17.2448 40.1466 20.3102C40.3863 21.9738 39.965 24.4726 39.1443 26.2596C38.1928 28.3372 37.4447 30.6399 36.8563 33.3204L36.0864 36.8218C35.745 38.3545 34.4667 39.4369 32.8978 39.5023C31.3362 39.5749 29.9561 38.6088 29.484 37.1124L28.6487 34.4537C28.518 34.0396 28.1694 33.9887 28.0168 33.9887C27.8716 33.9887 27.5157 34.0396 27.3849 34.4609L26.5278 37.2794C26.0848 38.7395 24.7774 39.7057 23.2593 39.7057L23.2375 39.6984ZM22.9761 16.6564C22.7654 16.6564 22.5475 16.6709 22.3369 16.6927C19.9908 16.9469 18.1314 18.6685 17.9062 20.7824C17.7973 21.7994 18.066 23.8116 18.6907 25.2717C19.6494 27.5309 20.3613 29.6157 20.8552 31.6569L22.0464 36.5675C22.2497 37.4029 22.9761 37.4901 23.194 37.4974C23.4191 37.4974 24.1382 37.461 24.3924 36.6402L25.2495 33.8217C25.6199 32.594 26.6949 31.795 27.9805 31.7877H27.995C29.2734 31.7877 30.3484 32.5722 30.7261 33.7926L31.5613 36.4513C31.8228 37.2794 32.5564 37.3085 32.7743 37.3012C33.2247 37.2794 33.7621 37.0179 33.9074 36.3496L34.6773 32.8483C35.302 30.0152 36.1009 27.5599 37.1178 25.3443C37.757 23.9424 38.1202 21.8721 37.9458 20.6299C37.6553 18.5959 35.7959 16.9469 33.537 16.6999C31.6776 16.4965 29.898 17.1866 28.794 18.5523C28.3727 19.0681 27.5011 19.0681 27.0799 18.5523C26.0993 17.3465 24.5958 16.6636 22.9761 16.6636V16.6564Z" fill="#40584E"/>
<path d="M26.71 21.0949C26.5938 21.0949 26.4703 21.0731 26.3541 21.0368C25.7803 20.8407 25.468 20.2159 25.6641 19.6348C26.1362 18.2546 27.0659 17.1722 27.1095 17.1287C27.509 16.671 28.2063 16.6202 28.6639 17.0197C29.1215 17.4192 29.1723 18.1166 28.7728 18.5742C28.751 18.596 28.0755 19.3951 27.7487 20.3467C27.5889 20.8043 27.1676 21.0949 26.7028 21.0949H26.71Z" fill="#40584E"/>
<path d="M27.9377 48.888C15.2922 48.888 5 38.5946 5 25.9404C5 13.2861 15.2922 3 27.9377 3C40.5832 3 50.8754 13.2934 50.8754 25.9404C50.8754 38.5873 40.5832 48.8807 27.9377 48.8807V48.888ZM27.9377 5.20832C16.5052 5.20832 7.20806 14.5065 7.20806 25.9404C7.20806 37.3742 16.5124 46.6797 27.9449 46.6797C39.3775 46.6797 48.6818 37.3742 48.6818 25.9404C48.6818 14.5065 39.3702 5.20832 27.9377 5.20832Z" fill="#40584E"/>
<path d="M50.3441 49.4478C50.0608 49.4478 49.7775 49.3389 49.5669 49.1282L45.9425 45.5034C45.5139 45.0748 45.5139 44.3774 45.9425 43.9416C46.371 43.513 47.0683 43.513 47.5041 43.9416L51.1285 47.5664C51.557 47.995 51.557 48.6924 51.1285 49.1282C50.9106 49.3461 50.6346 49.4478 50.3513 49.4478H50.3441Z" fill="#40584E"/>
<path d="M61.675 64.9995C60.8034 64.9995 59.9318 64.6653 59.2708 64.0043L48.6082 53.3404C47.279 52.0111 47.279 49.8536 48.6082 48.5243L50.5257 46.6065C51.1722 45.96 52.022 45.6113 52.9299 45.6113C53.8378 45.6113 54.6949 45.9673 55.3341 46.6065L65.9967 57.2704C66.6431 57.9169 66.9918 58.7668 66.9918 59.6748C66.9918 60.5828 66.6358 61.44 65.9967 62.0793L64.0791 63.997C63.4182 64.6581 62.5466 64.9922 61.675 64.9922V64.9995ZM52.9299 47.8196C52.6248 47.8196 52.3125 47.9359 52.0801 48.1683L50.1626 50.0861C49.6977 50.551 49.6977 51.3137 50.1626 51.7786L60.8252 62.4425C61.29 62.9074 62.0527 62.9074 62.5248 62.4425L64.4423 60.5247C64.9072 60.0598 64.9072 59.2971 64.4423 58.8322L53.7797 48.1683C53.5473 47.9359 53.2422 47.8196 52.9299 47.8196Z" fill="#40584E"/>
</g>
</g>
<defs>
<clipPath id="clip0_71_4127">
<rect width="62" height="62" fill="white" transform="translate(5 3)"/>
</clipPath>
</defs>
</svg>
