<svg width="72" height="68" viewBox="0 0 72 68" fill="none" xmlns="http://www.w3.org/2000/svg">
<g clip-path="url(#clip0_71_4058)">
<mask id="mask0_71_4058" style="mask-type:luminance" maskUnits="userSpaceOnUse" x="2" y="6" width="68" height="56">
<path d="M70 6H2V62H70V6Z" fill="white"/>
</mask>
<g mask="url(#mask0_71_4058)">
<path d="M18.1647 61.6919C18.0973 61.6919 18.0298 61.6919 17.9624 61.6919C15.0434 61.6057 12.7193 59.7154 12.0264 56.8646L9.26691 45.4614C8.16924 40.9112 6.58713 36.2441 4.44699 31.1828C2.92008 27.5747 2.03091 22.341 2.38044 19.0223C3.07338 12.4833 8.67822 7.1819 15.7119 6.41224C20.8138 5.85193 25.7196 7.6129 29.0433 11.1533C32.3669 7.6129 37.2665 5.85193 42.3685 6.40608C46.5078 6.85556 50.322 8.92439 52.8239 12.0769C53.1428 12.4833 53.0754 13.0682 52.6768 13.3884C52.2782 13.7086 51.6895 13.647 51.3706 13.2406C49.1753 10.476 45.821 8.65963 42.1662 8.25941C37.3095 7.72989 32.6735 9.55859 29.7607 13.1482C29.5829 13.3638 29.3192 13.4931 29.0371 13.4931C28.755 13.4931 28.4914 13.3638 28.3135 13.1482C25.4069 9.55243 20.7709 7.72373 15.9081 8.25941C9.74522 8.94287 4.83332 13.5485 4.23237 19.2193C3.95642 21.8485 4.6003 26.7681 6.16401 30.4501C8.34708 35.6037 9.95985 40.3694 11.082 45.0181L13.8415 56.4213C14.4302 58.8596 16.46 59.7708 18.0176 59.8201C19.5813 59.857 21.654 59.0689 22.3837 56.6676L24.3705 50.1286C25.0267 47.9736 26.897 46.5759 29.1414 46.5636H29.1659C31.398 46.5636 33.2745 47.9428 33.9429 50.0855L35.8807 56.2612C36.6349 58.6687 38.7321 59.4445 40.302 59.3706C41.8718 59.3029 43.8955 58.3424 44.4351 55.8795C44.5455 55.3746 45.0483 55.0544 45.545 55.1652C46.0479 55.2761 46.3667 55.7748 46.2564 56.2797C45.6247 59.1613 43.319 61.1008 40.3878 61.2363C37.4566 61.3656 34.9915 59.6354 34.1085 56.8215L32.1707 50.6458C31.6556 49.0142 30.282 48.4292 29.1659 48.4292H29.1475C28.0253 48.4292 26.6456 49.0265 26.1489 50.6704L24.162 57.2094C23.3342 59.9494 20.9917 61.6857 18.1647 61.6857V61.6919Z" fill="#40584E" stroke="#40584E" stroke-miterlimit="10"/>
<path d="M26.1982 18.4743C26.1001 18.4743 25.9958 18.4559 25.8977 18.4251C25.4132 18.2588 25.1496 17.7293 25.3151 17.2367C26.3024 14.3243 28.2586 12.0523 28.3383 11.9538C28.6756 11.5659 29.2643 11.5228 29.6506 11.8615C30.0369 12.2001 30.0799 12.7912 29.7426 13.1791C29.7242 13.1976 27.9397 15.2849 27.0751 17.8401C26.9402 18.2281 26.5845 18.4743 26.192 18.4743H26.1982Z" fill="#40584E" stroke="#40584E" stroke-miterlimit="10"/>
<path d="M45.8579 52.6349C45.4103 52.6349 45.0239 52.3086 44.9442 51.8653C43.6565 44.6736 37.9719 38.9721 30.8095 37.6729C30.368 37.5928 30.043 37.2049 30.043 36.7555C30.043 36.306 30.368 35.9181 30.8095 35.838C37.9719 34.545 43.6503 28.8373 44.9442 21.6456C45.0239 21.2023 45.4103 20.876 45.8579 20.876C46.3056 20.876 46.6919 21.2023 46.7716 21.6456C48.0594 28.8373 53.7439 34.5388 60.9063 35.838C61.3479 35.9181 61.6729 36.306 61.6729 36.7555C61.6729 37.2049 61.3479 37.5928 60.9063 37.6729C53.7439 38.9659 48.0655 44.6736 46.7716 51.8653C46.6919 52.3086 46.3056 52.6349 45.8579 52.6349ZM34.4643 36.7555C39.7073 38.7258 43.8895 42.925 45.8518 48.1894C47.8141 42.925 51.9963 38.7258 57.2393 36.7555C51.9963 34.7851 47.8141 30.5859 45.8518 25.3215C43.8834 30.5859 39.7073 34.7851 34.4643 36.7555Z" fill="#40584E" stroke="#40584E" stroke-miterlimit="10"/>
<path d="M58.9188 29.0828C58.4712 29.0828 58.0848 28.7565 58.0051 28.3132C57.1773 23.6829 53.5163 20.0132 48.9111 19.182C48.4695 19.1019 48.1445 18.714 48.1445 18.2646C48.1445 17.8151 48.4695 17.4272 48.9111 17.3471C53.5225 16.5159 57.1773 12.84 58.0051 8.21594C58.0848 7.77262 58.4712 7.44629 58.9188 7.44629C59.3665 7.44629 59.7528 7.77262 59.8325 8.21594C60.6604 12.8462 64.3151 16.5159 68.9266 17.3471C69.3681 17.4272 69.6931 17.8151 69.6931 18.2646C69.6931 18.714 69.3681 19.1019 68.9266 19.182C64.3151 20.0132 60.6604 23.6891 59.8325 28.3132C59.7528 28.7565 59.3665 29.0828 58.9188 29.0828ZM52.2102 18.2646C55.1904 19.5945 57.5881 22.0081 58.9127 24.9944C60.2372 22.002 62.6411 19.5945 65.6152 18.2646C62.6349 16.9346 60.2372 14.5209 58.9127 11.5347C57.5881 14.5271 55.1843 16.9346 52.2102 18.2646Z" fill="#40584E" stroke="#40584E" stroke-miterlimit="10"/>
</g>
</g>
<defs>
<clipPath id="clip0_71_4058">
<rect width="68" height="56" fill="white" transform="translate(2 6)"/>
</clipPath>
</defs>
</svg>
