<svg width="72" height="68" viewBox="0 0 72 68" fill="none" xmlns="http://www.w3.org/2000/svg">
<g clip-path="url(#clip0_71_4010)">
<mask id="mask0_71_4010" style="mask-type:luminance" maskUnits="userSpaceOnUse" x="7" y="4" width="59" height="59">
<path d="M66 4H7V63H66V4Z" fill="white"/>
</mask>
<g mask="url(#mask0_71_4010)">
<path d="M52.3831 63C51.0997 63 49.8907 62.5002 48.9856 61.5951L36.4966 49.1129L24.0077 61.6018C22.1299 63.4728 19.0837 63.4728 17.2127 61.6018L8.40492 52.794C7.49983 51.889 7 50.6799 7 49.3966C7 48.1132 7.49983 46.9042 8.40492 45.9991L20.8939 33.5169L8.40492 21.0144C7.49983 20.1093 7 18.9003 7 17.6169C7 16.3336 7.49983 15.1246 8.40492 14.2195L17.2195 5.40492C18.1246 4.49983 19.3336 4 20.6169 4C21.9003 4 23.1093 4.49983 24.0144 5.40492L36.5034 17.8939L48.9856 5.40492C49.8907 4.49983 51.0997 4 52.3831 4C53.6664 4 54.8754 4.49983 55.7805 5.40492L64.5883 14.2127C66.4593 16.0837 66.4593 19.1367 64.5883 21.0077L52.0994 33.4966L64.5883 45.9856C66.4593 47.8566 66.4593 50.9096 64.5883 52.7805L55.7805 61.5883C54.8754 62.4934 53.6664 62.9932 52.3831 62.9932V63ZM36.5034 46.634C36.7736 46.634 37.037 46.7421 37.2261 46.9312L50.4378 60.1429C50.9579 60.663 51.6536 60.9534 52.3898 60.9534C53.126 60.9534 53.815 60.6697 54.3418 60.1429L63.1496 51.3351C64.2236 50.2611 64.2236 48.5117 63.1496 47.4378L49.938 34.2261C49.7488 34.037 49.6408 33.7736 49.6408 33.5034C49.6408 33.2332 49.7488 32.9698 49.938 32.7807L63.1496 19.569C64.2236 18.495 64.2236 16.7456 63.1496 15.6717L54.3418 6.86388C53.8217 6.34379 53.126 6.05335 52.3898 6.05335C51.6536 6.05335 50.9646 6.33703 50.4378 6.86388L37.2261 20.0756C36.8276 20.4741 36.1792 20.4741 35.7739 20.0756L22.5622 6.85713C22.0421 6.33703 21.3464 6.04659 20.6102 6.04659C19.874 6.04659 19.185 6.33028 18.6582 6.85713L9.85037 15.6649C9.33028 16.185 9.03984 16.8807 9.03984 17.6169C9.03984 18.3532 9.32353 19.0421 9.85037 19.569L23.062 32.7807C23.4606 33.1792 23.4606 33.8276 23.062 34.2329L9.85037 47.4445C9.33028 47.9646 9.03984 48.6603 9.03984 49.3966C9.03984 50.1328 9.32353 50.8218 9.85037 51.3486L18.6582 60.1564C19.7321 61.2303 21.4815 61.2303 22.5555 60.1564L35.7671 46.9447C35.9563 46.7556 36.2197 46.6475 36.4899 46.6475L36.5034 46.634Z" fill="#40584E"/>
<path d="M36.5031 48.6803C36.2397 48.6803 35.9763 48.5789 35.7804 48.3831L21.6231 34.2258C21.2246 33.8273 21.2246 33.1788 21.6231 32.7736C22.0216 32.375 22.67 32.375 23.0753 32.7736L37.2326 46.9309C37.6311 47.3294 37.6311 47.9778 37.2326 48.3831C37.03 48.5857 36.7733 48.6803 36.5099 48.6803H36.5031Z" fill="#40584E"/>
<path d="M50.6535 34.523C50.3901 34.523 50.1267 34.4217 49.9308 34.2258L35.7735 20.0685C35.375 19.67 35.375 19.0216 35.7735 18.6163C36.172 18.2178 36.8204 18.2178 37.2257 18.6163L51.383 32.7736C51.7815 33.1721 51.7815 33.8206 51.383 34.2258C51.1804 34.4285 50.9237 34.523 50.6603 34.523H50.6535Z" fill="#40584E"/>
<path d="M25.7169 31.1523C25.4535 31.1523 25.1901 31.051 24.9942 30.8551C24.5957 30.4566 24.5957 29.8082 24.9942 29.4029L32.3971 22C32.7956 21.6015 33.444 21.6015 33.8493 22C34.2545 22.3986 34.2478 23.047 33.8493 23.4522L26.4464 30.8551C26.2438 31.0577 25.9871 31.1523 25.7237 31.1523H25.7169Z" fill="#40584E"/>
<path d="M39.8731 45.3037C39.6097 45.3037 39.3463 45.2024 39.1504 45.0065C38.7519 44.608 38.7519 43.9596 39.1504 43.5543L46.5533 36.1515C46.9518 35.7529 47.6002 35.7529 48.0055 36.1515C48.404 36.55 48.404 37.1984 48.0055 37.6037L40.6026 45.0065C40.4 45.2092 40.1433 45.3037 39.8799 45.3037H39.8731Z" fill="#40584E"/>
<path d="M47.9193 23.1084C47.8517 23.1084 47.7842 23.1084 47.7234 23.0881C47.6558 23.0746 47.5883 23.0544 47.5275 23.0274C47.4599 23.0071 47.4059 22.9666 47.3519 22.9328C47.2911 22.8923 47.2438 22.8517 47.1965 22.8045C47.1492 22.7572 47.1087 22.7031 47.0682 22.6491C47.0344 22.5883 47.0006 22.5343 46.9736 22.4667C46.9534 22.4059 46.9331 22.3452 46.9128 22.2776C46.8993 22.2101 46.8926 22.1425 46.8926 22.075C46.8926 22.0074 46.8926 21.9399 46.9128 21.8791C46.9331 21.8116 46.9466 21.7508 46.9736 21.6832C47.0006 21.6224 47.0344 21.5684 47.0682 21.5076C47.1087 21.4536 47.1492 21.3995 47.1965 21.3523C47.4397 21.1091 47.7909 21.001 48.1219 21.0686C48.1827 21.0821 48.2502 21.0956 48.3178 21.1294C48.3786 21.1496 48.4326 21.1834 48.4934 21.2239C48.5542 21.2577 48.6014 21.305 48.6487 21.3523C48.696 21.3995 48.7365 21.4536 48.7703 21.5076C48.8108 21.5684 48.8379 21.6224 48.8649 21.6832C48.8919 21.7508 48.9122 21.8116 48.9257 21.8791C48.9459 21.9466 48.9459 22.0142 48.9459 22.075C48.9459 22.1425 48.9459 22.2101 48.9257 22.2776C48.9122 22.3452 48.8986 22.4059 48.8649 22.4667C48.8446 22.5343 48.8108 22.5883 48.7703 22.6491C48.7365 22.7031 48.696 22.7572 48.6487 22.8045C48.5947 22.8517 48.5407 22.899 48.4934 22.9328C48.4326 22.9666 48.3786 23.0003 48.3178 23.0274C48.2502 23.0476 48.1894 23.0746 48.1219 23.0881C48.0543 23.1017 47.9868 23.1084 47.926 23.1084H47.9193Z" fill="#40584E"/>
<path d="M51.181 26.3707C51.1134 26.3707 51.0459 26.3707 50.9851 26.3504C50.9176 26.3369 50.85 26.3167 50.7892 26.2897C50.7284 26.2694 50.6676 26.2289 50.6136 26.1951C50.5528 26.1546 50.5055 26.114 50.4582 26.0668C50.411 26.0195 50.3704 25.9654 50.3299 25.9114C50.2961 25.8574 50.2691 25.8033 50.2354 25.7358C50.2151 25.675 50.1881 25.6142 50.1746 25.5467C50.1611 25.4791 50.1543 25.4116 50.1543 25.344C50.1543 25.2765 50.1543 25.2089 50.1746 25.1482C50.1881 25.0806 50.2083 25.0198 50.2354 24.9523C50.2624 24.8915 50.2961 24.8375 50.3299 24.7767C50.3704 24.7226 50.411 24.6686 50.4582 24.6213C50.5055 24.5673 50.5596 24.5267 50.6136 24.493C50.6676 24.4524 50.7284 24.4254 50.7892 24.3984C50.85 24.3714 50.9108 24.3511 50.9851 24.3376C51.1134 24.3106 51.2485 24.3106 51.3836 24.3376C51.4444 24.3511 51.5119 24.3646 51.5795 24.3984C51.6403 24.4187 51.6943 24.4524 51.7551 24.493C51.8091 24.5267 51.8632 24.5673 51.9104 24.6213C51.9645 24.6686 52.005 24.7226 52.0388 24.7767C52.0726 24.8375 52.1063 24.8915 52.1333 24.9523C52.1604 25.0198 52.1806 25.0806 52.1941 25.1482C52.2144 25.2157 52.2144 25.2832 52.2144 25.344C52.2144 25.4116 52.2144 25.4791 52.1941 25.5467C52.1806 25.6142 52.1671 25.675 52.1333 25.7358C52.1131 25.8033 52.0726 25.8574 52.0388 25.9114C52.005 25.9722 51.9645 26.0262 51.9104 26.0668C51.8632 26.114 51.8091 26.1546 51.7551 26.1951C51.6943 26.2289 51.6403 26.2626 51.5795 26.2897C51.5187 26.3099 51.4511 26.3369 51.3836 26.3504C51.3161 26.364 51.2485 26.3707 51.181 26.3707Z" fill="#40584E"/>
<path d="M44.6576 19.8463C44.59 19.8463 44.5225 19.8463 44.4617 19.826C44.3941 19.8125 44.3333 19.7922 44.2658 19.7652C44.205 19.745 44.1442 19.7044 44.0902 19.6707C44.0294 19.6369 43.9754 19.5896 43.9348 19.5423C43.8876 19.495 43.847 19.441 43.8065 19.387C43.7727 19.3262 43.739 19.2721 43.7119 19.2046C43.6917 19.1438 43.6714 19.083 43.6511 19.0155C43.6376 18.9479 43.6309 18.8804 43.6309 18.8128C43.6309 18.5427 43.7457 18.2792 43.9281 18.0901C43.9754 18.0428 44.0294 17.9956 44.0834 17.9618C44.1375 17.928 44.1983 17.8942 44.259 17.8672C44.3266 17.8402 44.3874 17.8199 44.4549 17.8064C44.5833 17.7794 44.7251 17.7794 44.8534 17.8064C44.921 17.8199 44.9818 17.8334 45.0493 17.8672C45.1101 17.8875 45.1709 17.928 45.2249 17.9618C45.2857 17.9956 45.3398 18.0428 45.3803 18.0901C45.5694 18.2792 45.6775 18.5427 45.6775 18.8128C45.6775 18.8804 45.6775 18.9479 45.6572 19.0155C45.637 19.083 45.6234 19.1438 45.5964 19.2046C45.5694 19.2721 45.5356 19.3262 45.4951 19.387C45.4613 19.441 45.4208 19.495 45.3735 19.5423C45.3262 19.5896 45.2722 19.6369 45.2182 19.6707C45.1641 19.7044 45.1034 19.7382 45.0426 19.7652C44.975 19.7855 44.9142 19.8125 44.8467 19.826C44.7859 19.8395 44.7116 19.8463 44.6508 19.8463H44.6576Z" fill="#40584E"/>
<path d="M51.4915 19.5352C51.424 19.5352 51.3564 19.5352 51.2956 19.5149C51.2281 19.5014 51.1673 19.4812 51.0997 19.4542C51.0322 19.4339 50.9782 19.3934 50.9241 19.3596C50.8633 19.3191 50.8093 19.2785 50.7688 19.2313C50.7215 19.184 50.681 19.1299 50.6404 19.0759C50.6067 19.0219 50.5729 18.9678 50.5459 18.9003C50.5256 18.8395 50.5053 18.7787 50.4851 18.7112C50.4716 18.6436 50.4648 18.5761 50.4648 18.5085C50.4648 18.441 50.4648 18.3734 50.4851 18.3059C50.5053 18.2384 50.5189 18.1776 50.5459 18.11C50.5729 18.0492 50.6067 17.9952 50.6404 17.9344C50.681 17.8804 50.7215 17.8263 50.7688 17.7791C50.8161 17.7318 50.8701 17.6845 50.9241 17.6507C50.9782 17.6169 51.0322 17.5832 51.0997 17.5562C51.1673 17.5291 51.2281 17.5089 51.2956 17.4954C51.6266 17.4278 51.9778 17.5359 52.221 17.7791C52.2683 17.8263 52.3088 17.8804 52.3426 17.9344C52.3831 17.9952 52.4101 18.0492 52.4371 18.11C52.4641 18.1776 52.4844 18.2384 52.4979 18.3059C52.5182 18.3734 52.5182 18.441 52.5182 18.5085C52.5182 18.5761 52.5182 18.6436 52.4979 18.7112C52.4844 18.7787 52.4709 18.8395 52.4371 18.9003C52.4169 18.9678 52.3831 19.0219 52.3426 19.0759C52.3088 19.1367 52.2683 19.184 52.221 19.2313C52.1669 19.2785 52.1197 19.3191 52.0656 19.3596C52.0048 19.3934 51.9508 19.4271 51.89 19.4542C51.8292 19.4744 51.7617 19.5014 51.6941 19.5149C51.6333 19.5285 51.559 19.5352 51.4982 19.5352H51.4915Z" fill="#40584E"/>
<path d="M54.7533 22.7976C54.6858 22.7976 54.6182 22.7976 54.5574 22.7773C54.4899 22.7638 54.4223 22.7435 54.3616 22.7165C54.294 22.6963 54.24 22.6557 54.1859 22.622C54.1252 22.5814 54.0779 22.5409 54.0306 22.4936C53.9833 22.4463 53.9428 22.3923 53.9023 22.3383C53.8685 22.2842 53.8347 22.2234 53.8077 22.1627C53.7874 22.1019 53.7604 22.0411 53.7469 21.9735C53.7334 21.906 53.7266 21.8384 53.7266 21.7709C53.7266 21.7034 53.7266 21.6358 53.7469 21.575C53.7604 21.5075 53.7807 21.4467 53.8077 21.3791C53.8347 21.3183 53.8685 21.2643 53.9023 21.2035C53.9428 21.1427 53.9833 21.0955 54.0306 21.0482C54.0779 21.0009 54.1319 20.9604 54.1859 20.9266C54.24 20.8861 54.3008 20.859 54.3616 20.832C54.4223 20.805 54.4831 20.7847 54.5574 20.7712C54.6858 20.7442 54.8209 20.7442 54.9559 20.7712C55.0235 20.7847 55.0843 20.7983 55.1518 20.832C55.2126 20.8523 55.2667 20.8861 55.3274 20.9266C55.3882 20.9604 55.4355 21.0009 55.4828 21.0482C55.5368 21.1022 55.5774 21.1495 55.6111 21.2035C55.6517 21.2643 55.6787 21.3183 55.7057 21.3791C55.7327 21.4467 55.753 21.5075 55.7665 21.575C55.7867 21.6426 55.7867 21.7101 55.7867 21.7709C55.7867 21.8384 55.7867 21.906 55.7665 21.9735C55.753 22.0411 55.7395 22.1019 55.7057 22.1627C55.6854 22.2302 55.6517 22.2842 55.6111 22.3383C55.5774 22.3991 55.5368 22.4463 55.4828 22.4936C55.4355 22.5409 55.3882 22.5814 55.3274 22.622C55.2667 22.6557 55.2126 22.6895 55.1518 22.7165C55.0843 22.7368 55.0235 22.7638 54.9559 22.7773C54.8884 22.7908 54.8209 22.7976 54.7601 22.7976H54.7533Z" fill="#40584E"/>
<path d="M48.2308 16.273C48.1632 16.273 48.0957 16.273 48.0349 16.2527C47.9741 16.2392 47.8998 16.2189 47.839 16.1919C47.7782 16.1717 47.7174 16.1311 47.6634 16.0974C47.6026 16.0636 47.5553 16.0163 47.5081 15.969C47.3189 15.7799 47.2109 15.5165 47.2109 15.2463C47.2109 15.1788 47.2109 15.1112 47.2311 15.0437C47.2514 14.9761 47.2649 14.9153 47.2919 14.8545C47.3189 14.787 47.3527 14.733 47.3932 14.6722C47.427 14.6181 47.4675 14.5641 47.5148 14.5168C47.7512 14.2737 48.1092 14.1723 48.4402 14.2331C48.501 14.2466 48.5685 14.2601 48.636 14.2939C48.6968 14.3142 48.7576 14.3547 48.8117 14.3885C48.8725 14.4223 48.9197 14.4695 48.967 14.5168C49.0143 14.5641 49.0548 14.6181 49.0886 14.6722C49.1291 14.733 49.1561 14.787 49.1899 14.8545C49.2102 14.9153 49.2304 14.9761 49.2507 15.0437C49.2642 15.1112 49.271 15.1788 49.271 15.2463C49.271 15.5165 49.1629 15.7799 48.9738 15.969C48.9265 16.0163 48.8725 16.0636 48.8184 16.0974C48.7644 16.1311 48.7036 16.1649 48.6428 16.1919C48.582 16.2122 48.5145 16.2392 48.4469 16.2527C48.3794 16.2662 48.3118 16.273 48.2443 16.273H48.2308Z" fill="#40584E"/>
<path d="M55.0657 15.9625C54.9982 15.9625 54.9307 15.9625 54.8699 15.9423C54.8091 15.9288 54.7415 15.9085 54.674 15.8815C54.6132 15.8545 54.5524 15.8207 54.4984 15.7869C54.4376 15.7464 54.3903 15.7059 54.343 15.6586C54.2957 15.6113 54.2552 15.5573 54.2147 15.5032C54.1809 15.4492 54.1539 15.3952 54.1201 15.3276C54.0999 15.2668 54.0796 15.206 54.0593 15.1317C54.0458 15.0642 54.0391 15.0034 54.0391 14.9359C54.0391 14.8683 54.0391 14.8008 54.0593 14.74C54.0796 14.6724 54.0931 14.6117 54.1201 14.5441C54.1471 14.4833 54.1809 14.4293 54.2147 14.3685C54.2552 14.3145 54.2957 14.2604 54.343 14.2131C54.3903 14.1591 54.4443 14.1186 54.4984 14.0848C54.5524 14.051 54.6132 14.0173 54.674 13.9902C54.7415 13.9632 54.8023 13.9429 54.8699 13.9294C54.9982 13.9024 55.1333 13.9024 55.2684 13.9294C55.3292 13.9429 55.3967 13.9565 55.4642 13.9902C55.525 14.0105 55.5858 14.051 55.6399 14.0848C55.7007 14.1186 55.7479 14.1591 55.7952 14.2131C55.8425 14.2604 55.883 14.3145 55.9168 14.3685C55.9573 14.4293 55.9843 14.4833 56.0181 14.5441C56.0384 14.6117 56.0586 14.6724 56.0789 14.74C56.0924 14.8075 56.0992 14.8751 56.0992 14.9359C56.0992 15.0034 56.0992 15.071 56.0789 15.1317C56.0586 15.1993 56.0451 15.2668 56.0181 15.3276C55.9911 15.3952 55.9573 15.4492 55.9168 15.5032C55.883 15.564 55.8425 15.6181 55.7952 15.6586C55.7479 15.7059 55.6939 15.7464 55.6399 15.7869C55.5858 15.8207 55.525 15.8545 55.4642 15.8815C55.3967 15.9018 55.3359 15.9288 55.2684 15.9423C55.2008 15.9558 55.1333 15.9625 55.0657 15.9625Z" fill="#40584E"/>
<path d="M58.3283 19.2244C58.0582 19.2244 57.7948 19.1163 57.5989 18.9272C57.5516 18.8799 57.5111 18.8258 57.4705 18.7718C57.4368 18.7178 57.403 18.6637 57.376 18.5962C57.3557 18.5354 57.3354 18.4746 57.3152 18.4003C57.3017 18.3328 57.2949 18.272 57.2949 18.1977C57.2949 18.1301 57.2949 18.0626 57.3152 18.0018C57.3354 17.9343 57.349 17.8735 57.376 17.8059C57.403 17.7451 57.4368 17.6911 57.4705 17.6303C57.5111 17.5695 57.5516 17.5222 57.5989 17.475C57.6462 17.4277 57.7002 17.3871 57.7542 17.3534C57.8083 17.3128 57.8623 17.2858 57.9298 17.2588C57.9974 17.2318 58.0582 17.2115 58.1257 17.198C58.2541 17.171 58.3891 17.171 58.5242 17.198C58.5918 17.2115 58.6526 17.225 58.7201 17.2588C58.7809 17.2791 58.8349 17.3128 58.8957 17.3534C58.9565 17.3871 59.0038 17.4277 59.0511 17.475C59.2402 17.6708 59.3483 17.9343 59.3483 18.2044C59.3483 18.4746 59.2402 18.738 59.0511 18.9339C58.997 18.9812 58.9498 19.0217 58.8957 19.0622C58.8349 19.096 58.7809 19.1298 58.7201 19.1568C58.6593 19.1771 58.5918 19.2041 58.5242 19.2176C58.4634 19.2311 58.3891 19.2379 58.3283 19.2379V19.2244Z" fill="#40584E"/>
<path d="M51.8031 12.6998C51.7356 12.6998 51.668 12.6998 51.6072 12.6795C51.5397 12.666 51.4789 12.6457 51.4114 12.6187C51.3438 12.5984 51.2898 12.5579 51.2357 12.5241C51.175 12.4836 51.1209 12.4431 51.0804 12.3958C51.0399 12.3485 50.9926 12.2945 50.9588 12.2405C50.9183 12.1864 50.8913 12.1324 50.8575 12.0648C50.8372 12.004 50.817 11.9433 50.8035 11.8757C50.7832 11.8082 50.7832 11.7406 50.7832 11.6731C50.7832 11.6055 50.7832 11.538 50.8035 11.4704C50.817 11.4029 50.8305 11.3421 50.8575 11.2746C50.8845 11.2138 50.9183 11.1597 50.9588 11.099C50.9926 11.0449 51.0331 10.9909 51.0804 10.9436C51.1277 10.8963 51.1817 10.849 51.2357 10.8153C51.2898 10.7815 51.3438 10.7477 51.4114 10.7207C51.4722 10.7004 51.5397 10.6734 51.6072 10.6599C51.7356 10.6329 51.8774 10.6329 52.0058 10.6599C52.0733 10.6734 52.1341 10.6937 52.2016 10.7207C52.2692 10.741 52.3232 10.7815 52.3773 10.8153C52.438 10.849 52.4921 10.8963 52.5326 10.9436C52.5799 10.9909 52.6204 11.0449 52.6609 11.099C52.6947 11.1597 52.7217 11.2138 52.7555 11.2746C52.7758 11.3421 52.796 11.4029 52.8163 11.4704C52.8298 11.538 52.8366 11.6055 52.8366 11.6731C52.8366 11.7406 52.8366 11.8082 52.8163 11.8757C52.796 11.9433 52.7825 12.004 52.7555 12.0648C52.7285 12.1324 52.6947 12.1864 52.6609 12.2405C52.6204 12.3012 52.5799 12.3485 52.5326 12.3958C52.4853 12.4431 52.4313 12.4836 52.3773 12.5241C52.3232 12.5579 52.2692 12.5917 52.2016 12.6187C52.1341 12.6457 52.0733 12.666 52.0058 12.6795C51.9382 12.693 51.8707 12.6998 51.8099 12.6998H51.8031Z" fill="#40584E"/>
<path d="M17.9436 53.0914C17.6667 53.0914 17.4033 52.9833 17.2141 52.7874C17.1668 52.7402 17.1196 52.6861 17.0858 52.6321C17.052 52.5713 17.0183 52.5173 16.9912 52.4565C16.9709 52.3889 16.9439 52.3281 16.9304 52.2606C16.9169 52.193 16.9102 52.1255 16.9102 52.0647C16.9102 51.9972 16.9102 51.9296 16.9304 51.8621C16.9439 51.7945 16.9642 51.7338 16.9912 51.673C17.0115 51.6054 17.052 51.5514 17.0858 51.4973C17.1196 51.4366 17.1668 51.3825 17.2141 51.342C17.2614 51.2947 17.3154 51.2474 17.3695 51.2137C17.4303 51.1799 17.4843 51.1461 17.5519 51.1191C17.6126 51.0988 17.6734 51.0718 17.741 51.0583C17.8761 51.0313 18.0112 51.0313 18.1462 51.0583C18.207 51.0718 18.2746 51.0921 18.3421 51.1191C18.4029 51.1394 18.4569 51.1799 18.5177 51.2137C18.5718 51.2474 18.6258 51.2947 18.6731 51.342C18.7204 51.3893 18.7676 51.4433 18.8014 51.4973C18.8352 51.5514 18.869 51.6054 18.896 51.673C18.923 51.7338 18.9433 51.7945 18.9568 51.8621C18.9703 51.9296 18.977 51.9972 18.977 52.0647C18.977 52.1323 18.9635 52.1998 18.9568 52.2606C18.9433 52.3281 18.9298 52.3889 18.896 52.4565C18.8757 52.5173 18.8352 52.5713 18.8014 52.6321C18.7676 52.6861 18.7204 52.7402 18.6731 52.7874C18.6258 52.8347 18.5718 52.882 18.5177 52.9158C18.4569 52.9495 18.4029 52.9833 18.3421 53.0103C18.2746 53.0374 18.2138 53.0576 18.1462 53.0711C18.0787 53.0846 18.0112 53.0914 17.9504 53.0914H17.9436Z" fill="#40584E"/>
<path d="M21.2053 56.3535C21.1378 56.3535 21.0702 56.34 21.0027 56.3332C20.9351 56.3197 20.8744 56.3062 20.8068 56.2725C20.746 56.2522 20.692 56.2117 20.6312 56.1779C20.5772 56.1441 20.5231 56.1036 20.4758 56.0496C20.4286 56.0023 20.3813 55.9482 20.3475 55.8942C20.3137 55.8334 20.28 55.7794 20.253 55.7186C20.2327 55.651 20.2057 55.5903 20.1922 55.5227C20.1787 55.4552 20.1719 55.3876 20.1719 55.3201C20.1719 55.2525 20.1719 55.185 20.1922 55.1174C20.2057 55.0499 20.2259 54.9891 20.253 54.9283C20.2732 54.8608 20.3137 54.8067 20.3475 54.7459C20.3813 54.6919 20.4286 54.6379 20.4758 54.5906C20.5231 54.5433 20.5772 54.5028 20.6312 54.4623C20.692 54.4285 20.746 54.3947 20.8068 54.3677C20.8744 54.3474 20.9351 54.3204 21.0027 54.3069C21.3337 54.2394 21.6849 54.3474 21.9281 54.5906C21.9753 54.6379 22.0226 54.6919 22.0564 54.7459C22.0902 54.8067 22.1239 54.8608 22.1509 54.9283C22.1712 54.9891 22.1982 55.0499 22.2117 55.1174C22.2252 55.185 22.232 55.2525 22.232 55.3201C22.232 55.3876 22.232 55.4552 22.2117 55.5227C22.1982 55.5903 22.178 55.651 22.1509 55.7186C22.1307 55.7794 22.0902 55.8334 22.0564 55.8942C22.0226 55.9482 21.9753 56.0023 21.9281 56.0496C21.7389 56.2454 21.4755 56.3535 21.2053 56.3535Z" fill="#40584E"/>
<path d="M14.679 49.8285C14.6115 49.8285 14.5439 49.8285 14.4764 49.8083C14.4088 49.7948 14.3481 49.7813 14.2873 49.7475C14.2197 49.7272 14.1657 49.6934 14.1116 49.6529C14.0509 49.6191 13.9968 49.5719 13.9563 49.5246C13.9158 49.4773 13.8685 49.4233 13.828 49.3692C13.7942 49.3084 13.7604 49.2544 13.7334 49.1936C13.7131 49.1261 13.6861 49.0653 13.6726 48.9977C13.6591 48.9302 13.6523 48.8627 13.6523 48.8019C13.6523 48.7343 13.6523 48.6668 13.6726 48.5992C13.6861 48.5317 13.7064 48.4709 13.7334 48.4101C13.7537 48.3426 13.7942 48.2885 13.828 48.2277C13.8685 48.1737 13.909 48.1197 13.9563 48.0724C14.0036 48.0251 14.0576 47.9778 14.1116 47.9441C14.1657 47.9103 14.2197 47.8765 14.2873 47.8495C14.3481 47.8292 14.4088 47.8022 14.4764 47.7887C14.6115 47.7684 14.7466 47.7684 14.8817 47.7887C14.9492 47.8022 15.01 47.8225 15.0775 47.8495C15.1383 47.8698 15.1924 47.9103 15.2531 47.9441C15.3072 47.9778 15.3612 48.0251 15.4085 48.0724C15.4625 48.1197 15.5031 48.1737 15.5368 48.2277C15.5774 48.2885 15.6044 48.3426 15.6314 48.4101C15.6584 48.4709 15.6787 48.5317 15.6922 48.5992C15.7124 48.6668 15.7124 48.7343 15.7124 48.8019C15.7124 48.8694 15.7124 48.937 15.6922 48.9977C15.6787 49.0653 15.6652 49.1261 15.6314 49.1936C15.6111 49.2544 15.5706 49.3084 15.5368 49.3692C15.5031 49.4233 15.4625 49.4773 15.4085 49.5246C15.3612 49.5786 15.3072 49.6191 15.2531 49.6529C15.1924 49.6934 15.1383 49.7205 15.0775 49.7475C15.01 49.7745 14.9492 49.7948 14.8817 49.8083C14.8141 49.8285 14.7466 49.8285 14.6858 49.8285H14.679Z" fill="#40584E"/>
<path d="M21.5168 49.5175C21.4493 49.5175 21.3817 49.5175 21.3142 49.4973C21.2467 49.4838 21.1859 49.4703 21.1251 49.4365C21.0575 49.4162 21.0035 49.3757 20.9495 49.3419C20.8887 49.3081 20.8346 49.2609 20.7941 49.2136C20.7468 49.1663 20.7063 49.1123 20.6658 49.0582C20.632 48.9974 20.5982 48.9434 20.5712 48.8826C20.5509 48.8151 20.5239 48.7543 20.5104 48.6867C20.4969 48.6192 20.4902 48.5517 20.4902 48.4841C20.4902 48.4166 20.4902 48.349 20.5104 48.2815C20.5239 48.2139 20.5442 48.1531 20.5712 48.0923C20.5915 48.0248 20.632 47.9708 20.6658 47.91C20.7063 47.8559 20.7468 47.8019 20.7941 47.7546C20.8414 47.7073 20.8954 47.6601 20.9495 47.6263C21.0035 47.5925 21.0575 47.5587 21.1251 47.5317C21.1859 47.5115 21.2467 47.4845 21.3142 47.4709C21.6452 47.4034 21.9964 47.5115 22.2396 47.7546C22.2868 47.8019 22.3341 47.8559 22.3679 47.91C22.4017 47.9708 22.4354 48.0248 22.4625 48.0923C22.4827 48.1531 22.5097 48.2139 22.5232 48.2815C22.5368 48.349 22.5435 48.4166 22.5435 48.4841C22.5435 48.5517 22.5435 48.6124 22.5232 48.6867C22.5097 48.7543 22.4895 48.8151 22.4625 48.8826C22.4422 48.9434 22.4017 48.9974 22.3679 49.0582C22.3341 49.1123 22.2868 49.1663 22.2396 49.2136C22.0504 49.4095 21.787 49.5175 21.5168 49.5175Z" fill="#40584E"/>
<path d="M24.7708 52.7739C24.71 52.7739 24.6357 52.7739 24.5749 52.7537C24.5141 52.7402 24.4466 52.7199 24.3858 52.6929C24.3183 52.6726 24.2642 52.6321 24.2034 52.5983C24.1494 52.5645 24.0954 52.5173 24.0481 52.47C24.0008 52.4227 23.9535 52.3687 23.9198 52.3146C23.886 52.2538 23.8522 52.1998 23.8252 52.1323C23.7982 52.0715 23.7779 52.0107 23.7644 51.9431C23.7509 51.8756 23.7441 51.808 23.7441 51.7405C23.7441 51.4703 23.859 51.2069 24.0481 51.0178C24.0954 50.9705 24.1494 50.9232 24.2034 50.8894C24.2642 50.8557 24.3183 50.8219 24.3858 50.7949C24.4466 50.7746 24.5074 50.7476 24.5749 50.7341C24.71 50.7071 24.8451 50.7071 24.9802 50.7341C25.041 50.7476 25.1085 50.7679 25.1761 50.7949C25.2369 50.8151 25.2909 50.8557 25.3517 50.8894C25.4057 50.9232 25.4598 50.9705 25.507 51.0178C25.7029 51.2069 25.811 51.4771 25.811 51.7405C25.811 51.808 25.7975 51.8756 25.7907 51.9431C25.7772 52.0107 25.7637 52.0715 25.7299 52.1323C25.7097 52.1998 25.6692 52.2538 25.6354 52.3146C25.6016 52.3687 25.5543 52.4227 25.507 52.47C25.4598 52.5173 25.4057 52.5645 25.3517 52.5983C25.2909 52.6321 25.2369 52.6659 25.1761 52.6929C25.1085 52.7131 25.0477 52.7402 24.9802 52.7537C24.9127 52.7672 24.8451 52.7739 24.7776 52.7739H24.7708Z" fill="#40584E"/>
<path d="M18.2532 46.2554C18.1857 46.2554 18.1181 46.2419 18.0506 46.2352C17.9831 46.2217 17.9223 46.2082 17.8615 46.1744C17.8007 46.1541 17.7399 46.1203 17.6859 46.0798C17.6251 46.0461 17.571 46.0055 17.5305 45.9582C17.4832 45.9042 17.4427 45.8502 17.4022 45.8029C17.3684 45.7421 17.3414 45.6881 17.3076 45.6273C17.2874 45.5597 17.2603 45.4989 17.2468 45.4314C17.2333 45.3639 17.2266 45.2963 17.2266 45.2355C17.2266 45.168 17.2266 45.1004 17.2468 45.0329C17.2603 44.9653 17.2806 44.9046 17.3076 44.8438C17.3346 44.7762 17.3684 44.7222 17.4022 44.6681C17.4427 44.6074 17.4832 44.5601 17.5305 44.5128C17.5778 44.4655 17.6318 44.4182 17.6859 44.3845C17.7399 44.3507 17.8007 44.3169 17.8615 44.2899C17.9223 44.2696 17.9831 44.2426 18.0506 44.2291C18.1857 44.2088 18.3208 44.2088 18.4559 44.2291C18.5234 44.2426 18.5842 44.2629 18.6517 44.2899C18.7125 44.3102 18.7666 44.3507 18.8274 44.3845C18.8814 44.4182 18.9354 44.4655 18.9827 44.5128C19.1786 44.7087 19.2867 44.9721 19.2867 45.2423C19.2867 45.3098 19.2867 45.3774 19.2664 45.4382C19.2529 45.5057 19.2394 45.5665 19.2056 45.634C19.1853 45.6948 19.1448 45.7489 19.1111 45.8096C19.0773 45.8637 19.0368 45.9177 18.9827 45.965C18.9354 46.0123 18.8814 46.0528 18.8274 46.0866C18.7666 46.1271 18.7125 46.1541 18.6517 46.1811C18.591 46.2082 18.5234 46.2284 18.4559 46.2419C18.3951 46.2554 18.3208 46.2622 18.26 46.2622L18.2532 46.2554Z" fill="#40584E"/>
<path d="M25.0892 45.9447C25.0216 45.9447 24.9541 45.9312 24.8865 45.9245C24.819 45.911 24.7582 45.8975 24.6974 45.8637C24.6366 45.8434 24.5758 45.8029 24.515 45.7691C24.461 45.7354 24.407 45.6881 24.3597 45.6408C24.1638 45.4517 24.0625 45.1883 24.0625 44.9181C24.0625 44.8505 24.0625 44.783 24.0828 44.7154C24.0963 44.6479 24.1165 44.5871 24.1436 44.5263C24.1638 44.4588 24.2043 44.4047 24.2381 44.3439C24.2719 44.2899 24.3192 44.2359 24.3664 44.1886C24.4137 44.1413 24.4678 44.094 24.5218 44.0603C24.5826 44.0265 24.6366 43.9927 24.7042 43.9657C24.765 43.9454 24.8258 43.9184 24.8933 43.9049C25.0284 43.8846 25.1635 43.8846 25.2986 43.9049C25.3594 43.9184 25.4269 43.9387 25.4944 43.9657C25.5552 43.986 25.6093 44.0265 25.6701 44.0603C25.7241 44.094 25.7781 44.1413 25.8254 44.1886C25.8727 44.2359 25.92 44.2899 25.9537 44.3439C25.9875 44.4047 26.0213 44.4588 26.0483 44.5263C26.0753 44.5871 26.0956 44.6479 26.1091 44.7154C26.1294 44.783 26.1294 44.8505 26.1294 44.9181C26.1294 45.1883 26.0213 45.4517 25.8254 45.6408C25.6363 45.8367 25.3729 45.9447 25.1027 45.9447H25.0892Z" fill="#40584E"/>
<path d="M28.3509 49.2004C28.074 49.2004 27.8105 49.0923 27.6214 48.9032C27.4255 48.7141 27.3242 48.4506 27.3242 48.1805C27.3242 48.1129 27.3242 48.0454 27.3445 47.9778C27.358 47.9103 27.3783 47.8495 27.4053 47.7887C27.4255 47.7212 27.4661 47.6671 27.4998 47.6063C27.5404 47.5523 27.5809 47.4983 27.6282 47.451C27.8646 47.2078 28.2226 47.0997 28.5535 47.1673C28.6211 47.1808 28.6819 47.2011 28.7426 47.2281C28.8102 47.2483 28.8642 47.2889 28.925 47.3226C28.9791 47.3564 29.0331 47.4037 29.0804 47.451C29.1277 47.4983 29.1749 47.5523 29.2087 47.6063C29.2425 47.6671 29.2763 47.7212 29.3033 47.7887C29.3303 47.8495 29.3505 47.9103 29.3641 47.9778C29.3776 48.0454 29.3843 48.1129 29.3843 48.1805C29.3843 48.4439 29.2762 48.7073 29.0804 48.9032C29.0331 48.9505 28.9791 48.9977 28.925 49.0315C28.8642 49.0653 28.8102 49.0991 28.7426 49.1261C28.6819 49.1463 28.6211 49.1734 28.5535 49.1869C28.486 49.2004 28.4184 49.2071 28.3576 49.2071L28.3509 49.2004Z" fill="#40584E"/>
<path d="M21.8264 42.683C21.5562 42.683 21.2928 42.5749 21.0969 42.3791C21.0496 42.3318 21.0091 42.2777 20.9686 42.2237C20.9348 42.1629 20.901 42.1089 20.874 42.0481C20.8538 41.9805 20.8267 41.9198 20.8132 41.8522C20.7997 41.7847 20.793 41.7171 20.793 41.6563C20.793 41.5888 20.793 41.5212 20.8132 41.4537C20.8267 41.3861 20.847 41.3254 20.874 41.2646C20.8943 41.197 20.9348 41.143 20.9686 41.0822C21.0091 41.0282 21.0496 40.9741 21.0969 40.9268C21.1442 40.8796 21.1982 40.8323 21.2523 40.7985C21.3063 40.7647 21.3671 40.731 21.4279 40.704C21.4887 40.6837 21.5495 40.6567 21.6238 40.6432C21.7521 40.6229 21.8872 40.6229 22.0223 40.6432C22.0898 40.6567 22.1506 40.6769 22.2182 40.704C22.2789 40.7242 22.333 40.7647 22.3938 40.7985C22.4478 40.8323 22.5018 40.8796 22.5491 40.9268C22.5964 40.9741 22.6369 41.0282 22.6707 41.0822C22.7112 41.143 22.7382 41.197 22.7653 41.2646C22.7923 41.3254 22.8125 41.3861 22.8261 41.4537C22.8463 41.5212 22.8463 41.5888 22.8463 41.6563C22.8463 41.7239 22.8463 41.7914 22.8261 41.8522C22.8125 41.9198 22.799 41.9805 22.7653 42.0481C22.745 42.1089 22.7112 42.1629 22.6707 42.2237C22.6369 42.2777 22.5964 42.3318 22.5491 42.3791C22.4951 42.4263 22.4411 42.4736 22.3938 42.5074C22.333 42.5412 22.2789 42.5749 22.2182 42.6019C22.1506 42.629 22.0898 42.6492 22.0223 42.6627C21.9547 42.683 21.8872 42.683 21.8264 42.683Z" fill="#40584E"/>
<path d="M47.9183 45.9447C47.6481 45.9447 47.3847 45.8299 47.1888 45.6408C47.1415 45.5935 47.101 45.5394 47.0605 45.4854C47.0267 45.4246 46.9929 45.3706 46.9659 45.303C46.9456 45.2423 46.9254 45.1815 46.9051 45.1139C46.8916 45.0464 46.8848 44.9788 46.8848 44.918C46.8848 44.6411 46.9929 44.3777 47.182 44.1886C47.4252 43.9454 47.7764 43.8441 48.1074 43.9049C48.1682 43.9184 48.2357 43.9386 48.3033 43.9657C48.3641 43.9859 48.4181 44.0265 48.4789 44.0602C48.5397 44.094 48.587 44.1413 48.6342 44.1886C48.8234 44.3777 48.9314 44.6411 48.9314 44.918C48.9314 44.9856 48.9314 45.0464 48.9112 45.1139C48.8977 45.1815 48.8842 45.2423 48.8504 45.303C48.8301 45.3706 48.7963 45.4246 48.7558 45.4854C48.722 45.5394 48.6815 45.5935 48.6342 45.6408C48.5802 45.688 48.5329 45.7353 48.4789 45.7691C48.4249 45.8029 48.3641 45.8366 48.3033 45.8637C48.2357 45.8907 48.1749 45.9109 48.1074 45.9244C48.0399 45.938 47.9723 45.9447 47.9115 45.9447H47.9183Z" fill="#40584E"/>
<path d="M44.6566 49.2007C44.5891 49.2007 44.5215 49.2008 44.4608 49.1805C44.3932 49.167 44.3324 49.1467 44.2649 49.1197C44.2041 49.0994 44.1433 49.059 44.0893 49.0252C44.0285 48.9914 43.9744 48.9441 43.9339 48.8969C43.7448 48.7077 43.6367 48.4442 43.6367 48.1673C43.6367 47.8903 43.7515 47.6337 43.9339 47.4446C43.9812 47.3973 44.0352 47.3501 44.0893 47.3163C44.1433 47.2825 44.2041 47.2487 44.2649 47.2217C44.3324 47.1946 44.3932 47.1745 44.4608 47.161C44.5891 47.1339 44.7309 47.1339 44.8593 47.161C44.9268 47.1745 44.9876 47.1879 45.0551 47.2217C45.1159 47.2419 45.1767 47.2825 45.2308 47.3163C45.2916 47.3501 45.3456 47.3973 45.3861 47.4446C45.5752 47.6337 45.6833 47.8971 45.6833 48.1673C45.6833 48.4375 45.5685 48.7077 45.3861 48.8969C45.3388 48.9441 45.2848 48.9914 45.2308 49.0252C45.1767 49.059 45.1159 49.0926 45.0551 49.1197C44.9876 49.1399 44.9268 49.167 44.8593 49.1805C44.7985 49.1941 44.7242 49.2007 44.6634 49.2007H44.6566Z" fill="#40584E"/>
<path d="M51.181 42.683C51.1134 42.683 51.0459 42.683 50.9851 42.6627C50.9176 42.6492 50.85 42.6357 50.7892 42.6019C50.7284 42.5817 50.6676 42.5479 50.6136 42.5074C50.5528 42.4736 50.5055 42.4263 50.4582 42.3791C50.411 42.3318 50.3704 42.2777 50.3299 42.2237C50.2961 42.1629 50.2691 42.1089 50.2354 42.0481C50.2151 41.9805 50.1881 41.9198 50.1746 41.8522C50.1611 41.7847 50.1543 41.7171 50.1543 41.6563C50.1543 41.3794 50.2624 41.116 50.4515 40.9268C50.4988 40.8796 50.5528 40.839 50.6068 40.7985C50.6609 40.7647 50.7217 40.731 50.7825 40.704C50.8432 40.6837 50.904 40.6567 50.9783 40.6432C51.1067 40.6229 51.2418 40.6229 51.3768 40.6432C51.4376 40.6567 51.5052 40.6769 51.5727 40.704C51.6335 40.7242 51.6876 40.7647 51.7483 40.7985C51.8024 40.839 51.8564 40.8796 51.9037 40.9268C51.9577 40.9741 51.9983 41.0282 52.032 41.0822C52.0658 41.1362 52.0996 41.1903 52.1266 41.2578C52.1536 41.3186 52.1739 41.3794 52.1874 41.4469C52.2076 41.5145 52.2076 41.582 52.2076 41.6496C52.2076 41.7171 52.2076 41.7779 52.1874 41.8454C52.1739 41.913 52.1604 41.9738 52.1266 42.0413C52.1063 42.1021 52.0658 42.1562 52.032 42.2169C51.9983 42.271 51.9577 42.325 51.9037 42.3723C51.8564 42.4263 51.8024 42.4669 51.7483 42.5006C51.6876 42.5412 51.6335 42.5682 51.5727 42.5952C51.5119 42.6222 51.4444 42.6425 51.3768 42.656C51.3093 42.6762 51.2418 42.6762 51.1742 42.6762L51.181 42.683Z" fill="#40584E"/>
<path d="M51.4915 49.5181C51.424 49.5181 51.3564 49.5045 51.2956 49.4978C51.2281 49.4843 51.1673 49.4708 51.0997 49.437C51.0322 49.4167 50.9782 49.3762 50.9241 49.3424C50.8633 49.3087 50.8093 49.2614 50.7688 49.2141C50.7215 49.1668 50.681 49.1128 50.6404 49.0587C50.6067 48.998 50.5729 48.9439 50.5459 48.8831C50.5256 48.8156 50.5053 48.7548 50.4851 48.6873C50.4716 48.6197 50.4648 48.5522 50.4648 48.4846C50.4648 48.4171 50.4648 48.3495 50.4851 48.282C50.5053 48.2144 50.5189 48.1537 50.5459 48.0929C50.5729 48.0253 50.6067 47.9713 50.6404 47.9105C50.681 47.8565 50.7215 47.8024 50.7688 47.7551C50.8161 47.7079 50.8701 47.6606 50.9241 47.6268C50.9782 47.593 51.0322 47.5593 51.0997 47.5322C51.1673 47.512 51.2281 47.485 51.2956 47.4715C51.424 47.4444 51.559 47.4444 51.6941 47.4715C51.7617 47.485 51.8225 47.5052 51.89 47.5322C51.9508 47.5525 52.0048 47.593 52.0656 47.6268C52.1264 47.6606 52.1737 47.7079 52.221 47.7551C52.2683 47.8024 52.3088 47.8565 52.3426 47.9105C52.3831 47.9713 52.4101 48.0253 52.4371 48.0929C52.4641 48.1537 52.4844 48.2144 52.4979 48.282C52.5182 48.3495 52.5182 48.4171 52.5182 48.4846C52.5182 48.5522 52.5182 48.6197 52.4979 48.6873C52.4844 48.7548 52.4709 48.8156 52.4371 48.8831C52.4169 48.9439 52.3831 48.998 52.3426 49.0587C52.3088 49.1128 52.2683 49.1668 52.221 49.2141C52.1669 49.2614 52.1197 49.3087 52.0656 49.3424C52.0048 49.3762 51.9508 49.41 51.89 49.437C51.8292 49.464 51.7617 49.4843 51.6941 49.4978C51.6333 49.5113 51.559 49.5181 51.4982 49.5181H51.4915Z" fill="#40584E"/>
<path d="M48.2298 52.7736C47.9596 52.7736 47.6962 52.6655 47.5071 52.4764C47.4598 52.4291 47.4193 52.3751 47.3855 52.321C47.345 52.2603 47.3179 52.2062 47.2842 52.1387C47.2639 52.0779 47.2437 52.0171 47.2234 51.9496C47.2099 51.882 47.2031 51.8145 47.2031 51.7537C47.2031 51.6861 47.2031 51.6186 47.2234 51.551C47.2437 51.4835 47.2572 51.4227 47.2842 51.3619C47.3112 51.2944 47.345 51.2403 47.3855 51.1795C47.4193 51.1255 47.4598 51.0715 47.5071 51.0242C47.7435 50.781 48.1015 50.673 48.4324 50.7405C48.4932 50.754 48.5608 50.7743 48.6283 50.8013C48.6891 50.8216 48.7499 50.8621 48.8039 50.8959C48.8647 50.9296 48.912 50.9769 48.9593 51.0242C49.0066 51.0715 49.0471 51.1255 49.0809 51.1795C49.1214 51.2403 49.1484 51.2944 49.1822 51.3619C49.2024 51.4227 49.2227 51.4835 49.243 51.551C49.2565 51.6186 49.2632 51.6861 49.2632 51.7537C49.2632 51.8212 49.2632 51.882 49.243 51.9496C49.2227 52.0171 49.2092 52.0779 49.1822 52.1387C49.1552 52.2062 49.1214 52.2603 49.0809 52.321C49.0471 52.3751 49.0066 52.4291 48.9593 52.4764C48.912 52.5237 48.858 52.571 48.8039 52.6047C48.7499 52.6385 48.6891 52.6723 48.6283 52.6993C48.5675 52.7196 48.5 52.7466 48.4324 52.7601C48.3649 52.7736 48.2973 52.7803 48.2298 52.7803V52.7736Z" fill="#40584E"/>
<path d="M54.7533 46.2555C54.6858 46.2555 54.6182 46.242 54.5574 46.2352C54.4899 46.2217 54.4223 46.2082 54.3616 46.1744C54.294 46.1542 54.24 46.1137 54.1859 46.0799C54.1252 46.0461 54.0779 46.0056 54.0306 45.9583C53.9833 45.9043 53.9428 45.8502 53.9023 45.803C53.8685 45.7422 53.8347 45.6881 53.8077 45.6273C53.7874 45.5598 53.7604 45.499 53.7469 45.4315C53.7334 45.3639 53.7266 45.2964 53.7266 45.2356C53.7266 45.168 53.7266 45.1005 53.7469 45.0329C53.7604 44.9654 53.7807 44.9046 53.8077 44.8438C53.8347 44.7763 53.8685 44.7222 53.9023 44.6682C53.9428 44.6074 53.9833 44.5601 54.0306 44.5129C54.0779 44.4656 54.1319 44.425 54.1859 44.3845C54.24 44.3507 54.3008 44.317 54.3616 44.29C54.4223 44.2697 54.4831 44.2427 54.5574 44.2292C54.6858 44.2022 54.8209 44.2022 54.9559 44.2292C55.0235 44.2427 55.0843 44.2629 55.1518 44.29C55.2126 44.317 55.2667 44.3507 55.3274 44.3845C55.3882 44.425 55.4355 44.4656 55.4828 44.5129C55.5368 44.5601 55.5774 44.6142 55.6111 44.6682C55.6517 44.7222 55.6787 44.783 55.7057 44.8438C55.7327 44.9046 55.753 44.9654 55.7665 45.0329C55.7867 45.1005 55.7867 45.168 55.7867 45.2356C55.7867 45.3031 55.7867 45.3707 55.7665 45.4315C55.753 45.499 55.7395 45.5598 55.7057 45.6273C55.6854 45.6881 55.6517 45.7422 55.6111 45.803C55.5774 45.857 55.5368 45.911 55.4828 45.9583C55.4355 46.0056 55.3882 46.0461 55.3274 46.0799C55.2667 46.1137 55.2126 46.1474 55.1518 46.1744C55.0843 46.2015 55.0235 46.2217 54.9559 46.2352C54.8884 46.2487 54.8209 46.2555 54.7601 46.2555H54.7533Z" fill="#40584E"/>
<path d="M55.0668 53.0913C54.9993 53.0913 54.9317 53.0777 54.8709 53.071C54.8102 53.0575 54.7426 53.044 54.6751 53.0102C54.6143 52.9899 54.5535 52.9494 54.4994 52.9156C54.4387 52.8819 54.3914 52.8346 54.3441 52.7873C54.155 52.5982 54.0469 52.3348 54.0469 52.0646C54.0469 51.997 54.0469 51.9295 54.0672 51.8619C54.0874 51.7944 54.1009 51.7336 54.1279 51.6728C54.155 51.6053 54.1887 51.5512 54.2225 51.4972C54.263 51.4364 54.3036 51.3824 54.3508 51.3419C54.3981 51.2946 54.4522 51.254 54.5062 51.2135C54.5602 51.1797 54.621 51.146 54.6818 51.119C54.7494 51.0987 54.8101 51.0717 54.8777 51.0582C55.006 51.0379 55.1411 51.0379 55.2762 51.0582C55.337 51.0717 55.4045 51.0919 55.4721 51.119C55.5329 51.1392 55.5937 51.1797 55.6477 51.2135C55.7085 51.254 55.7558 51.2946 55.8031 51.3419C55.8503 51.3891 55.8909 51.4432 55.9246 51.4972C55.9652 51.5512 55.9922 51.6053 56.0259 51.6728C56.0462 51.7336 56.0665 51.7944 56.0867 51.8619C56.1002 51.9295 56.107 51.997 56.107 52.0646C56.107 52.3348 55.9989 52.5982 55.8098 52.7873C55.7625 52.8346 55.7085 52.8819 55.6545 52.9156C55.6004 52.9494 55.5396 52.9832 55.4788 53.0102C55.4113 53.0372 55.3505 53.0575 55.283 53.071C55.2154 53.0845 55.1479 53.0913 55.0803 53.0913H55.0668Z" fill="#40584E"/>
<path d="M51.8031 56.3531C51.7356 56.3531 51.668 56.3396 51.6072 56.3328C51.5397 56.3193 51.4789 56.3058 51.4114 56.272C51.3438 56.2517 51.2898 56.2112 51.2357 56.1774C51.175 56.1437 51.1209 56.0964 51.0804 56.0491C51.0331 56.0018 50.9926 55.9478 50.9588 55.8938C50.9183 55.833 50.8913 55.7789 50.8575 55.7181C50.8372 55.6506 50.817 55.5898 50.8035 55.5223C50.7832 55.4547 50.7832 55.3872 50.7832 55.3196C50.7832 55.2521 50.7832 55.1913 50.8035 55.1238C50.817 55.0562 50.8305 54.9954 50.8575 54.9346C50.8845 54.8671 50.9183 54.813 50.9588 54.7523C50.9926 54.6982 51.0331 54.6442 51.0804 54.5969C51.1277 54.5496 51.1817 54.5023 51.2357 54.4686C51.2898 54.4348 51.3438 54.401 51.4114 54.374C51.4722 54.3537 51.5397 54.3267 51.6072 54.3132C51.7356 54.2862 51.8774 54.2862 52.0058 54.3132C52.0733 54.3267 52.1341 54.347 52.2016 54.374C52.2692 54.3943 52.3232 54.4348 52.3773 54.4686C52.438 54.5023 52.4921 54.5496 52.5326 54.5969C52.5799 54.6442 52.6204 54.6982 52.6609 54.7523C52.6947 54.813 52.7217 54.8671 52.7555 54.9346C52.7758 54.9954 52.796 55.0562 52.8163 55.1238C52.8298 55.1913 52.8366 55.2588 52.8366 55.3196C52.8366 55.3872 52.8366 55.4547 52.8163 55.5223C52.796 55.5898 52.7825 55.6506 52.7555 55.7181C52.7285 55.7789 52.6947 55.833 52.6609 55.8938C52.6204 55.9478 52.5799 56.0018 52.5326 56.0491C52.4853 56.0964 52.4313 56.1437 52.3773 56.1774C52.3232 56.2112 52.2692 56.245 52.2016 56.272C52.1341 56.299 52.0733 56.3193 52.0058 56.3328C51.9382 56.3463 51.8707 56.3531 51.8099 56.3531H51.8031Z" fill="#40584E"/>
<path d="M58.3275 49.8285C58.2667 49.8285 58.1924 49.815 58.1316 49.8082C58.064 49.7947 58.0032 49.7812 57.9357 49.7475C57.8682 49.7272 57.8141 49.6934 57.7601 49.6529C57.6993 49.6191 57.6453 49.5786 57.6047 49.5313C57.5574 49.4773 57.5169 49.4232 57.4764 49.376C57.4426 49.3152 57.4088 49.2611 57.3818 49.2003C57.3616 49.1328 57.3413 49.072 57.321 49.0045C57.3075 48.9369 57.3008 48.8694 57.3008 48.8086C57.3008 48.741 57.3008 48.6735 57.321 48.606C57.3413 48.5384 57.3548 48.4776 57.3818 48.4168C57.4088 48.3493 57.4426 48.2952 57.4764 48.2345C57.5169 48.1804 57.5574 48.1264 57.6047 48.0791C57.652 48.0318 57.706 47.9845 57.7601 47.9508C57.8141 47.917 57.8682 47.8832 57.9357 47.8562C58.0032 47.8292 58.064 47.8089 58.1316 47.7954C58.2599 47.7752 58.395 47.7752 58.5301 47.7954C58.5976 47.8089 58.6584 47.8292 58.726 47.8562C58.7868 47.8765 58.8408 47.917 58.9016 47.9508C58.9624 47.9845 59.0097 48.0318 59.0569 48.0791C59.2461 48.275 59.3541 48.5384 59.3541 48.8086C59.3541 48.8761 59.3541 48.9437 59.3339 49.0045C59.3136 49.072 59.3001 49.1328 59.2731 49.2003C59.2528 49.2611 59.219 49.3152 59.1785 49.376C59.1447 49.43 59.1042 49.484 59.0569 49.5313C59.0029 49.5786 58.9556 49.6191 58.9016 49.6529C58.8408 49.6934 58.7868 49.7204 58.726 49.7475C58.6652 49.7745 58.5976 49.7947 58.5301 49.8082C58.4693 49.8217 58.395 49.8285 58.3342 49.8285H58.3275Z" fill="#40584E"/>
<path d="M17.9436 15.9616C17.6667 15.9616 17.4033 15.8536 17.2141 15.6644C17.1668 15.6171 17.1196 15.5631 17.0858 15.5091C17.052 15.455 17.0183 15.401 16.9912 15.3335C16.9709 15.2727 16.9439 15.2119 16.9304 15.1443C16.9169 15.0768 16.9102 15.0092 16.9102 14.9417C16.9102 14.8742 16.9102 14.8066 16.9304 14.7458C16.9439 14.6783 16.9642 14.6175 16.9912 14.5499C17.0115 14.4892 17.052 14.4351 17.0858 14.3743C17.1196 14.3135 17.1668 14.2663 17.2141 14.219C17.2614 14.1649 17.3154 14.1244 17.3695 14.0906C17.4303 14.0501 17.4843 14.0231 17.5519 13.9961C17.6126 13.9691 17.6734 13.9488 17.741 13.9353C17.8761 13.9083 18.0112 13.9083 18.1462 13.9353C18.207 13.9488 18.2746 13.9623 18.3421 13.9961C18.4029 14.0163 18.4569 14.0501 18.5177 14.0906C18.5718 14.1244 18.6258 14.1649 18.6731 14.219C18.7204 14.2663 18.7676 14.3135 18.8014 14.3743C18.8352 14.4351 18.869 14.4892 18.896 14.5499C18.923 14.6175 18.9433 14.6783 18.9568 14.7458C18.9703 14.8134 18.977 14.8809 18.977 14.9417C18.977 15.0092 18.9635 15.0768 18.9568 15.1443C18.9433 15.2119 18.9298 15.2727 18.896 15.3335C18.8757 15.401 18.8352 15.455 18.8014 15.5091C18.7676 15.5699 18.7204 15.6239 18.6731 15.6644C18.6258 15.7117 18.5718 15.7522 18.5177 15.7928C18.4569 15.8265 18.4029 15.8603 18.3421 15.8873C18.2746 15.9076 18.2138 15.9346 18.1462 15.9481C18.0787 15.9616 18.0112 15.9684 17.9504 15.9684L17.9436 15.9616Z" fill="#40584E"/>
<path d="M14.679 19.2242C14.6115 19.2242 14.5439 19.2242 14.4764 19.2039C14.4088 19.1904 14.3481 19.1702 14.2873 19.1431C14.2197 19.1161 14.1657 19.0823 14.1116 19.0486C14.0509 19.008 13.9968 18.9675 13.9563 18.9202C13.909 18.873 13.8685 18.8189 13.828 18.7649C13.7942 18.7109 13.7604 18.6568 13.7334 18.5893C13.7131 18.5285 13.6861 18.4677 13.6726 18.3934C13.6591 18.3259 13.6523 18.2651 13.6523 18.1908C13.6523 18.1232 13.6523 18.0557 13.6726 17.9949C13.6861 17.9273 13.7064 17.8665 13.7334 17.799C13.7537 17.7382 13.7942 17.6842 13.828 17.6234C13.8685 17.5626 13.909 17.5153 13.9563 17.468C14.0036 17.4208 14.0576 17.3802 14.1116 17.3465C14.1657 17.3059 14.2197 17.2789 14.2873 17.2519C14.3481 17.2249 14.4088 17.2046 14.4764 17.1911C14.6115 17.1641 14.7466 17.1641 14.8817 17.1911C14.9492 17.2046 15.01 17.2181 15.0775 17.2519C15.1383 17.2722 15.1924 17.3059 15.2531 17.3465C15.3072 17.3802 15.3612 17.4208 15.4085 17.468C15.4625 17.5153 15.5031 17.5694 15.5368 17.6234C15.5774 17.6842 15.6044 17.7382 15.6314 17.799C15.6584 17.8665 15.6787 17.9273 15.6922 17.9949C15.7124 18.0624 15.7124 18.13 15.7124 18.1908C15.7124 18.2583 15.7124 18.3259 15.6922 18.3934C15.6787 18.4609 15.6652 18.5285 15.6314 18.5893C15.6111 18.6568 15.5706 18.7109 15.5368 18.7649C15.5031 18.8257 15.4625 18.873 15.4085 18.9202C15.3612 18.9675 15.3072 19.008 15.2531 19.0486C15.1924 19.0823 15.1383 19.1161 15.0775 19.1431C15.01 19.1634 14.9492 19.1904 14.8817 19.2039C14.8141 19.2174 14.7466 19.2242 14.6858 19.2242H14.679Z" fill="#40584E"/>
<path d="M21.2053 12.6992C21.1378 12.6992 21.0702 12.6992 21.0027 12.6789C20.9351 12.6654 20.8744 12.6452 20.8068 12.6181C20.746 12.5979 20.692 12.5573 20.6312 12.5236C20.5772 12.4898 20.5231 12.4425 20.4758 12.3952C20.4286 12.348 20.3813 12.2939 20.3475 12.2399C20.3137 12.1791 20.28 12.1251 20.253 12.0575C20.2327 11.9967 20.2057 11.9359 20.1922 11.8684C20.1787 11.8009 20.1719 11.7333 20.1719 11.6658C20.1719 11.5982 20.1719 11.5307 20.1922 11.4631C20.2057 11.3956 20.2259 11.3348 20.253 11.274C20.2732 11.2065 20.3137 11.1524 20.3475 11.0916C20.3813 11.0376 20.4286 10.9836 20.4758 10.9363C20.5231 10.889 20.5772 10.8417 20.6312 10.8079C20.692 10.7742 20.746 10.7404 20.8068 10.7134C20.8744 10.6864 20.9351 10.6661 21.0027 10.6526C21.3337 10.5851 21.6916 10.6931 21.9281 10.9363C21.9753 10.9836 22.0226 11.0376 22.0564 11.0916C22.0902 11.1524 22.1239 11.2065 22.1509 11.274C22.1712 11.3348 22.1982 11.3956 22.2117 11.4631C22.2252 11.5307 22.232 11.5982 22.232 11.6658C22.232 11.7333 22.232 11.8009 22.2117 11.8684C22.1982 11.9359 22.178 11.9967 22.1509 12.0575C22.1307 12.1251 22.0902 12.1791 22.0564 12.2399C22.0226 12.2939 21.9753 12.348 21.9281 12.3952C21.7389 12.5911 21.4688 12.6924 21.2053 12.6924V12.6992Z" fill="#40584E"/>
<path d="M21.516 19.5346C21.4485 19.5346 21.3809 19.5346 21.3134 19.5144C21.2458 19.5008 21.185 19.4806 21.1243 19.4536C21.0567 19.4333 21.0027 19.3928 20.9486 19.359C20.8879 19.3185 20.8338 19.278 20.7933 19.2307C20.5974 19.0348 20.4961 18.7714 20.4961 18.5012C20.4961 18.4336 20.4961 18.3661 20.5164 18.2986C20.5299 18.231 20.5501 18.1702 20.5771 18.1027C20.5974 18.0419 20.6379 17.9879 20.6717 17.9271C20.7122 17.873 20.7528 17.819 20.8 17.7717C20.8473 17.7244 20.9014 17.6772 20.9554 17.6434C21.0094 17.6096 21.0635 17.5758 21.131 17.5488C21.1918 17.5218 21.2526 17.5015 21.3201 17.488C21.4552 17.461 21.5903 17.461 21.7254 17.488C21.7929 17.5015 21.8537 17.515 21.9213 17.5488C21.9821 17.5691 22.0361 17.6096 22.0969 17.6434C22.1509 17.6772 22.205 17.7244 22.2522 17.7717C22.2995 17.819 22.3468 17.873 22.3806 17.9271C22.4144 17.9879 22.4481 18.0419 22.4751 18.1027C22.4954 18.1702 22.5224 18.231 22.5359 18.2986C22.5494 18.3661 22.5562 18.4336 22.5562 18.5012C22.5562 18.7714 22.4481 19.0348 22.259 19.2307C22.2117 19.278 22.1577 19.3185 22.1037 19.359C22.0429 19.3928 21.9888 19.4265 21.928 19.4536C21.8605 19.4738 21.7997 19.5008 21.7322 19.5144C21.6714 19.5279 21.5971 19.5346 21.5363 19.5346H21.516Z" fill="#40584E"/>
<path d="M18.2532 22.7975C18.1857 22.7975 18.1181 22.7975 18.0506 22.7772C17.9831 22.7637 17.9223 22.7435 17.8615 22.7164C17.8007 22.6962 17.7399 22.6556 17.6859 22.6219C17.6251 22.5813 17.571 22.5408 17.5305 22.4935C17.4832 22.4463 17.4427 22.3922 17.4022 22.3382C17.3684 22.2842 17.3414 22.2234 17.3076 22.1626C17.2874 22.1018 17.2603 22.041 17.2468 21.9734C17.2333 21.9059 17.2266 21.8384 17.2266 21.7708C17.2266 21.5006 17.3346 21.2372 17.5238 21.0481C17.571 20.9941 17.6251 20.9535 17.6791 20.9198C17.7331 20.8792 17.7939 20.8522 17.8547 20.8252C17.9155 20.7982 17.9763 20.7779 18.0438 20.7644C18.1789 20.7374 18.314 20.7374 18.4491 20.7644C18.5167 20.7779 18.5774 20.7914 18.645 20.8252C18.7058 20.8455 18.7598 20.8792 18.8206 20.9198C18.8746 20.9535 18.9287 20.9941 18.976 21.0481C19.1718 21.2372 19.2799 21.5006 19.2799 21.7708C19.2799 21.8384 19.2799 21.9059 19.2596 21.9734C19.2461 22.041 19.2326 22.1018 19.1989 22.1626C19.1786 22.2301 19.1381 22.2842 19.1043 22.3382C19.0705 22.399 19.03 22.4463 18.976 22.4935C18.9287 22.5408 18.8746 22.5813 18.8206 22.6219C18.7598 22.6556 18.7058 22.6894 18.645 22.7164C18.5842 22.7367 18.5167 22.7637 18.4491 22.7772C18.3883 22.7907 18.314 22.7975 18.2532 22.7975Z" fill="#40584E"/>
<path d="M24.7708 16.2728C24.71 16.2728 24.6357 16.2728 24.5749 16.2526C24.5141 16.2391 24.4466 16.2188 24.3858 16.1918C24.3183 16.1715 24.2642 16.131 24.2034 16.0972C24.1494 16.0634 24.0954 16.0162 24.0481 15.9689C24.0008 15.9216 23.9535 15.8676 23.9198 15.8135C23.886 15.7527 23.8522 15.6987 23.8252 15.6312C23.7982 15.5704 23.7779 15.5096 23.7644 15.442C23.7509 15.3745 23.7441 15.3069 23.7441 15.2394C23.7441 14.9692 23.859 14.7058 24.0481 14.5167C24.4263 14.1317 25.1153 14.1384 25.4935 14.5167C25.6894 14.7058 25.7975 14.9692 25.7975 15.2394C25.7975 15.3069 25.784 15.3745 25.7772 15.442C25.7637 15.5096 25.7502 15.5704 25.7164 15.6312C25.6962 15.6987 25.6556 15.7527 25.6219 15.8135C25.5881 15.8676 25.5408 15.9216 25.4935 15.9689C25.4463 16.0162 25.3922 16.0634 25.3382 16.0972C25.2774 16.131 25.2234 16.1648 25.1626 16.1918C25.095 16.212 25.0342 16.2391 24.9667 16.2526C24.8991 16.2661 24.8316 16.2728 24.7641 16.2728H24.7708Z" fill="#40584E"/>
<path d="M25.09 23.1084C25.0224 23.1084 24.9549 23.1084 24.8874 23.0881C24.8198 23.0746 24.759 23.0544 24.6982 23.0274C24.6374 23.0071 24.5767 22.9666 24.5159 22.9328C24.4618 22.899 24.4078 22.8517 24.3605 22.8045C24.3132 22.7572 24.266 22.7031 24.2322 22.6491C24.1984 22.5883 24.1646 22.5343 24.1376 22.4667C24.1174 22.4059 24.0903 22.3452 24.0768 22.2776C24.0633 22.2101 24.0566 22.1425 24.0566 22.075C24.0566 21.8048 24.1646 21.5414 24.3538 21.3523C24.401 21.305 24.4551 21.2577 24.5091 21.2239C24.5699 21.1901 24.6239 21.1564 24.6915 21.1294C24.7523 21.1023 24.8131 21.0821 24.8806 21.0686C25.2116 21.001 25.5696 21.1091 25.806 21.3523C26.0018 21.5414 26.1099 21.8048 26.1099 22.075C26.1099 22.1425 26.1099 22.2101 26.0896 22.2776C26.0761 22.3452 26.0626 22.4059 26.0289 22.4667C26.0086 22.5343 25.9681 22.5883 25.9343 22.6491C25.9005 22.7031 25.8532 22.7572 25.806 22.8045C25.7587 22.8517 25.7046 22.899 25.6506 22.9328C25.5898 22.9666 25.5358 23.0003 25.475 23.0274C25.4142 23.0476 25.3467 23.0746 25.2791 23.0881C25.2116 23.1017 25.144 23.1084 25.0765 23.1084H25.09Z" fill="#40584E"/>
<path d="M21.8255 26.3707C21.7579 26.3707 21.6904 26.3707 21.6296 26.3504C21.5621 26.3369 21.4945 26.3167 21.4337 26.2897C21.3662 26.2694 21.3121 26.2289 21.2581 26.1951C21.1973 26.1546 21.15 26.114 21.1028 26.0668C21.0555 26.0195 21.0149 25.9654 20.9744 25.9114C20.9406 25.8574 20.9069 25.8033 20.8799 25.7358C20.8596 25.675 20.8326 25.6142 20.8191 25.5467C20.8056 25.4791 20.7988 25.4116 20.7988 25.344C20.7988 25.2765 20.7988 25.2089 20.8191 25.1482C20.8326 25.0806 20.8528 25.0198 20.8799 24.9523C20.9001 24.8915 20.9406 24.8375 20.9744 24.7767C21.0149 24.7226 21.0555 24.6686 21.1028 24.6213C21.15 24.5673 21.2041 24.5267 21.2581 24.493C21.3121 24.4524 21.3729 24.4254 21.4337 24.3984C21.4945 24.3714 21.5553 24.3511 21.6296 24.3376C21.7579 24.3106 21.893 24.3106 22.0281 24.3376C22.0957 24.3511 22.1564 24.3646 22.224 24.3984C22.2848 24.4187 22.3388 24.4524 22.3996 24.493C22.4536 24.5267 22.5077 24.5673 22.555 24.6213C22.6022 24.6686 22.6428 24.7226 22.6765 24.7767C22.7171 24.8375 22.7441 24.8915 22.7711 24.9523C22.7981 25.0198 22.8184 25.0806 22.8319 25.1482C22.8522 25.2157 22.8522 25.2832 22.8522 25.344C22.8522 25.4116 22.8522 25.4791 22.8319 25.5467C22.8184 25.6142 22.8049 25.675 22.7711 25.7358C22.7508 25.8033 22.7171 25.8574 22.6765 25.9114C22.6428 25.9722 22.6022 26.0262 22.555 26.0668C22.5009 26.114 22.4469 26.1546 22.3996 26.1951C22.3388 26.2289 22.2848 26.2626 22.224 26.2897C22.1564 26.3099 22.0957 26.3369 22.0281 26.3504C21.9606 26.364 21.893 26.3707 21.8322 26.3707H21.8255Z" fill="#40584E"/>
<path d="M28.3509 19.8521C28.0807 19.8521 27.8105 19.7373 27.6214 19.5481C27.4255 19.359 27.3242 19.0956 27.3242 18.8254C27.3242 18.7579 27.3242 18.6903 27.3445 18.6228C27.358 18.5552 27.3783 18.4944 27.4053 18.4337C27.4255 18.3661 27.4661 18.3121 27.4998 18.2513C27.5404 18.1972 27.5809 18.1432 27.6282 18.0959C27.6754 18.0486 27.7295 18.0014 27.7835 17.9676C27.8443 17.9338 27.8983 17.9001 27.9659 17.873C28.0267 17.846 28.0875 17.8258 28.155 17.8122C28.2901 17.7852 28.4252 17.7852 28.5603 17.8122C28.6278 17.8258 28.6886 17.8393 28.7494 17.873C28.8169 17.8933 28.871 17.9338 28.9318 17.9676C28.9858 18.0014 29.0398 18.0486 29.0871 18.0959C29.283 18.2918 29.3911 18.5552 29.3911 18.8254C29.3911 19.0956 29.283 19.3523 29.0871 19.5481C29.0398 19.5954 28.9858 19.6427 28.9318 19.6765C28.871 19.7102 28.8169 19.744 28.7494 19.771C28.6886 19.7913 28.6278 19.8183 28.5603 19.8318C28.4927 19.8453 28.4252 19.8521 28.3644 19.8521H28.3509Z" fill="#40584E"/>
</g>
</g>
<defs>
<clipPath id="clip0_71_4010">
<rect width="59" height="59" fill="white" transform="translate(7 4)"/>
</clipPath>
</defs>
</svg>
