<svg width="72" height="68" viewBox="0 0 72 68" fill="none" xmlns="http://www.w3.org/2000/svg">
<g clip-path="url(#clip0_71_3976)">
<mask id="mask0_71_3976" style="mask-type:luminance" maskUnits="userSpaceOnUse" x="3" y="2" width="65" height="64">
<path d="M68 2H3V66H68V2Z" fill="white"/>
</mask>
<g mask="url(#mask0_71_3976)">
<path d="M61.4855 24.2705C61.4411 27.2422 60.9769 30.1519 60.1391 32.9998C59.2753 35.9369 58.0139 38.71 56.3679 41.3011C55.8722 42.0805 55.7834 42.9527 55.5837 43.7976C54.7773 47.1844 54.0153 50.5821 53.2348 53.9762C52.6207 56.6456 51.9882 59.3132 51.3871 61.9844C50.8692 64.2805 48.9457 65.9084 46.5949 65.994C44.1277 66.085 41.9563 64.3807 41.4921 61.8806C40.9298 58.8598 40.4526 55.8226 39.9348 52.7927C39.3522 49.3749 38.7807 45.9553 38.1722 42.543C37.9484 41.2902 36.7906 40.4053 35.494 40.398C34.2493 40.3907 33.0711 41.2884 32.8418 42.5193C32.4331 44.7062 32.0779 46.904 31.7025 49.0981C31.2919 51.5017 30.8831 53.9034 30.4744 56.3069C30.16 58.157 29.8659 60.0124 29.5274 61.8588C29.0558 64.428 26.8068 66.1633 24.2174 65.9922C22.0054 65.8447 20.1374 64.2223 19.6287 62.019C18.4987 57.1209 17.3649 52.2264 16.233 47.3282C15.8483 45.6621 15.4728 43.9924 15.077 42.3281C15.0086 42.0404 14.8921 41.7491 14.7367 41.4978C13.0462 38.7883 11.7035 35.9241 10.8287 32.8614C9.84655 29.4291 9.30464 25.9275 9.58577 22.3604C9.89464 18.4201 11.587 15.097 14.5296 12.4076C16.6787 10.441 19.2274 9.21375 22.0942 8.66567C24.3894 8.22684 26.6921 8.28875 28.9467 8.93334C30.2284 9.29933 31.4676 9.80918 32.753 10.157C34.9022 10.7396 37.0421 10.6049 39.1561 9.91479C40.4378 9.49599 41.7029 8.96976 43.0198 8.72576C47.9932 7.79894 52.4413 8.96794 56.2828 12.24C58.4523 14.0882 59.9338 16.3953 60.8012 19.081C61.3468 20.769 61.5521 22.5079 61.4929 24.276L61.4855 24.2705ZM11.648 24.1704C11.7386 25.303 11.7793 26.441 11.9273 27.5645C12.4932 31.8636 13.8804 35.8913 16.135 39.6259C16.5548 40.3215 17.0708 40.977 17.2095 41.8183C17.3187 42.4738 17.487 43.1202 17.6368 43.7684C18.6781 48.2824 19.7212 52.7963 20.7643 57.3084C21.101 58.7688 21.4191 60.2346 21.7853 61.6876C22.1182 63.0023 23.3629 63.9164 24.665 63.8654C26.0152 63.8108 27.1175 62.8603 27.3783 61.5019C27.5355 60.6843 27.6687 59.8613 27.8092 59.0419C28.255 56.4144 28.6951 53.7869 29.1427 51.1593C29.6514 48.1749 30.1341 45.1851 30.6834 42.2061C31.1846 39.4857 33.9145 37.7268 36.6259 38.4023C38.6327 38.9031 39.8996 40.2104 40.3158 42.2261C40.5913 43.5608 40.7892 44.9101 41.0186 46.2521C41.4625 48.8487 41.9027 51.447 42.3447 54.0436C42.7756 56.5819 43.1881 59.122 43.6449 61.6548C43.8872 62.9987 45.3539 64.0001 46.7318 63.8326C48.0875 63.6687 48.9919 62.7783 49.323 61.3071C49.8002 59.1803 50.2866 57.0553 50.7749 54.9304C51.6941 50.9317 52.6078 46.9331 53.5492 42.9399C53.7489 42.095 53.8543 41.2265 54.3519 40.449C57.6181 35.3433 59.279 29.7605 59.3216 23.7243C59.3271 22.8211 59.2402 21.9016 59.0589 21.0166C58.53 18.4456 57.313 16.2132 55.4265 14.3541C53.49 12.4458 51.1522 11.2513 48.4722 10.7524C45.8681 10.2662 43.3324 10.5667 40.8762 11.5554C39.3873 12.1545 37.8429 12.5332 36.2301 12.6242C34.0033 12.7499 31.9022 12.2564 29.8456 11.4607C26.7291 10.2553 23.5793 10.2152 20.4277 11.3369C14.9938 13.2706 11.4482 18.4838 11.6535 24.1686L11.648 24.1704Z" fill="#2C4A3E"/>
<path d="M68.0008 52.1208C68.0008 52.5651 67.727 52.9511 67.2646 53.115C66.9336 53.2315 66.5785 53.2916 66.2548 53.4245C64.8806 53.9872 64.0298 54.9996 63.6932 56.4235C63.5952 56.8405 63.4306 57.2047 62.9959 57.3685C62.3412 57.618 61.7068 57.2848 61.5292 56.5473C61.2333 55.3255 60.6119 54.3386 59.4929 53.7068C59.1507 53.5138 58.7623 53.4027 58.3906 53.2625C58.2482 53.2079 58.0947 53.1824 57.9504 53.1332C57.4621 52.9639 57.2087 52.6306 57.2013 52.159C57.1939 51.6619 57.4418 51.305 57.9411 51.1302C58.3018 51.0028 58.681 50.9245 59.0324 50.777C60.2864 50.2489 61.0798 49.3185 61.4312 48.0257C61.6698 47.1462 61.9694 46.8239 62.5742 46.8184C63.179 46.813 63.4787 47.1261 63.7339 48.002C64.2018 49.6044 65.2431 50.6295 66.9058 51.0228C67.6456 51.1976 68.0008 51.5654 68.0008 52.1226V52.1208ZM62.5409 53.3681C62.9756 52.9875 63.4953 52.5305 63.9003 52.1772C63.4491 51.7257 62.97 51.2486 62.5909 50.8699C62.2006 51.2559 61.7179 51.7348 61.3332 52.1153C61.7216 52.5196 62.2025 53.0167 62.5409 53.3681Z" fill="#2C4A3E"/>
<path d="M13.7994 7.33697C13.7957 7.88506 13.509 8.22556 12.8451 8.38398C11.604 8.68078 10.6034 9.30534 9.98569 10.4234C9.76189 10.8294 9.62503 11.2865 9.48446 11.7326C9.29766 12.3334 8.97399 12.6302 8.43208 12.6339C7.88277 12.6375 7.47402 12.3316 7.33346 11.7253C7.10781 10.7475 6.69167 9.86435 5.85013 9.29077C5.28232 8.90292 4.61464 8.6389 3.96176 8.40036C3.35881 8.1764 3 7.8541 3 7.3388C3 6.82713 3.34401 6.40651 3.95066 6.2663C5.79834 5.8384 6.91916 4.7222 7.3427 2.90133C7.47217 2.33504 7.90311 2 8.40619 2C8.91296 2 9.33095 2.32411 9.46967 2.89769C9.91356 4.72584 11.0362 5.86025 12.9116 6.27541C13.5072 6.40651 13.8031 6.80164 13.7976 7.33697H13.7994ZM8.37289 8.57335C8.80199 8.1855 9.31616 7.72118 9.68976 7.38432C9.26992 6.94731 8.80014 6.45567 8.41358 6.05144C8.00484 6.45203 7.51286 6.93274 7.11891 7.31877C7.52766 7.72846 8.00854 8.20917 8.37289 8.57335Z" fill="#2C4A3E"/>
<path d="M15.9913 23.3424C15.9302 23.3424 15.8673 23.3424 15.8063 23.3424C14.8297 23.3169 14.8593 23.5427 14.95 22.4429C15.1923 19.535 16.4629 17.2043 19.0541 15.6802C19.6015 15.3579 20.2248 15.1631 20.8185 14.9209C21.0923 14.808 21.2402 14.8918 21.2865 15.205C21.3549 15.6675 21.4585 16.1263 21.562 16.5834C21.6175 16.8219 21.5454 16.9257 21.3031 17.0131C18.6916 17.9436 17.3876 19.85 17.1213 22.5103C17.0381 23.3388 17.0547 23.3406 16.2206 23.3406C16.1429 23.3406 16.0671 23.3406 15.9894 23.3406L15.9913 23.3424Z" fill="#2C4A3E"/>
<path d="M25.7386 15.891C25.7386 16.5793 25.3816 16.9234 24.6677 16.9234C23.9538 16.9234 23.5888 16.5714 23.5728 15.8673C23.5568 15.1633 23.9143 14.8033 24.6455 14.7876C25.3767 14.7718 25.7404 15.1396 25.7367 15.891H25.7386Z" fill="#2C4A3E"/>
</g>
</g>
<defs>
<clipPath id="clip0_71_3976">
<rect width="65" height="64" fill="white" transform="translate(3 2)"/>
</clipPath>
</defs>
</svg>
