<svg width="44" height="45" viewBox="0 0 44 45" fill="none" xmlns="http://www.w3.org/2000/svg">
<path d="M43.4354 23.1624C42.89 22.426 41.9608 22.0502 40.6704 22.0502H26.454C26.0176 22.0502 25.6452 22.2096 25.3819 22.5095C25.1486 22.7752 25.0207 23.1282 25.0207 23.504C25.0207 24.1911 25.4684 24.9275 26.454 24.9275H39.6133C39.9406 24.9275 40.2415 25.0793 40.4409 25.345C40.6516 25.6259 40.7193 25.9865 40.6215 26.3319C37.8866 36.1253 32.0367 42.1038 30.2837 42.0051C29.3921 42.0051 28.9068 40.4298 28.3425 38.6078C28.0265 37.5829 27.6992 36.5276 27.2553 35.5749C26.281 33.3505 24.163 32.0143 21.7215 32.0713C17.5796 32.1814 16.3682 35.8292 15.3939 38.7634C15.2697 39.1392 15.1494 39.5036 15.0252 39.8414C14.4985 41.2914 14.1186 41.914 13.7236 41.9937C13.3963 42.0582 12.9674 41.7697 12.3166 41.0561C7.64428 36.0342 2.81017 24.9844 2.81017 15.1873C2.81017 10.6702 3.76571 7.36778 5.73321 5.09026C7.66308 2.92282 9.91649 2.45213 12.6176 3.64783C13.8665 4.21341 14.9425 5.1396 16.0786 6.11514C18.1928 7.92957 20.5854 9.99072 24.6483 9.99072C27.6729 9.96035 29.5087 8.92029 31.1263 8.00548C32.5484 7.20076 33.7785 6.50232 35.5504 6.58583C39.0452 6.7073 40.8246 9.93378 40.9977 12.8756C41.0391 13.593 41.6598 14.132 42.4348 14.132C42.6379 14.132 43.0291 14.0865 43.3339 13.7714C43.6085 13.4867 43.7402 13.0654 43.7251 12.5074C43.6047 7.09447 40.4522 3.69717 35.4827 3.63644C32.8305 3.73134 31.0511 4.67651 29.3319 5.59131C27.782 6.41501 26.3261 7.19317 24.3887 7.1666C22.8049 7.1666 21.5748 6.49473 20.4424 5.80008C19.2837 5.16997 18.3132 4.3197 17.3764 3.49599C15.4917 1.84479 13.5355 0.132855 9.91273 0C4.22467 0.0911008 0.0564292 6.36187 0 14.914C0.0564292 26.981 5.91002 38.6229 10.0519 43.0375C11.3197 44.3319 12.5724 45 13.7236 45C13.9756 45 14.2202 44.9696 14.4609 44.9051C15.8905 44.5255 17.0266 43.011 17.6586 40.6461C18.6179 37.245 19.6486 35.1269 21.8118 35.0738C23.2564 35.0738 23.8733 35.9962 24.4715 37.1122C24.8364 37.8258 25.1035 38.7216 25.3894 39.6744C26.1756 42.3011 27.0672 45.2809 30.3627 44.9469C33.6544 44.6166 36.6075 41.0713 38.0747 38.9836C40.3694 35.7229 42.4912 31.3311 43.6085 27.5238C44.1841 25.5652 44.1239 24.1 43.4354 23.1624Z" fill="#2C4A3E"/>
</svg>
